<svg width="13" height="12" viewBox="0 0 13 12" fill="none" xmlns="http://www.w3.org/2000/svg">
<path d="M0.800781 0.784823C0.800781 0.584631 0.877488 0.382568 1.03091 0.22915C1.33774 -0.0776861 1.83542 -0.0776861 2.14225 0.22915L12.5707 10.6594C12.8775 10.9663 12.8775 11.4639 12.5707 11.7708C12.2638 12.0776 11.7661 12.0776 11.4593 11.7708L1.03091 1.3405C0.877488 1.18708 0.800781 0.986886 0.800781 0.784823Z" fill="#BA8B4A"/>
<path d="M2.83381 11.2036C2.83381 10.7696 3.18555 10.4178 3.61961 10.4178L11.2194 10.4178L11.2194 2.81803C11.2194 2.38397 11.5712 2.03223 12.0052 2.03223C12.4393 2.03223 12.791 2.38584 12.791 2.8199L12.791 11.2036C12.791 11.6377 12.4393 11.9894 12.0052 11.9894L3.62148 11.9894C3.18742 11.9894 2.83568 11.6377 2.83568 11.2036L2.83381 11.2036Z" fill="#BA8B4A"/>
</svg>
