<svg width="24" height="23" viewBox="0 0 24 23" fill="none" xmlns="http://www.w3.org/2000/svg">
<rect x="0.828125" y="0.5" width="22" height="22" rx="11" fill="#F4F4F4"/>
<rect x="0.828125" y="0.5" width="22" height="22" rx="11" stroke="#D0D0D0"/>
<path d="M10.9941 8.41504L11.3984 8.81934L11.4697 8.88965L11.3984 8.95996L9.80176 10.5566H13.2354C14.3716 10.5566 15.3037 11.4887 15.3037 12.625V14.6934H14.542V12.625C14.542 11.9057 13.9547 11.3184 13.2354 11.3184H9.80176L11.3984 12.915L11.4697 12.9854L11.3984 13.0557L10.9941 13.46L10.9238 13.5312L10.8535 13.46L8.60352 11.21L8.60156 11.209L8.4082 11.0068L8.3418 10.9375L8.4082 10.8682L8.60156 10.666L8.60352 10.665L10.8535 8.41504L10.9238 8.34375L10.9941 8.41504Z" fill="#656565" stroke="#656565" stroke-width="0.2"/>
</svg>
