<svg width="74" height="530" viewBox="0 0 74 530" fill="none" xmlns="http://www.w3.org/2000/svg">
<path opacity="0.5" d="M48.5156 26.8516C48.0729 32.8672 46.5755 37.3333 44.0234 40.25C41.4713 43.1667 38.2812 44.625 34.4531 44.625C31.1198 44.625 28.2422 43.6354 25.8203 41.6562C23.4245 39.6771 21.849 37.138 21.0937 34.0391C20.3646 30.9661 20 26.8385 20 21.6562L20 0.874991L21.7969 0.874991L21.7969 2.90624C21.7969 5.17187 22.0833 6.73437 22.6562 7.59374C23.2292 8.47916 24.1146 9.03905 25.3125 9.27343C26.5365 9.5078 29.362 9.62499 33.7891 9.62499L59.5703 9.625C63.8672 9.625 66.6406 9.49479 67.8906 9.23437C69.1406 9 70 8.47916 70.4687 7.67187C70.9375 6.89062 71.1719 5.15885 71.1719 2.47656L71.1719 1.46093L72.9687 1.46094L73.2031 10.1719L73.5156 20.0937C73.5156 34.5729 69.349 41.8125 61.0156 41.8125C57.5781 41.8125 54.8177 40.5625 52.7344 38.0625C50.651 35.5885 49.2448 31.8516 48.5156 26.8516ZM49.2578 17.2812C49.2318 17.9323 49.2187 18.4792 49.2187 18.9219C49.2187 24.5469 50.1042 28.388 51.875 30.4453C53.6458 32.5026 56.5104 33.5312 60.4687 33.5312C63.2292 33.5312 65.3646 33.1276 66.875 32.3203C68.3854 31.513 69.5443 30.3021 70.3516 28.6875C71.1849 27.0729 71.6016 24.3125 71.6016 20.4062C71.6016 19.3906 71.5625 18.349 71.4844 17.2812L49.2578 17.2812ZM47.3437 17.2812L35.5469 17.2812C30.5208 17.2812 27.3307 17.3724 25.9766 17.5547C24.6224 17.737 23.5937 18.2187 22.8906 19C22.1875 19.8073 21.8359 21.3828 21.8359 23.7266C21.8359 27.8932 22.9036 31.0182 25.0391 33.1016C27.1745 35.1849 30.3776 36.2266 34.6484 36.2266C39.0234 36.2266 42.2396 35.0417 44.2969 32.6719C46.3802 30.3281 47.4219 26.1875 47.4219 20.25C47.4219 19.3125 47.3958 18.3229 47.3437 17.2812ZM41.1719 80.1719L41.1719 57.8672C39.6354 57.763 38.4896 57.7109 37.7344 57.7109C32.1094 57.7109 27.8776 58.5833 25.0391 60.3281C22.2266 62.0989 20.8203 64.7292 20.8203 68.2187C20.8203 72.9583 22.9427 76.3177 27.1875 78.2969L27.1875 80.1719C24.5312 79.3385 22.4479 77.6849 20.9375 75.2109C19.4531 72.737 18.7109 70.0417 18.7109 67.125C18.7109 64.4167 19.388 61.8516 20.7422 59.4297C22.1224 57.0338 24.0625 55.0677 26.5625 53.5312C29.0625 51.9948 32.0963 51.2266 35.6641 51.2266C40.7161 51.2266 44.9088 52.7109 48.2422 55.6797C51.6016 58.6484 53.2812 62.3594 53.2812 66.8125C53.2812 71.0052 52.0052 74.2474 49.4531 76.5391C46.901 78.8307 44.1406 80.0417 41.1719 80.1719ZM42.7344 73.3359C43.3333 73.4141 43.8672 73.4531 44.3359 73.4531C46.6276 73.4531 48.3984 72.776 49.6484 71.4219C50.9245 70.0937 51.5625 68.4531 51.5625 66.5C51.5625 61.7604 48.6198 58.9349 42.7344 58.0234L42.7344 73.3359ZM18.9844 86.4609L29.4922 86.4609L29.4922 87.9844C23.4245 89.7552 20.3906 92.9193 20.3906 97.4766C20.3906 99.4557 20.9896 100.927 22.1875 101.891C23.3854 102.88 24.7005 103.375 26.1328 103.375C27.7995 103.375 29.1667 102.854 30.2344 101.812C31.3021 100.745 32.5911 98.6745 34.1015 95.6016C35.6901 92.3724 37.2526 90.0547 38.7891 88.6484C40.2995 87.2422 42.1614 86.5391 44.375 86.5391C46.4844 86.5391 48.4896 87.2943 50.3906 88.8047C52.3177 90.3151 53.2812 92.4375 53.2812 95.1719C53.2812 97.9583 52.1484 100.263 49.8828 102.086C50.2734 102.477 51.2239 102.984 52.7344 103.609L52.7344 105.055L42.8515 105.055L42.8515 103.609C45.2213 103.089 47.2526 102.073 48.9453 100.562C50.664 99.0781 51.5234 97.3203 51.5234 95.2891C51.5234 93.7266 51.0417 92.4635 50.0781 91.5C49.1146 90.5365 47.9948 90.0547 46.7187 90.0547C45.3125 90.0547 44.1016 90.5885 43.0859 91.6562C42.0443 92.6979 40.8594 94.6901 39.5312 97.6328C37.526 102.06 35.5729 104.768 33.6719 105.758C31.7448 106.747 29.8958 107.242 28.125 107.242C25.3385 107.242 23.0729 106.318 21.3281 104.469C19.5833 102.646 18.7109 100.341 18.7109 97.5547C18.7109 94.612 19.9219 91.9948 22.3437 89.7031C21.5625 89 20.4427 88.4271 18.9844 87.9844L18.9844 86.4609ZM53.2812 119.82L53.2812 120.875C51.8229 121.318 50.0651 121.539 48.0078 121.539C49.7786 123.206 51.0937 124.99 51.9531 126.891C52.8385 128.818 53.2812 130.849 53.2812 132.984C53.2812 137.411 51.7187 141.096 48.5937 144.039C45.4948 146.982 41.3932 148.453 36.289 148.453C31.289 148.453 27.1094 146.969 23.75 144C20.3906 141.057 18.7109 137.177 18.7109 132.359C18.7109 130.38 19.1146 128.479 19.9219 126.656C20.7031 124.859 21.875 123.154 23.4375 121.539L11.289 121.539C7.59113 121.539 5.33853 121.604 4.53123 121.734C3.72394 121.891 3.12498 122.307 2.73436 122.984C2.31769 123.661 2.10936 124.924 2.10936 126.773L0.312483 126.773L0.312485 110.055L2.10936 110.055L2.10936 111.227C2.10936 113.076 2.3828 114.273 2.92967 114.82C3.45051 115.393 4.08853 115.719 4.84373 115.797C5.5729 115.901 7.72134 115.953 11.289 115.953L40.3515 115.953C43.763 115.953 45.9114 115.901 46.7969 115.797C47.6823 115.719 48.3594 115.354 48.8281 114.703C49.2969 114.052 49.5312 112.893 49.5312 111.227L49.5312 110.055L51.3281 110.055C51.5885 112.633 52.2396 115.888 53.2812 119.82ZM26.0156 121.539C24.2969 122.945 22.9948 124.43 22.1094 125.992C21.25 127.581 20.8203 129.247 20.8203 130.992C20.8203 133.935 22.0833 136.5 24.6094 138.687C27.1354 140.875 31.1588 141.969 36.6797 141.969C41.4713 141.969 45.0521 140.914 47.4219 138.805C49.7916 136.695 50.9765 134.182 50.9765 131.266C50.9765 129.469 50.5208 127.763 49.6094 126.148C48.6979 124.534 47.3177 122.997 45.4687 121.539L26.0156 121.539ZM36.0547 154.625C40.9505 154.625 45.039 156.266 48.3203 159.547C51.6276 162.828 53.2812 166.865 53.2812 171.656C53.2812 176.474 51.6276 180.523 48.3203 183.805C45.013 187.086 40.9245 188.727 36.0547 188.727C30.664 188.727 26.4192 187.06 23.3203 183.727C20.2474 180.393 18.7109 176.37 18.7109 171.656C18.7109 166.943 20.2734 162.919 23.3984 159.586C26.5495 156.279 30.7682 154.625 36.0547 154.625ZM35.8594 161.109C30.1823 161.109 26.1979 162.034 23.9062 163.883C21.6406 165.732 20.5078 168.323 20.5078 171.656C20.5078 175.068 21.6406 177.672 23.9062 179.469C26.1979 181.292 30.1823 182.203 35.8594 182.203C41.4844 182.203 45.4948 181.305 47.8906 179.508C50.2864 177.711 51.4844 175.094 51.4844 171.656C51.4844 168.245 50.2864 165.628 47.8906 163.805C45.5208 162.008 41.5104 161.109 35.8594 161.109ZM51.9922 212.789L51.9922 225.68L50.1953 225.68C50.1432 223.31 48.3724 220.133 44.8828 216.148C43.789 214.872 42.1875 212.893 40.0781 210.211L26.7187 221.617C24.7135 223.336 23.3984 224.69 22.7734 225.68C22.1744 226.669 21.8489 227.685 21.7968 228.727L20 228.727L20 212.789L21.7968 212.789C21.8489 215.445 22.4218 216.773 23.5156 216.773C24.0104 216.773 25.2734 215.901 27.3047 214.156L36.8359 205.953L35.5859 204.273L30.9765 204.273C27.5651 204.273 25.4166 204.312 24.5312 204.391C23.6718 204.495 22.9948 204.872 22.5 205.523C22.0312 206.174 21.7968 207.307 21.7968 208.922L20 208.922L20 192.711L21.7968 192.711L21.7968 193.922C21.7968 195.797 22.0573 197.008 22.5781 197.555C23.125 198.128 23.763 198.453 24.4922 198.531C25.2474 198.609 27.4088 198.648 30.9765 198.648L63.0468 198.648C66.1458 198.648 68.125 198.349 68.9843 197.75C69.8437 197.177 70.2734 195.771 70.2734 193.531L72.0703 193.531C72.0703 195.068 72.2526 196.904 72.6172 199.039C72.9817 201.201 73.3463 202.672 73.7109 203.453L73.7109 204.273L37.7343 204.273L40.0781 207.633C43.9323 213.076 46.7057 215.797 48.3984 215.797C49.5442 215.797 50.1432 214.794 50.1953 212.789L51.9922 212.789ZM41.1718 260.328L41.1718 238.023C39.6354 237.919 38.4896 237.867 37.7343 237.867C32.1093 237.867 27.8776 238.74 25.039 240.484C22.2265 242.255 20.8203 244.885 20.8203 248.375C20.8203 253.115 22.9427 256.474 27.1875 258.453L27.1875 260.328C24.5312 259.495 22.4479 257.841 20.9375 255.367C19.4531 252.893 18.7109 250.198 18.7109 247.281C18.7109 244.573 19.388 242.008 20.7422 239.586C22.1224 237.19 24.0625 235.224 26.5625 233.687C29.0625 232.151 32.0963 231.383 35.664 231.383C40.7161 231.383 44.9088 232.867 48.2422 235.836C51.6015 238.805 53.2812 242.516 53.2812 246.969C53.2812 251.161 52.0052 254.404 49.4531 256.695C46.901 258.987 44.1406 260.198 41.1718 260.328ZM42.7343 253.492C43.3333 253.57 43.8672 253.609 44.3359 253.609C46.6276 253.609 48.3984 252.932 49.6484 251.578C50.9244 250.25 51.5625 248.609 51.5625 246.656C51.5625 241.917 48.6198 239.091 42.7343 238.18L42.7343 253.492ZM72.539 285.25L72.9687 293.961C73.3333 301.227 73.5156 306.122 73.5156 308.648C73.5156 316.513 72.3177 322.646 69.9218 327.047C67.526 331.448 64.2708 334.716 60.1562 336.852C56.0677 339.013 51.3411 340.094 45.9765 340.094C42.0963 340.094 38.5416 339.508 35.3125 338.336C32.1093 337.164 29.4401 335.549 27.3046 333.492C25.1953 331.461 23.5807 329.091 22.4609 326.383C21.3671 323.701 20.677 321.148 20.3906 318.727C20.1302 316.305 20 312.893 20 308.492L20 285.016L21.7968 285.016L21.7968 287.203C21.7968 289.469 22.0833 291.031 22.6562 291.891C23.2291 292.776 24.1145 293.336 25.3125 293.57C26.5364 293.831 29.3619 293.961 33.789 293.961L59.3359 293.961C63.5546 293.961 66.276 293.831 67.5 293.57C68.75 293.336 69.5963 292.815 70.039 292.008C70.5078 291.227 70.7421 289.495 70.7421 286.812L70.7421 285.25L72.539 285.25ZM71.4453 301.578L36.0546 301.578C30.8203 301.578 27.4479 301.669 25.9375 301.852C24.427 302.06 23.3593 302.646 22.7343 303.609C22.1354 304.599 21.8359 306.669 21.8359 309.82C21.8359 314.43 22.4609 318.219 23.7109 321.187C24.9869 324.156 27.4739 326.63 31.1718 328.609C34.8958 330.615 39.6354 331.617 45.3906 331.617C49.8697 331.617 53.8671 331.031 57.3828 329.859C60.8984 328.714 63.75 327.06 65.9375 324.898C68.151 322.737 69.6484 320.341 70.4296 317.711C71.2369 315.081 71.6406 311.708 71.6406 307.594C71.6406 305.615 71.5755 303.609 71.4453 301.578ZM41.1718 376.187L41.1718 353.883C39.6354 353.779 38.4895 353.727 37.7343 353.727C32.1093 353.727 27.8776 354.599 25.039 356.344C22.2265 358.115 20.8203 360.745 20.8203 364.234C20.8203 368.974 22.9427 372.333 27.1875 374.312L27.1875 376.187C24.5312 375.354 22.4479 373.701 20.9375 371.227C19.4531 368.753 18.7109 366.057 18.7109 363.141C18.7109 360.432 19.388 357.867 20.7421 355.445C22.1223 353.049 24.0625 351.083 26.5625 349.547C29.0625 348.01 32.0963 347.242 35.664 347.242C40.7161 347.242 44.9088 348.727 48.2421 351.695C51.6015 354.664 53.2812 358.375 53.2812 362.828C53.2812 367.021 52.0052 370.263 49.4531 372.555C46.901 374.846 44.1406 376.057 41.1718 376.187ZM42.7343 369.352C43.3333 369.43 43.8671 369.469 44.3359 369.469C46.6276 369.469 48.3984 368.792 49.6484 367.437C50.9244 366.109 51.5625 364.469 51.5625 362.516C51.5625 357.776 48.6197 354.951 42.7343 354.039L42.7343 369.352ZM18.9843 382.477L29.4921 382.477L29.4921 384C23.4244 385.771 20.3906 388.935 20.3906 393.492C20.3906 395.471 20.9895 396.943 22.1874 397.906C23.3854 398.896 24.7005 399.391 26.1328 399.391C27.7994 399.391 29.1666 398.87 30.2343 397.828C31.302 396.76 32.5911 394.69 34.1015 391.617C35.6901 388.388 37.2526 386.07 38.789 384.664C40.2994 383.258 42.1614 382.555 44.3749 382.555C46.4843 382.555 48.4895 383.31 50.3906 384.82C52.3177 386.331 53.2812 388.453 53.2812 391.187C53.2812 393.974 52.1484 396.279 49.8828 398.102C50.2734 398.492 51.2239 399 52.7343 399.625L52.7343 401.07L42.8515 401.07L42.8515 399.625C45.2213 399.104 47.2526 398.089 48.9453 396.578C50.664 395.094 51.5234 393.336 51.5234 391.305C51.5234 389.742 51.0416 388.479 50.0781 387.516C49.1145 386.552 47.9947 386.07 46.7187 386.07C45.3124 386.07 44.1015 386.604 43.0859 387.672C42.0442 388.714 40.8593 390.706 39.5312 393.648C37.526 398.076 35.5729 400.784 33.6718 401.773C31.7447 402.763 29.8958 403.258 28.1249 403.258C25.3385 403.258 23.0729 402.333 21.3281 400.484C19.5833 398.661 18.7109 396.357 18.7109 393.57C18.7109 390.628 19.9218 388.01 22.3437 385.719C21.5624 385.016 20.4427 384.443 18.9843 384L18.9843 382.477ZM69.6093 411.305C70.7291 411.305 71.6927 411.695 72.4999 412.477C73.3072 413.284 73.7109 414.247 73.7109 415.367C73.7109 416.487 73.3072 417.437 72.4999 418.219C71.6927 419 70.7291 419.391 69.6093 419.391C68.4635 419.391 67.4869 419 66.6796 418.219C65.8723 417.437 65.4687 416.487 65.4687 415.367C65.4687 414.247 65.8723 413.284 66.6796 412.477C67.4869 411.695 68.4635 411.305 69.6093 411.305ZM53.2812 418.844L30.9765 418.844C27.565 418.844 25.4166 418.896 24.5312 419C23.6458 419.104 22.9687 419.482 22.4999 420.133C22.0312 420.784 21.7968 421.943 21.7968 423.609L21.7968 424.43L19.9999 424.43L19.9999 407.203L21.7968 407.203L21.7968 408.531C21.7968 410.38 22.0572 411.578 22.5781 412.125C23.1249 412.698 23.763 413.023 24.4921 413.102C25.2473 413.206 27.4088 413.258 30.9765 413.258L40.664 413.258C44.414 413.258 46.7057 413.076 47.539 412.711C48.3723 412.372 48.8932 411.904 49.1015 411.305C49.3098 410.732 49.414 409.716 49.414 408.258L49.414 407.203L51.2109 407.203C51.6796 411.839 52.3697 415.432 53.2812 417.984L53.2812 418.844ZM49.1796 453.375C51.6796 455.589 52.9296 457.828 52.9296 460.094C52.9296 461.344 52.5911 462.307 51.914 462.984C51.2369 463.687 50.4947 464.039 49.6874 464.039C47.9687 464.039 47.1093 463.258 47.1093 461.695C47.1093 460.836 47.6432 460.094 48.7109 459.469C49.7005 458.896 50.1953 458.297 50.1953 457.672C50.1953 456.682 49.5182 455.589 48.164 454.391C46.0286 455.745 43.763 456.422 41.3671 456.422C38.2421 456.422 35.4817 455.302 33.0859 453.062C30.664 450.823 29.3619 447.047 29.1796 441.734C28.9973 436.214 27.8775 433.453 25.8203 433.453C24.8567 433.453 24.1796 434.078 23.789 435.328C23.3723 436.552 23.0598 439.13 22.8515 443.062C22.6432 447.359 22.2395 450.667 21.6406 452.984C21.0676 455.302 19.8958 457.151 18.1249 458.531C16.3541 459.911 14.2447 460.602 11.7968 460.602C8.35931 460.602 5.58588 459.195 3.4765 456.383C1.36713 453.57 0.312441 449.521 0.312442 444.234C0.312442 439.391 1.24994 435.51 3.12494 432.594C4.99994 429.677 7.36974 428.219 10.2343 428.219C11.8229 428.219 13.1249 428.635 14.1406 429.469C15.1562 430.302 15.664 431.487 15.664 433.023C15.664 433.44 15.5989 433.818 15.4687 434.156C13.6979 432.542 11.8229 431.734 9.84369 431.734C7.55203 431.734 5.66401 432.802 4.17963 434.937C2.66921 437.099 1.914 440.315 1.914 444.586C1.914 448.388 2.68223 451.344 4.21869 453.453C5.72911 455.589 7.66921 456.656 10.039 456.656C12.6432 456.656 14.4791 455.706 15.5468 453.805C16.5885 451.904 17.2135 448.518 17.4218 443.648C17.6562 438.049 18.3463 434.417 19.4921 432.75C20.6119 431.083 22.0572 430.25 23.8281 430.25C27.2395 430.25 29.388 432.633 30.2734 437.398C31.7317 434.924 33.3984 433.062 35.2734 431.812C37.1484 430.562 39.2447 429.937 41.5624 429.937C44.8177 429.937 47.5781 431.214 49.8437 433.766C52.1354 436.344 53.2812 439.391 53.2812 442.906C53.2812 447.255 51.914 450.745 49.1796 453.375ZM40.664 435.797C37.3046 435.797 34.8437 436.487 33.2812 437.867C31.7187 439.247 30.9374 441.005 30.9374 443.141C30.9374 445.12 31.7057 446.812 33.2421 448.219C34.8046 449.651 37.4999 450.367 41.3281 450.367C45.1822 450.367 47.8385 449.612 49.2968 448.102C50.7551 446.591 51.4843 444.885 51.4843 442.984C51.4843 440.589 50.5859 438.792 48.789 437.594C46.9921 436.396 44.2838 435.797 40.664 435.797ZM53.2812 474.469L53.2812 475.523C51.6666 476.122 49.4661 476.461 46.6796 476.539C48.8932 478.414 50.5468 480.38 51.6406 482.437C52.7343 484.495 53.2812 486.643 53.2812 488.883C53.2812 491.435 52.7473 493.518 51.6796 495.133C50.6119 496.773 49.2968 497.828 47.7343 498.297C46.1979 498.766 43.9452 499 40.9765 499L30.9765 499C27.2786 499 25.026 499.065 24.2187 499.195C23.4114 499.326 22.7994 499.729 22.3827 500.406C21.9921 501.109 21.7968 502.385 21.7968 504.234L19.9999 504.234L19.9999 487.867L21.7968 487.867L21.7968 488.609C21.7968 490.484 22.0702 491.708 22.6171 492.281C23.164 492.854 23.802 493.18 24.5312 493.258C25.2604 493.336 27.4088 493.375 30.9765 493.375L41.289 493.375C43.815 493.375 45.6119 493.245 46.6796 492.984C47.7734 492.75 48.7369 492.086 49.5702 490.992C50.4036 489.924 50.8202 488.557 50.8202 486.891C50.8202 484.99 50.2473 483.167 49.1015 481.422C47.9817 479.703 46.289 478.076 44.0234 476.539L30.9765 476.539C27.2786 476.539 25.026 476.604 24.2187 476.734C23.4114 476.891 22.7994 477.307 22.3827 477.984C21.9921 478.687 21.7968 479.977 21.7968 481.852L19.9999 481.852L19.9999 465.68L21.7968 465.68C21.7968 467.477 21.9791 468.727 22.3437 469.43C22.7083 470.133 23.2551 470.562 23.9843 470.719C24.7395 470.901 27.0703 470.992 30.9765 470.992L40.5078 470.992C44.2317 470.992 46.4843 470.914 47.2656 470.758C48.0729 470.628 48.6718 470.211 49.0624 469.508C49.4791 468.831 49.6874 467.555 49.6874 465.68L51.4843 465.68C51.7968 468.544 52.3958 471.474 53.2812 474.469ZM18.9843 509.195L29.4921 509.195L29.4921 510.719C23.4244 512.49 20.3906 515.654 20.3906 520.211C20.3906 522.19 20.9895 523.661 22.1874 524.625C23.3853 525.615 24.7005 526.109 26.1327 526.109C27.7994 526.109 29.1666 525.589 30.2343 524.547C31.302 523.479 32.5911 521.409 34.1015 518.336C35.69 515.107 37.2525 512.789 38.789 511.383C40.2994 509.977 42.1614 509.273 44.3749 509.273C46.4843 509.273 48.4895 510.029 50.3906 511.539C52.3176 513.049 53.2812 515.172 53.2812 517.906C53.2812 520.693 52.1484 522.997 49.8827 524.82C50.2734 525.211 51.2239 525.719 52.7343 526.344L52.7343 527.789L42.8515 527.789L42.8515 526.344C45.2213 525.823 47.2525 524.807 48.9452 523.297C50.664 521.812 51.5234 520.055 51.5234 518.023C51.5234 516.461 51.0416 515.198 50.0781 514.234C49.1145 513.271 47.9947 512.789 46.7187 512.789C45.3124 512.789 44.1015 513.323 43.0859 514.391C42.0442 515.432 40.8593 517.424 39.5312 520.367C37.526 524.794 35.5728 527.503 33.6718 528.492C31.7447 529.482 29.8958 529.977 28.1249 529.977C25.3385 529.977 23.0728 529.052 21.3281 527.203C19.5833 525.38 18.7109 523.076 18.7109 520.289C18.7109 517.346 19.9218 514.729 22.3437 512.437C21.5624 511.734 20.4426 511.161 18.9843 510.719L18.9843 509.195Z" fill="#F4F4F4"/>
</svg>
