<svg width="21" height="21" viewBox="0 0 21 21" fill="none" xmlns="http://www.w3.org/2000/svg">
<path d="M8.55859 3.73047L9.45703 4.62891L9.52832 4.69922L9.45703 4.76953L5.70117 8.52539H13.625C16.0826 8.52539 18.0996 10.5424 18.0996 13V17.4746H16.6504V13C16.6504 11.334 15.291 9.97461 13.625 9.97461H5.70117L9.45703 13.7305L9.52832 13.8008L9.45703 13.8711L8.55859 14.7695L8.48828 14.8408L8.41797 14.7695L3.41797 9.76953L3.41602 9.76855L2.98633 9.31934L2.91992 9.25L2.98633 9.18066L3.41602 8.73145L3.41797 8.73047L8.41797 3.73047L8.48828 3.65918L8.55859 3.73047Z" fill="#BA8B4A" stroke="#BA8B4A" stroke-width="0.2"/>
</svg>
