<svg width="18" height="18" viewBox="0 0 18 18" fill="none" xmlns="http://www.w3.org/2000/svg">
<path d="M7.875 2.25C7.58057 2.25 7.27954 2.35327 7.06641 2.56641C6.85327 2.77954 6.75 3.08057 6.75 3.375V3.9375H2.8125V5.0625H3.42773L4.5 15.2402L4.55273 15.75H13.4473L13.5 15.2402L14.5723 5.0625H15.1875V3.9375H11.25V3.375C11.25 3.08057 11.1467 2.77954 10.9336 2.56641C10.7205 2.35327 10.4194 2.25 10.125 2.25H7.875ZM7.875 3.375H10.125V3.9375H7.875V3.375ZM4.57031 5.0625H13.4297L12.4277 14.625H5.57227L4.57031 5.0625ZM6.75 6.75V12.9375H7.875V6.75H6.75ZM8.4375 6.75V12.9375H9.5625V6.75H8.4375ZM10.125 6.75V12.9375H11.25V6.75H10.125Z" fill="#ED614B"/>
</svg>
