<svg width="24" height="25" viewBox="0 0 24 25" fill="none" xmlns="http://www.w3.org/2000/svg">
<path d="M2.78906 2.21094L1.71094 3.28906L6.375 7.92969L14.6953 16.25L16.125 17.7031L21.2109 22.7891L22.2891 21.7109L17.625 17.0469C20.8008 15.4736 22.9307 13.1387 23.0625 12.9922L23.5078 12.5L23.0625 12.0078C22.8604 11.7822 18.0645 6.5 12 6.5C10.5322 6.5 9.14648 6.82227 7.875 7.29688L2.78906 2.21094ZM12 8C13.6143 8 15.1406 8.4541 16.5 9.07812C16.9834 9.88672 17.25 10.8008 17.25 11.75C17.25 13.1123 16.7227 14.3574 15.8672 15.2891L13.7344 13.1562C14.0479 12.7725 14.25 12.2861 14.25 11.75C14.25 10.5078 13.2422 9.5 12 9.5C11.4639 9.5 10.9775 9.70215 10.5938 10.0156L9.07031 8.49219C10.002 8.20508 10.9775 8 12 8ZM5.01562 8.67969C2.61035 10.1592 1.04883 11.8818 0.9375 12.0078L0.492188 12.5L0.9375 12.9922C1.13086 13.209 5.57227 18.0693 11.2969 18.4531C11.5283 18.4766 11.7627 18.5 12 18.5C12.2373 18.5 12.4717 18.4766 12.7031 18.4531C13.3213 18.4121 13.9248 18.3301 14.5078 18.1953L13.1719 16.8594C12.791 16.9473 12.4043 17 12 17C9.10547 17 6.75 14.6445 6.75 11.75C6.75 11.3516 6.80273 10.9619 6.89062 10.5781L5.01562 8.67969ZM5.4375 10.2031C5.31738 10.71 5.25 11.2256 5.25 11.75C5.25 13.0537 5.61621 14.2549 6.25781 15.2891C4.54102 14.3047 3.22852 13.1504 2.55469 12.5C3.11426 11.958 4.12207 11.0586 5.4375 10.2031ZM18.5625 10.2031C19.8779 11.0586 20.8828 11.958 21.4453 12.5C20.7715 13.1504 19.4385 14.3281 17.7188 15.3125C18.3633 14.2783 18.75 13.0537 18.75 11.75C18.75 11.2256 18.6826 10.707 18.5625 10.2031Z" fill="black"/>
</svg>
