<svg width="74" height="527" viewBox="0 0 74 527" fill="none" xmlns="http://www.w3.org/2000/svg">
<path opacity="0.5" d="M72.5391 0.874997L72.9687 9.58594C73.3333 16.8516 73.5156 21.7474 73.5156 24.2734C73.5156 32.138 72.3177 38.2708 69.9219 42.6719C67.526 47.0729 64.2708 50.3411 60.1562 52.4766C56.0677 54.638 51.3411 55.7187 45.9766 55.7187C42.0963 55.7187 38.5417 55.1328 35.3125 53.9609C32.1094 52.7891 29.4401 51.1745 27.3047 49.1172C25.1953 47.0859 23.5807 44.7161 22.4609 42.0078C21.3672 39.3255 20.6771 36.7734 20.3906 34.3516C20.1302 31.9297 20 28.5182 20 24.1172L20 0.640616L21.7969 0.640616L21.7969 2.82812C21.7969 5.09374 22.0833 6.65624 22.6562 7.51562C23.2292 8.40103 24.1146 8.96093 25.3125 9.1953C26.5365 9.45572 29.362 9.58593 33.7891 9.58593L59.3359 9.58593C63.5547 9.58593 66.276 9.45573 67.5 9.19531C68.75 8.96093 69.5964 8.4401 70.0391 7.63281C70.5078 6.85156 70.7422 5.11979 70.7422 2.4375L70.7422 0.874997L72.5391 0.874997ZM71.4453 17.2031L36.0547 17.2031C30.8203 17.2031 27.4479 17.2943 25.9375 17.4766C24.4271 17.6849 23.3594 18.2708 22.7344 19.2344C22.1354 20.2239 21.8359 22.2943 21.8359 25.4453C21.8359 30.0547 22.4609 33.8437 23.7109 36.8125C24.987 39.7812 27.474 42.2552 31.1719 44.2344C34.8958 46.2396 39.6354 47.2422 45.3906 47.2422C49.8698 47.2422 53.8672 46.6562 57.3828 45.4844C60.8984 44.3385 63.75 42.6849 65.9375 40.5234C68.151 38.362 69.6484 35.9661 70.4297 33.3359C71.237 30.7057 71.6406 27.3333 71.6406 23.2187C71.6406 21.2396 71.5755 19.2344 71.4453 17.2031ZM69.6094 65.2109C70.7292 65.2109 71.6927 65.6016 72.5 66.3828C73.3073 67.1901 73.7109 68.1536 73.7109 69.2734C73.7109 70.3932 73.3073 71.3437 72.5 72.125C71.6927 72.9062 70.7292 73.2969 69.6094 73.2969C68.4635 73.2969 67.487 72.9062 66.6797 72.125C65.8724 71.3437 65.4687 70.3932 65.4687 69.2734C65.4687 68.1536 65.8724 67.1901 66.6797 66.3828C67.487 65.6016 68.4635 65.2109 69.6094 65.2109ZM53.2812 72.75L30.9766 72.75C27.5651 72.75 25.4167 72.8021 24.5312 72.9062C23.6458 73.0104 22.9687 73.388 22.5 74.0391C22.0312 74.6901 21.7969 75.8489 21.7969 77.5156L21.7969 78.3359L20 78.3359L20 61.1094L21.7969 61.1094L21.7969 62.4375C21.7969 64.2864 22.0573 65.4844 22.5781 66.0312C23.125 66.6042 23.763 66.9297 24.4922 67.0078C25.2474 67.112 27.4088 67.1641 30.9766 67.1641L40.6641 67.1641C44.4141 67.1641 46.7057 66.9818 47.5391 66.6172C48.3724 66.2786 48.8932 65.8099 49.1016 65.2109C49.3099 64.638 49.4141 63.6224 49.4141 62.1641L49.4141 61.1094L51.2109 61.1094C51.6797 65.7448 52.3698 69.3385 53.2812 71.8906L53.2812 72.75ZM49.1797 107.281C51.6797 109.495 52.9297 111.734 52.9297 114C52.9297 115.25 52.5911 116.214 51.914 116.891C51.237 117.594 50.4948 117.945 49.6875 117.945C47.9687 117.945 47.1094 117.164 47.1094 115.602C47.1094 114.742 47.6432 114 48.7109 113.375C49.7005 112.802 50.1953 112.203 50.1953 111.578C50.1953 110.589 49.5182 109.495 48.164 108.297C46.0286 109.651 43.763 110.328 41.3672 110.328C38.2422 110.328 35.4818 109.208 33.0859 106.969C30.664 104.729 29.362 100.953 29.1797 95.6406C28.9974 90.1198 27.8776 87.3594 25.8203 87.3594C24.8568 87.3594 24.1797 87.9844 23.7891 89.2344C23.3724 90.4583 23.0599 93.0364 22.8515 96.9687C22.6432 101.266 22.2396 104.573 21.6406 106.891C21.0677 109.208 19.8958 111.057 18.125 112.437C16.3542 113.818 14.2448 114.508 11.7969 114.508C8.35936 114.508 5.58592 113.102 3.47655 110.289C1.36717 107.477 0.312486 103.427 0.312487 98.1406C0.312488 93.2969 1.24999 89.4167 3.12499 86.5C4.99999 83.5833 7.36978 82.125 10.2344 82.125C11.8229 82.125 13.125 82.5417 14.1406 83.375C15.1562 84.2083 15.6641 85.3932 15.6641 86.9297C15.6641 87.3463 15.5989 87.7239 15.4687 88.0625C13.6979 86.4479 11.8229 85.6406 9.84374 85.6406C7.55207 85.6406 5.66405 86.7083 4.17968 88.8437C2.66926 91.0052 1.91405 94.2213 1.91405 98.4922C1.91405 102.294 2.68228 105.25 4.21874 107.359C5.72915 109.495 7.66926 110.562 10.039 110.562C12.6432 110.562 14.4792 109.612 15.5469 107.711C16.5885 105.81 17.2135 102.424 17.4219 97.5547C17.6562 91.9557 18.3463 88.3229 19.4922 86.6562C20.612 84.9896 22.0573 84.1562 23.8281 84.1562C27.2396 84.1562 29.388 86.5391 30.2734 91.3047C31.7318 88.8307 33.3984 86.9687 35.2734 85.7187C37.1484 84.4687 39.2448 83.8437 41.5625 83.8437C44.8177 83.8437 47.5781 85.1198 49.8437 87.6719C52.1354 90.25 53.2812 93.2969 53.2812 96.8125C53.2812 101.161 51.914 104.651 49.1797 107.281ZM40.6641 89.7031C37.3047 89.7031 34.8437 90.3932 33.2812 91.7734C31.7187 93.1536 30.9375 94.9115 30.9375 97.0469C30.9375 99.026 31.7057 100.719 33.2422 102.125C34.8047 103.557 37.5 104.273 41.3281 104.273C45.1823 104.273 47.8385 103.518 49.2969 102.008C50.7552 100.497 51.4844 98.7917 51.4844 96.8906C51.4844 94.4948 50.5859 92.6979 48.7891 91.5C46.9922 90.3021 44.2838 89.7031 40.6641 89.7031ZM69.6094 122.711C70.7292 122.711 71.6927 123.102 72.5 123.883C73.3073 124.69 73.7109 125.654 73.7109 126.773C73.7109 127.893 73.3073 128.844 72.5 129.625C71.6927 130.406 70.7291 130.797 69.6094 130.797C68.4635 130.797 67.487 130.406 66.6797 129.625C65.8724 128.844 65.4687 127.893 65.4687 126.773C65.4687 125.654 65.8724 124.69 66.6797 123.883C67.487 123.102 68.4635 122.711 69.6094 122.711ZM53.2812 130.25L30.9765 130.25C27.5651 130.25 25.4166 130.302 24.5312 130.406C23.6458 130.51 22.9687 130.888 22.5 131.539C22.0312 132.19 21.7969 133.349 21.7969 135.016L21.7969 135.836L20 135.836L20 118.609L21.7969 118.609L21.7969 119.937C21.7969 121.786 22.0573 122.984 22.5781 123.531C23.125 124.104 23.763 124.43 24.4922 124.508C25.2474 124.612 27.4088 124.664 30.9765 124.664L40.664 124.664C44.414 124.664 46.7057 124.482 47.539 124.117C48.3724 123.779 48.8932 123.31 49.1015 122.711C49.3099 122.138 49.414 121.122 49.414 119.664L49.414 118.609L51.2109 118.609C51.6797 123.245 52.3698 126.839 53.2812 129.391L53.2812 130.25ZM50.1953 159.312L50.1953 149.664L30.8594 149.664C27.8906 149.664 25.8854 149.794 24.8437 150.055C23.8281 150.315 23.0078 150.862 22.3828 151.695C21.7578 152.555 21.4453 153.466 21.4453 154.43C21.4453 156.305 22.513 157.932 24.6484 159.312L23.9062 160.562C22.1875 159.755 20.8854 158.557 20 156.969C19.1406 155.406 18.7109 153.818 18.7109 152.203C18.7109 150.328 19.2578 148.674 20.3515 147.242C21.4713 145.836 22.7734 144.951 24.2578 144.586C25.7422 144.247 28.3463 144.078 32.0703 144.078L50.1953 144.078L50.1953 139.43L51.9922 139.43C52.0443 141.565 52.9427 143.479 54.6875 145.172C56.4323 146.865 58.8802 147.945 62.0312 148.414L62.0312 149.664L51.9922 149.664L51.9922 159.312L50.1953 159.312ZM25.8593 195.953L25.8593 197.398C21.4062 197.164 19.1797 194.977 19.1797 190.836C19.1797 189.065 19.6484 187.659 20.5859 186.617C21.5234 185.602 22.9166 184.937 24.7656 184.625C22.9166 182.021 21.5234 179.638 20.5859 177.477C19.6484 175.341 19.1797 173.427 19.1797 171.734C19.1797 169.573 19.8047 167.711 21.0547 166.148C22.3047 164.586 23.9583 163.805 26.0156 163.805C28.6979 163.805 31.0416 165.107 33.0469 167.711C35.0521 170.341 37.0052 173.961 38.9062 178.57L41.3672 184.625L42.9297 184.625C45.1432 184.625 46.7448 184.482 47.7344 184.195C48.7239 183.909 49.6094 183.167 50.3906 181.969C51.1719 180.771 51.5625 179.195 51.5625 177.242C51.5625 173.336 50.2604 171.161 47.6562 170.719C45 170.302 43.6719 169.208 43.6719 167.437C43.6719 165.849 44.4271 165.055 45.9375 165.055C47.4219 165.055 49.0104 166.109 50.7031 168.219C52.4219 170.328 53.2812 173.609 53.2812 178.062C53.2812 181.37 52.7604 183.935 51.7187 185.758C50.6771 187.581 49.4922 188.779 48.164 189.352C46.8359 189.951 44.8047 190.25 42.0703 190.25L29.1406 190.25C26.1198 190.25 24.1797 190.406 23.3203 190.719C22.4609 191.031 22.0312 191.708 22.0312 192.75C22.0312 194.469 23.3073 195.536 25.8593 195.953ZM39.5312 184.625L37.8125 180.367C35.0781 173.648 31.6406 170.289 27.5 170.289C25.8594 170.289 24.5312 170.719 23.5156 171.578C22.526 172.437 22.0312 173.557 22.0312 174.937C22.0312 176.161 22.4349 177.581 23.2422 179.195C24.0495 180.81 25.2604 182.62 26.875 184.625L39.5312 184.625ZM73.7109 210.484L30.9765 210.484C27.5651 210.484 25.4166 210.523 24.5312 210.602C23.6458 210.706 22.9687 211.083 22.5 211.734C22.0312 212.385 21.7968 213.544 21.7968 215.211L21.7968 216.148L20 216.148L20 199.039L21.7968 199.039L21.7968 200.133C21.7968 201.695 22.0052 202.802 22.4218 203.453C22.8646 204.13 23.4765 204.534 24.2578 204.664C25.039 204.794 27.2786 204.859 30.9765 204.859L62.6172 204.859C65.9765 204.859 68.0859 204.56 68.9453 203.961C69.8307 203.362 70.2734 201.904 70.2734 199.586L72.0703 199.586C72.0703 201.174 72.2526 203.036 72.6172 205.172C72.9817 207.333 73.3463 208.818 73.7109 209.625L73.7109 210.484ZM36.4843 283.102L36.4843 284.977L20 283.844L20 239.977L21.7968 239.977L21.7968 241.07C21.7968 243.701 22.1484 245.393 22.8515 246.148C23.5547 246.93 24.4401 247.424 25.5078 247.633C26.6015 247.841 29.3619 247.945 33.789 247.945L59.7656 247.945C63.8021 247.945 66.4583 247.828 67.7343 247.594C69.0104 247.385 69.8958 246.878 70.3906 246.07C70.9114 245.289 71.1718 243.622 71.1718 241.07L72.9687 241.07L72.9687 278.922L59.7656 280.172L59.7656 278.336C63.4635 277.503 66.0807 276.474 67.6172 275.25C69.1797 274.052 70.1562 272.62 70.5468 270.953C70.9635 269.286 71.1718 266.604 71.1718 262.906L71.1718 255.562L48.9453 255.562L48.9453 261.187C48.9453 263.766 49.1666 265.562 49.6093 266.578C50.052 267.62 50.7161 268.297 51.6015 268.609C52.513 268.948 54.2708 269.117 56.875 269.117L56.875 270.953L38.75 270.953L38.75 269.117C41.6927 269.117 43.6588 268.87 44.6484 268.375C45.664 267.88 46.3151 267.151 46.6015 266.187C46.914 265.25 47.0703 263.648 47.0703 261.383L47.0703 255.562L34.5312 255.562C28.2552 255.562 24.5573 255.966 23.4375 256.773C22.3437 257.581 21.7968 259.755 21.7968 263.297L21.7968 267.242C21.7968 270.029 22.1484 272.32 22.8515 274.117C23.5807 275.914 25.052 277.62 27.2656 279.234C29.5052 280.875 32.5781 282.164 36.4843 283.102ZM73.7109 299.703L30.9765 299.703C27.5651 299.703 25.4166 299.742 24.5312 299.82C23.6458 299.924 22.9687 300.302 22.5 300.953C22.0312 301.604 21.7968 302.763 21.7968 304.43L21.7968 305.367L20 305.367L20 288.258L21.7968 288.258L21.7968 289.352C21.7968 290.914 22.0052 292.021 22.4218 292.672C22.8645 293.349 23.4765 293.753 24.2578 293.883C25.039 294.013 27.2786 294.078 30.9765 294.078L62.6171 294.078C65.9765 294.078 68.0859 293.779 68.9453 293.18C69.8307 292.581 70.2734 291.122 70.2734 288.805L72.0703 288.805C72.0703 290.393 72.2526 292.255 72.6171 294.391C72.9817 296.552 73.3463 298.036 73.7109 298.844L73.7109 299.703ZM41.1718 338.609L41.1718 316.305C39.6354 316.201 38.4895 316.148 37.7343 316.148C32.1093 316.148 27.8776 317.021 25.039 318.766C22.2265 320.536 20.8203 323.167 20.8203 326.656C20.8203 331.396 22.9427 334.755 27.1875 336.734L27.1875 338.609C24.5312 337.776 22.4479 336.122 20.9375 333.648C19.4531 331.174 18.7109 328.479 18.7109 325.562C18.7109 322.854 19.388 320.289 20.7421 317.867C22.1224 315.471 24.0625 313.505 26.5625 311.969C29.0625 310.432 32.0963 309.664 35.664 309.664C40.7161 309.664 44.9088 311.148 48.2421 314.117C51.6015 317.086 53.2812 320.797 53.2812 325.25C53.2812 329.443 52.0052 332.685 49.4531 334.977C46.901 337.268 44.1406 338.479 41.1718 338.609ZM42.7343 331.773C43.3333 331.852 43.8671 331.891 44.3359 331.891C46.6276 331.891 48.3984 331.214 49.6484 329.859C50.9244 328.531 51.5625 326.891 51.5625 324.937C51.5625 320.198 48.6197 317.372 42.7343 316.461L42.7343 331.773ZM49.1796 369.078C51.6796 371.292 52.9296 373.531 52.9296 375.797C52.9296 377.047 52.5911 378.01 51.914 378.687C51.2369 379.391 50.4947 379.742 49.6875 379.742C47.9687 379.742 47.1093 378.961 47.1093 377.398C47.1093 376.539 47.6432 375.797 48.7109 375.172C49.7005 374.599 50.1953 374 50.1953 373.375C50.1953 372.385 49.5182 371.292 48.164 370.094C46.0286 371.448 43.763 372.125 41.3671 372.125C38.2421 372.125 35.4817 371.005 33.0859 368.766C30.664 366.526 29.3619 362.75 29.1796 357.437C28.9973 351.917 27.8776 349.156 25.8203 349.156C24.8567 349.156 24.1796 349.781 23.789 351.031C23.3723 352.255 23.0598 354.833 22.8515 358.766C22.6432 363.062 22.2395 366.37 21.6406 368.687C21.0677 371.005 19.8958 372.854 18.125 374.234C16.3541 375.615 14.2447 376.305 11.7968 376.305C8.35933 376.305 5.58589 374.898 3.47651 372.086C1.36714 369.273 0.312452 365.224 0.312453 359.937C0.312453 355.094 1.24995 351.214 3.12495 348.297C4.99995 345.38 7.36975 343.922 10.2343 343.922C11.8229 343.922 13.125 344.339 14.1406 345.172C15.1562 346.005 15.664 347.19 15.664 348.727C15.664 349.143 15.5989 349.521 15.4687 349.859C13.6979 348.245 11.8229 347.437 9.8437 347.437C7.55204 347.437 5.66402 348.505 4.17964 350.641C2.66922 352.802 1.91402 356.018 1.91402 360.289C1.91401 364.091 2.68224 367.047 4.2187 369.156C5.72912 371.292 7.66922 372.359 10.039 372.359C12.6432 372.359 14.4791 371.409 15.5468 369.508C16.5885 367.607 17.2135 364.221 17.4218 359.352C17.6562 353.753 18.3463 350.12 19.4921 348.453C20.6119 346.786 22.0572 345.953 23.8281 345.953C27.2395 345.953 29.388 348.336 30.2734 353.102C31.7317 350.628 33.3984 348.766 35.2734 347.516C37.1484 346.266 39.2447 345.641 41.5625 345.641C44.8177 345.641 47.5781 346.917 49.8437 349.469C52.1354 352.047 53.2812 355.094 53.2812 358.609C53.2812 362.958 51.914 366.448 49.1796 369.078ZM40.664 351.5C37.3046 351.5 34.8437 352.19 33.2812 353.57C31.7187 354.951 30.9375 356.708 30.9375 358.844C30.9375 360.823 31.7057 362.516 33.2421 363.922C34.8046 365.354 37.5 366.07 41.3281 366.07C45.1822 366.07 47.8385 365.315 49.2968 363.805C50.7552 362.294 51.4843 360.589 51.4843 358.687C51.4843 356.292 50.5859 354.495 48.789 353.297C46.9921 352.099 44.2838 351.5 40.664 351.5ZM25.8593 415.172L25.8593 416.617C21.4062 416.383 19.1796 414.195 19.1796 410.055C19.1796 408.284 19.6484 406.878 20.5859 405.836C21.5234 404.82 22.9166 404.156 24.7656 403.844C22.9166 401.24 21.5234 398.857 20.5859 396.695C19.6484 394.56 19.1796 392.646 19.1796 390.953C19.1796 388.792 19.8046 386.93 21.0546 385.367C22.3046 383.805 23.9583 383.023 26.0156 383.023C28.6979 383.023 31.0416 384.326 33.0468 386.93C35.052 389.56 37.0052 393.18 38.9062 397.789L41.3671 403.844L42.9296 403.844C45.1432 403.844 46.7447 403.701 47.7343 403.414C48.7239 403.128 49.6093 402.385 50.3906 401.187C51.1718 399.99 51.5624 398.414 51.5624 396.461C51.5624 392.555 50.2604 390.38 47.6562 389.937C44.9999 389.521 43.6718 388.427 43.6718 386.656C43.6718 385.068 44.427 384.273 45.9374 384.273C47.4218 384.273 49.0104 385.328 50.7031 387.437C52.4218 389.547 53.2812 392.828 53.2812 397.281C53.2812 400.589 52.7604 403.154 51.7187 404.977C50.677 406.799 49.4921 407.997 48.164 408.57C46.8359 409.169 44.8046 409.469 42.0703 409.469L29.1406 409.469C26.1197 409.469 24.1796 409.625 23.3203 409.937C22.4609 410.25 22.0312 410.927 22.0312 411.969C22.0312 413.687 23.3072 414.755 25.8593 415.172ZM39.5312 403.844L37.8124 399.586C35.0781 392.867 31.6406 389.508 27.4999 389.508C25.8593 389.508 24.5312 389.937 23.5156 390.797C22.526 391.656 22.0312 392.776 22.0312 394.156C22.0312 395.38 22.4348 396.799 23.2421 398.414C24.0494 400.029 25.2604 401.839 26.8749 403.844L39.5312 403.844ZM53.2812 428.453L53.2812 429.508C51.6666 430.107 49.4661 430.445 46.6796 430.523C48.8932 432.398 50.5468 434.365 51.6406 436.422C52.7343 438.479 53.2812 440.628 53.2812 442.867C53.2812 445.419 52.7473 447.503 51.6796 449.117C50.6119 450.758 49.2968 451.812 47.7343 452.281C46.1979 452.75 43.9453 452.984 40.9765 452.984L30.9765 452.984C27.2786 452.984 25.026 453.049 24.2187 453.18C23.4114 453.31 22.7994 453.714 22.3828 454.391C21.9921 455.094 21.7968 456.37 21.7968 458.219L19.9999 458.219L19.9999 441.852L21.7968 441.852L21.7968 442.594C21.7968 444.469 22.0703 445.693 22.6171 446.266C23.164 446.839 23.802 447.164 24.5312 447.242C25.2604 447.32 27.4088 447.359 30.9765 447.359L41.289 447.359C43.815 447.359 45.6119 447.229 46.6796 446.969C47.7734 446.734 48.7369 446.07 49.5703 444.977C50.4036 443.909 50.8203 442.542 50.8203 440.875C50.8203 438.974 50.2473 437.151 49.1015 435.406C47.9817 433.687 46.289 432.06 44.0234 430.523L30.9765 430.523C27.2786 430.523 25.026 430.589 24.2187 430.719C23.4114 430.875 22.7994 431.292 22.3828 431.969C21.9921 432.672 21.7968 433.961 21.7968 435.836L19.9999 435.836L19.9999 419.664L21.7968 419.664C21.7968 421.461 21.9791 422.711 22.3437 423.414C22.7083 424.117 23.2552 424.547 23.9843 424.703C24.7395 424.885 27.0703 424.977 30.9765 424.977L40.5078 424.977C44.2317 424.977 46.4843 424.898 47.2656 424.742C48.0729 424.612 48.6718 424.195 49.0624 423.492C49.4791 422.815 49.6874 421.539 49.6874 419.664L51.4843 419.664C51.7968 422.529 52.3958 425.458 53.2812 428.453ZM27.8124 490.523L27.8124 492.242C21.7447 490.471 18.7109 486.044 18.7109 478.961C18.7109 474.404 20.2604 470.562 23.3593 467.437C26.4583 464.339 30.5598 462.789 35.664 462.789C40.8984 462.789 45.1432 464.469 48.3984 467.828C51.6536 471.187 53.2812 475.159 53.2812 479.742C53.2812 482.503 52.6692 485.042 51.4452 487.359C50.2473 489.677 48.776 490.836 47.0312 490.836C46.3801 490.836 45.7682 490.615 45.1952 490.172C44.6223 489.755 44.3359 489.143 44.3359 488.336C44.3359 486.617 45.3385 485.562 47.3437 485.172C48.8541 484.859 49.9088 484.378 50.5077 483.727C51.1067 483.049 51.4062 481.734 51.4062 479.781C51.4062 476.292 50.1953 473.661 47.7734 471.891C45.3515 470.146 41.7057 469.273 36.8359 469.273C31.8098 469.273 27.8775 470.211 25.039 472.086C22.2005 473.987 20.7812 476.852 20.7812 480.68C20.7812 485.836 23.1249 489.117 27.8124 490.523ZM41.1718 526.109L41.1718 503.805C39.6354 503.701 38.4895 503.648 37.7343 503.648C32.1093 503.648 27.8775 504.521 25.039 506.266C22.2265 508.036 20.8202 510.667 20.8202 514.156C20.8202 518.896 22.9426 522.255 27.1874 524.234L27.1874 526.109C24.5312 525.276 22.4478 523.622 20.9374 521.148C19.4531 518.674 18.7109 515.979 18.7109 513.062C18.7109 510.354 19.388 507.789 20.7421 505.367C22.1223 502.971 24.0624 501.005 26.5624 499.469C29.0624 497.932 32.0963 497.164 35.664 497.164C40.7161 497.164 44.9088 498.648 48.2421 501.617C51.6015 504.586 53.2812 508.297 53.2812 512.75C53.2812 516.943 52.0051 520.185 49.4531 522.477C46.901 524.768 44.1406 525.979 41.1718 526.109ZM42.7343 519.273C43.3333 519.352 43.8671 519.391 44.3359 519.391C46.6275 519.391 48.3984 518.714 49.6484 517.359C50.9244 516.031 51.5624 514.391 51.5624 512.437C51.5624 507.698 48.6197 504.872 42.7343 503.961L42.7343 519.273Z" fill="#F4F4F4"/>
</svg>
