<svg width="98" height="88" viewBox="0 0 98 88" fill="none" xmlns="http://www.w3.org/2000/svg">
<rect x="90.5" y="88" width="83" height="83" transform="rotate(-180 90.5 88)" fill="white"/>
<g clip-path="url(#clip0_7386_31389)">
<path d="M35.4127 23L63.5877 23C65.6002 23 67.3252 24.6531 67.3252 26.7375L67.3252 65.2625C67.3252 67.3469 65.6721 69 63.5877 69L35.4127 69C33.4002 69 31.6752 67.3469 31.6752 65.2625L31.6752 26.6656C31.6752 24.6531 33.3283 23 35.4127 23ZM63.5877 67.4906C64.8096 67.4906 65.8158 66.4844 65.8158 65.2625L65.8158 26.6656C65.8158 25.4437 64.8096 24.4375 63.5877 24.4375L35.4127 24.4375C34.1908 24.4375 33.1846 25.4437 33.1846 26.6656L33.1846 65.2625C33.1846 66.4844 34.1908 67.4906 35.4127 67.4906L63.5877 67.4906Z" fill="#1D1F21"/>
<path d="M32.3936 64.5439L66.5342 64.5439L66.5342 63.0346L32.3936 63.0346L32.3936 64.5439Z" fill="#1D1F21"/>
<path d="M32.3936 30.4033L66.5342 30.4033L66.5342 28.8939L32.3936 28.8939L32.3936 30.4033Z" fill="#1D1F21"/>
<path d="M46.4816 27.4561L52.4473 27.4561L52.4473 25.9467L46.4816 25.9467L46.4816 27.4561Z" fill="#1D1F21"/>
<path d="M38.36 38.5969L57.6943 38.5969L57.6943 57.8594L56.185 57.8594L56.185 40.0344L38.36 40.0344L38.36 38.5969Z" fill="#1D1F21"/>
<path d="M41.3063 35.5777L42.8156 35.5777L42.8156 53.4027L60.6406 53.4027L60.6406 54.9121L41.3062 54.9121L41.3063 35.5777Z" fill="#1D1F21"/>
<path d="M56.9037 57.1404C58.1256 57.1404 59.1318 58.1467 59.1318 59.3686C59.1318 60.5904 58.1256 61.5967 56.9037 61.5967C55.6818 61.5967 54.6756 60.5904 54.6756 59.3686C54.6756 58.1467 55.6818 57.1404 56.9037 57.1404ZM56.9037 60.0873C57.335 60.0873 57.6225 59.7998 57.6225 59.3686C57.6225 58.9373 57.335 58.6498 56.9037 58.6498C56.4725 58.6498 56.185 58.9373 56.185 59.3686C56.185 59.7998 56.5443 60.0873 56.9037 60.0873Z" fill="#1D1F21"/>
<path d="M36.9223 37.0877C38.1441 37.0877 39.1504 38.0939 39.1504 39.3158C39.1504 40.5377 38.1441 41.5439 36.9223 41.5439C35.7004 41.5439 34.6941 40.5377 34.6941 39.3158C34.6941 38.0939 35.6285 37.0877 36.9223 37.0877ZM36.9223 40.0346C37.3535 40.0346 37.641 39.7471 37.641 39.3158C37.641 38.8846 37.3535 38.5971 36.9223 38.5971C36.491 38.5971 36.2035 38.8846 36.2035 39.3158C36.2035 39.7471 36.491 40.0346 36.9223 40.0346Z" fill="#1D1F21"/>
<path d="M42.0971 31.9129C43.3189 31.9129 44.3252 32.9191 44.3252 34.141C44.3252 35.3629 43.3189 36.3691 42.0971 36.3691C40.8752 36.3691 39.8689 35.3629 39.8689 34.141C39.8689 32.9191 40.8752 31.9129 42.0971 31.9129ZM42.0971 34.8598C42.5283 34.8598 42.8158 34.5723 42.8158 34.141C42.8158 33.7098 42.5283 33.4223 42.0971 33.4223C41.6658 33.4223 41.3783 33.7098 41.3783 34.141C41.3783 34.5723 41.6658 34.8598 42.0971 34.8598Z" fill="#1D1F21"/>
<path d="M62.0785 51.9656C63.3004 51.9656 64.3066 52.9719 64.3066 54.1937C64.3066 55.4156 63.3004 56.4219 62.0785 56.4219C60.8566 56.4219 59.8504 55.4156 59.8504 54.1937C59.8504 52.9719 60.8566 51.9656 62.0785 51.9656ZM62.0785 54.9125C62.5098 54.9125 62.7973 54.625 62.7973 54.1937C62.7973 53.7625 62.5098 53.475 62.0785 53.475C61.6473 53.475 61.3598 53.7625 61.3598 54.1937C61.3598 54.5531 61.7191 54.9125 62.0785 54.9125Z" fill="#1D1F21"/>
<path d="M48.7094 47.5098L50.2188 47.5098L50.2188 46.0004L48.7094 46.0004L48.7094 47.5098Z" fill="#1D1F21"/>
<path d="M45.7631 47.5098L47.2725 47.5098L47.2725 46.0004L45.7631 46.0004L45.7631 47.5098Z" fill="#1D1F21"/>
<path d="M51.7279 47.5098L53.2373 47.5098L53.2373 46.0004L51.7279 46.0004L51.7279 47.5098Z" fill="#1D1F21"/>
<path d="M48.7094 50.4561L50.2188 50.4561L50.2188 48.9467L48.7094 48.9467L48.7094 50.4561Z" fill="#1D1F21"/>
<path d="M48.7094 44.4902L50.2188 44.4902L50.2188 42.9809L48.7094 42.9809L48.7094 44.4902Z" fill="#1D1F21"/>
</g>
<circle cx="3.5" cy="57" r="2.5" transform="rotate(-180 3.5 57)" fill="#BA8B4A" stroke="#BA8B4A"/>
<circle cx="94.5" cy="57" r="2.5" transform="rotate(-180 94.5 57)" fill="#BA8B4A" stroke="#BA8B4A"/>
<path d="M94.5 50L94.5 0.5L3.5 0.499992L3.5 50" stroke="#BA8B4A"/>
<defs>
<clipPath id="clip0_7386_31389">
<rect width="46" height="46" fill="white" transform="translate(72.5 69) rotate(-180)"/>
</clipPath>
</defs>
</svg>
