<svg width="98" height="88" viewBox="0 0 98 88" fill="none" xmlns="http://www.w3.org/2000/svg">
<rect x="7.5" width="83" height="83" fill="white"/>
<path d="M45.5527 57.5973C44.5465 57.5254 43.5402 57.3816 42.534 57.0941L42.8934 55.7285C43.7559 55.9441 44.6902 56.0879 45.6246 56.1598L45.5527 57.5973ZM48.5715 57.5254L48.4277 56.0879L48.7871 56.016C49.5777 55.9441 50.3684 55.7285 51.0871 55.5129L51.5184 56.8785C50.7277 57.0941 49.8652 57.3098 49.0027 57.3816L48.5715 57.5254ZM39.7309 56.0879C38.7965 55.6566 37.934 55.2254 37.1434 54.6504L37.934 53.4285C38.7246 53.9316 39.5152 54.4348 40.3059 54.7941L39.7309 56.0879ZM54.2496 55.8004L53.6027 54.5066C54.3934 54.0754 55.184 53.6441 55.9746 53.0691L56.8371 54.2191C55.9746 54.866 55.184 55.3691 54.2496 55.8004ZM34.7715 52.7098C34.0527 51.991 33.4059 51.2723 32.8309 50.4098L34.0527 49.5473C34.5559 50.266 35.2027 50.9848 35.8496 51.6316L34.7715 52.7098ZM59.0652 52.2785L57.9871 51.2723C58.634 50.6254 59.209 49.9066 59.7121 49.116L60.934 49.9066C60.359 50.7691 59.7121 51.5598 59.0652 52.2785ZM31.3215 47.8223C30.8902 46.8879 30.5309 45.9535 30.3152 45.0191L31.6809 44.6598C31.8965 45.5223 32.184 46.3848 32.6152 47.2473L31.3215 47.8223ZM62.2996 47.2473L61.0059 46.6723C61.3652 45.8098 61.6527 44.9473 61.8684 44.0848L63.3059 44.3723C63.0184 45.3785 62.7309 46.3129 62.2996 47.2473ZM29.8121 42.0723C29.7402 41.641 29.7402 41.1379 29.7402 40.6348C29.7402 40.1316 29.7402 39.5566 29.8121 39.0535L31.2496 39.1973C31.1777 39.7004 31.1777 40.1316 31.1777 40.6348C31.1777 41.1379 31.1777 41.4973 31.2496 41.9285L29.8121 42.0723ZM63.5934 41.3535L62.1559 41.2816C62.1559 41.066 62.1559 40.8504 62.1559 40.6348C62.1559 39.916 62.084 39.1973 62.0121 38.5504L63.4496 38.3348C63.5934 39.1254 63.5934 39.916 63.5934 40.7066C63.6652 40.9223 63.5934 41.1379 63.5934 41.3535ZM61.8684 37.4004C61.6527 36.5379 61.4371 35.6035 61.0777 34.8129L62.3715 34.2379C62.7309 35.1723 63.0184 36.1066 63.234 37.1129L61.8684 37.4004ZM31.7527 36.5379L30.3871 36.1785C30.6746 35.2441 31.034 34.2379 31.4652 33.3754L32.759 34.0223C32.3277 34.741 31.9684 35.6035 31.7527 36.5379ZM59.784 32.3691C59.2809 31.5785 58.7059 30.8598 58.1309 30.2129L59.209 29.2066C59.8559 29.9254 60.5027 30.716 61.0059 31.5785L59.784 32.3691ZM34.1246 31.5785L32.9746 30.716C33.5496 29.9254 34.1965 29.1348 34.9152 28.4879L35.9215 29.4941C35.2746 30.141 34.6277 30.8598 34.1246 31.5785ZM56.1184 28.3441C55.3996 27.7691 54.609 27.3379 53.8184 26.9066L54.4652 25.6129C55.3277 26.0441 56.1902 26.6191 56.9809 27.1941L56.1184 28.3441ZM38.0777 27.7691L37.2871 26.5473C38.1496 25.9723 39.0121 25.541 39.9465 25.1098L40.5215 26.4035C39.659 26.8348 38.7965 27.266 38.0777 27.7691ZM51.2309 25.8285C50.3684 25.541 49.434 25.3973 48.5715 25.2535L48.7152 23.816C49.7215 23.9598 50.7277 24.1754 51.6621 24.4629L51.2309 25.8285ZM43.0371 25.6129L42.7496 24.1754C43.3246 24.0316 43.8277 23.9598 44.4027 23.8879C44.834 23.816 45.2652 23.816 45.6965 23.7441L45.7684 25.1816C45.409 25.1816 44.9777 25.2535 44.6184 25.3254C44.1152 25.3973 43.5402 25.4691 43.0371 25.6129Z" fill="#1D1F21"/>
<path d="M49.5063 65.0003C48.7156 65.0003 47.8531 64.9285 47.0625 64.7847L47.35 63.3472C48.0687 63.491 48.7875 63.5628 49.5063 63.5628H50.0094L50.0813 65.0003H49.5063ZM53.1 64.4253L52.6687 63.0597C53.5312 62.7722 54.3219 62.4128 55.1125 61.9097L55.9031 63.1316C55.0406 63.7066 54.1063 64.1378 53.1 64.4253ZM44.1875 63.7785C43.2531 63.3472 42.3906 62.7722 41.6719 62.1253L42.6062 61.0472C43.325 61.6222 44.0437 62.1253 44.8344 62.5566L44.1875 63.7785ZM58.275 61.2628L57.1969 60.2566C57.8437 59.6097 58.3469 58.891 58.7781 58.1003L60.0719 58.8191C59.5687 59.6816 58.9937 60.5441 58.275 61.2628ZM39.5875 59.8253C39.0125 58.9628 38.5094 58.1003 38.15 57.0941L39.5156 56.591C39.8031 57.4535 40.2344 58.2441 40.7375 58.9628L39.5875 59.8253ZM61.15 55.9441L59.7844 55.5847C60.2156 54.0035 60.2156 52.3503 59.9281 50.7691L61.3656 50.4816C61.725 52.2785 61.6531 54.1472 61.15 55.9441ZM37.4313 54.1472C37.3594 53.716 37.3594 53.3566 37.3594 52.9253C37.3594 52.2785 37.4313 51.7035 37.5031 51.1285L38.9406 51.3441C38.8688 51.8472 38.7969 52.4222 38.7969 52.9253C38.7969 53.2847 38.7969 53.6441 38.8688 54.0035L37.4313 54.1472ZM39.6594 48.6847L38.3656 48.1097C38.7969 47.1753 39.3 46.3128 39.9469 45.4503L41.0969 46.3128C40.5219 47.1035 40.0906 47.8941 39.6594 48.6847ZM58.9937 48.2535C58.5625 47.4628 58.1313 46.6722 57.4844 46.0253L58.5625 45.091C59.2094 45.8816 59.7844 46.7441 60.2875 47.6785L58.9937 48.2535ZM42.9656 44.516L42.1031 43.366C42.8938 42.7191 43.8281 42.216 44.7625 41.7847L45.3375 43.0785C44.475 43.5097 43.6844 43.941 42.9656 44.516ZM55.6156 44.1566C54.8969 43.6535 54.1062 43.2222 53.2437 42.9347L53.7469 41.5691C54.6812 41.9285 55.6156 42.4316 56.4781 43.0066L55.6156 44.1566ZM47.925 42.4316L47.7094 40.9941C48.7156 40.8503 49.7219 40.8503 50.7281 40.9222L50.5844 42.3597C49.7219 42.216 48.7875 42.2878 47.925 42.4316Z" fill="#1D1F21"/>
<path d="M55.1838 43.0781V41.6406C55.9025 41.6406 56.6213 41.5688 57.34 41.425L57.8432 41.2812L58.2025 42.6469L57.6275 42.7906C56.8369 43.0062 55.9744 43.0781 55.1838 43.0781ZM52.165 42.7188C51.1588 42.4312 50.2244 42.0719 49.3619 41.5688L50.0807 40.275C50.8713 40.7063 51.6619 40.9937 52.5244 41.2094L52.165 42.7188ZM61.0057 41.5688L60.2869 40.275C61.0775 39.8438 61.7963 39.3406 62.4432 38.6938L63.5213 39.7C62.8025 40.4906 61.94 41.0656 61.0057 41.5688ZM46.8463 39.7719C46.1275 39.0531 45.4807 38.2625 44.9057 37.4L46.1275 36.6094C46.6307 37.4 47.2057 38.0469 47.8525 38.6938L46.8463 39.7719ZM65.4619 37.4L64.24 36.6094C64.7432 35.8188 65.1025 35.0281 65.39 34.1656L66.7557 34.5969C66.3963 35.6031 65.965 36.5375 65.4619 37.4ZM43.6838 34.5969C43.54 34.2375 43.4682 33.8063 43.3963 33.4469C43.2525 32.8719 43.1807 32.225 43.1807 31.65L44.6182 31.5781C44.6182 32.1531 44.69 32.6563 44.8338 33.1594C44.9057 33.5188 44.9775 33.8781 45.1213 34.2375L43.6838 34.5969ZM67.2588 31.65L65.8213 31.5781C65.8213 31.4344 65.8213 31.2188 65.8213 31.0031C65.8213 29.5656 65.5338 28.1281 64.9588 26.8344L66.2525 26.2594C66.8994 27.7688 67.1869 29.35 67.1869 31.0031C67.2588 31.2188 67.2588 31.4344 67.2588 31.65ZM44.7619 28.8469L43.3244 28.5594C43.54 27.5531 43.8994 26.6188 44.3307 25.6844L45.6244 26.3312C45.1932 27.1219 44.9057 27.9844 44.7619 28.8469ZM63.5932 24.5344C63.0182 23.8156 62.4432 23.1687 61.7244 22.5938L62.5869 21.4438C63.3775 22.0906 64.0963 22.8094 64.7432 23.6L63.5932 24.5344ZM47.1338 24.1031L46.0557 23.1688C46.7025 22.3781 47.4932 21.7313 48.2838 21.1562L49.1463 22.3062C48.4275 22.8094 47.7088 23.3844 47.1338 24.1031ZM59.4244 21.2281C58.6338 20.8687 57.6994 20.6531 56.8369 20.5094L57.0525 19.0719C58.0588 19.2156 59.065 19.5031 59.9994 19.9344L59.4244 21.2281ZM51.5182 21.0125L51.015 19.6469C51.59 19.4312 52.165 19.2875 52.74 19.1437C53.1713 19.0719 53.5307 19.0719 53.9619 19L54.1057 20.4375C53.1713 20.5094 52.3088 20.725 51.5182 21.0125Z" fill="#1D1F21"/>
<path d="M38.7238 54.7941L37.502 54.0754C39.6582 50.4098 43.6113 48.1816 47.852 48.1816C50.3676 48.1816 52.8113 47.3191 54.6801 45.666L55.6145 46.7441C53.4582 48.6129 50.6551 49.6191 47.852 49.6191C44.1145 49.6191 40.6645 51.5598 38.7238 54.7941Z" fill="#1D1F21"/>
<path d="M37.2148 60.2564H35.7773C35.7773 58.1002 36.3523 55.9439 37.5023 54.0752L38.7242 54.7939C37.7898 56.4471 37.2148 58.3158 37.2148 60.2564Z" fill="#1D1F21"/>
<path d="M46.7023 57.5971C43.6117 57.5971 40.593 56.7346 37.9336 55.1533L37.2148 54.7221L37.5742 54.1471C37.5023 53.7877 37.5023 53.3564 37.5023 52.9971C37.5023 46.3846 42.8211 40.9221 49.4336 40.9221C50.1523 40.9221 50.8711 40.9939 51.5898 41.0658C52.2367 41.2096 52.8836 41.3533 53.4586 41.5689C55.0398 41.8564 56.6211 41.7846 58.2023 41.2814C59.7836 40.8502 61.2211 39.9877 62.443 38.9096L63.5211 37.9033L63.6648 39.3408C63.6648 39.7002 63.7367 40.2033 63.7367 40.6346C63.6648 49.9783 56.0461 57.5971 46.7023 57.5971ZM38.9398 54.0752C41.3117 55.4408 43.9711 56.1596 46.7023 56.1596C50.2242 56.1596 53.6742 54.9377 56.4055 52.7096C59.9992 49.8346 62.0836 45.4502 62.1555 40.8502C59.4961 42.7189 56.2617 43.4377 53.0992 42.9346H52.9555C47.4211 40.9939 41.3117 43.9408 39.443 49.4752C39.0836 50.6252 38.868 51.7752 38.868 52.9971C38.868 53.3564 38.868 53.7158 38.9398 54.0752Z" fill="#1D1F21"/>
<circle cx="94.5" cy="31" r="2.5" fill="#BA8B4A" stroke="#BA8B4A"/>
<circle cx="3.5" cy="31" r="2.5" fill="#BA8B4A" stroke="#BA8B4A"/>
<path d="M3.5 38V87.5H94.5V38" stroke="#BA8B4A"/>
</svg>
