<svg width="98" height="88" viewBox="0 0 98 88" fill="none" xmlns="http://www.w3.org/2000/svg">
<rect x="7.5" width="83" height="83" fill="white"/>
<g clip-path="url(#clip0_7386_31268)">
<path d="M62.4053 65H34.2087C33.2257 64.9981 32.2835 64.6067 31.5884 63.9116C30.8933 63.2165 30.5019 62.2743 30.5 61.2912V22.7087C30.5019 21.7257 30.8933 20.7835 31.5884 20.0884C32.2835 19.3933 33.2257 19.0019 34.2087 19H62.4053C63.3884 19.0019 64.3306 19.3933 65.0257 20.0884C65.7208 20.7835 66.1122 21.7257 66.1141 22.7087V38.2913H64.6263V22.7087C64.6263 22.1178 64.3915 21.5511 63.9736 21.1332C63.5558 20.7154 62.9891 20.4806 62.3981 20.4806H34.2087C33.6178 20.4806 33.0511 20.7154 32.6332 21.1332C32.2154 21.5511 31.9806 22.1178 31.9806 22.7087V61.2912C31.9806 61.8822 32.2154 62.4489 32.6332 62.8668C33.0511 63.2846 33.6178 63.5194 34.2087 63.5194H62.4053C62.6979 63.5194 62.9876 63.4617 63.258 63.3498C63.5283 63.2378 63.7739 63.0737 63.9808 62.8668C64.1877 62.6599 64.3519 62.4142 64.4638 62.1439C64.5758 61.8736 64.6334 61.5839 64.6334 61.2912V44.2281H66.1141V61.2912C66.1122 62.2743 65.7208 63.2165 65.0257 63.9116C64.3306 64.6067 63.3884 64.9981 62.4053 65Z" fill="#1D1F21"/>
<path d="M65.3665 23.4492H31.2402V24.9298H65.3665V23.4492Z" fill="#1D1F21"/>
<path d="M65.3665 57.582H31.2402V59.0627H65.3665V57.582Z" fill="#1D1F21"/>
<path d="M51.2787 60.5508H45.3418V62.0314H51.2787V60.5508Z" fill="#1D1F21"/>
<path d="M72.7909 44.9683H45.8809L39.4121 41.2595L45.8809 37.5508H72.7909C73.7745 37.5508 74.7178 37.9415 75.4133 38.637C76.1089 39.3326 76.4996 40.2759 76.4996 41.2595C76.4996 42.2432 76.1089 43.1865 75.4133 43.882C74.7178 44.5775 73.7745 44.9683 72.7909 44.9683ZM46.3121 43.4805H72.7909C73.359 43.4482 73.8932 43.1997 74.284 42.7861C74.6748 42.3724 74.8925 41.825 74.8925 41.2559C74.8925 40.6869 74.6748 40.1394 74.284 39.7258C73.8932 39.3122 73.359 39.0637 72.7909 39.0314H46.3121L42.3805 41.2811L46.3121 43.4805Z" fill="#1D1F21"/>
<path d="M70.5627 38.291H69.082V44.2279H70.5627V38.291Z" fill="#1D1F21"/>
<path d="M67.5949 38.291H66.1143V44.2279H67.5949V38.291Z" fill="#1D1F21"/>
<path d="M47.5627 38.291H46.082V44.2279H47.5627V38.291Z" fill="#1D1F21"/>
<path d="M66.8548 40.5195H46.8232V42.0002H66.8548V40.5195Z" fill="#1D1F21"/>
<path d="M49.0509 50.9055C47.7842 50.9055 46.5299 50.656 45.3597 50.1713C44.1894 49.6865 43.1261 48.976 42.2304 48.0804C41.3347 47.1847 40.6242 46.1214 40.1395 44.9511C39.6548 43.7808 39.4053 42.5266 39.4053 41.2599C39.4053 39.9932 39.6548 38.7389 40.1395 37.5687C40.6242 36.3984 41.3347 35.3351 42.2304 34.4394C43.1261 33.5437 44.1894 32.8332 45.3597 32.3485C46.5299 31.8638 47.7842 31.6143 49.0509 31.6143V33.0949C46.8864 33.0949 44.8105 33.9547 43.2799 35.4853C41.7494 37.0159 40.8895 39.0918 40.8895 41.2563C40.8895 43.4208 41.7494 45.4967 43.2799 47.0273C44.8105 48.5578 46.8864 49.4177 49.0509 49.4177V50.9055Z" fill="#1D1F21"/>
<path d="M50.5318 34.5822C50.0912 34.5822 49.6604 34.4516 49.294 34.2067C48.9275 33.9619 48.642 33.6139 48.4733 33.2068C48.3047 32.7996 48.2606 32.3516 48.3465 31.9194C48.4325 31.4872 48.6447 31.0902 48.9563 30.7786C49.2679 30.467 49.6649 30.2548 50.0972 30.1688C50.5294 30.0828 50.9774 30.1269 51.3845 30.2956C51.7916 30.4642 52.1396 30.7498 52.3845 31.1162C52.6293 31.4826 52.76 31.9134 52.76 32.3541C52.76 32.945 52.5252 33.5118 52.1074 33.9296C51.6895 34.3475 51.1228 34.5822 50.5318 34.5822ZM50.5318 31.6138C50.3897 31.6138 50.2507 31.6559 50.1325 31.7349C50.0143 31.8139 49.9222 31.9262 49.8678 32.0575C49.8134 32.1888 49.7992 32.3333 49.8269 32.4728C49.8546 32.6122 49.9231 32.7403 50.0236 32.8408C50.1241 32.9413 50.2522 33.0097 50.3916 33.0375C50.531 33.0652 50.6756 33.051 50.8069 32.9966C50.9382 32.9422 51.0505 32.8501 51.1295 32.7319C51.2084 32.6137 51.2506 32.4747 51.2506 32.3325C51.2506 32.1419 51.1749 31.9591 51.0401 31.8243C50.9053 31.6895 50.7225 31.6138 50.5318 31.6138Z" fill="#1D1F21"/>
<path d="M50.5318 52.3859C50.0912 52.3859 49.6604 52.2553 49.294 52.0104C48.9275 51.7656 48.642 51.4176 48.4733 51.0105C48.3047 50.6033 48.2606 50.1553 48.3465 49.7231C48.4325 49.2909 48.6447 48.8939 48.9563 48.5823C49.2679 48.2707 49.6649 48.0585 50.0972 47.9725C50.5294 47.8865 50.9774 47.9307 51.3845 48.0993C51.7916 48.2679 52.1396 48.5535 52.3845 48.9199C52.6293 49.2863 52.76 49.7171 52.76 50.1578C52.76 50.7487 52.5252 51.3155 52.1074 51.7333C51.6895 52.1512 51.1228 52.3859 50.5318 52.3859ZM50.5318 49.4175C50.3897 49.4175 50.2507 49.4597 50.1325 49.5386C50.0143 49.6176 49.9222 49.7299 49.8678 49.8612C49.8134 49.9925 49.7992 50.137 49.8269 50.2765C49.8546 50.4159 49.9231 50.544 50.0236 50.6445C50.1241 50.745 50.2522 50.8135 50.3916 50.8412C50.531 50.8689 50.6756 50.8547 50.8069 50.8003C50.9382 50.7459 51.0505 50.6538 51.1295 50.5356C51.2084 50.4174 51.2506 50.2784 51.2506 50.1363C51.2506 49.9456 51.1749 49.7628 51.0401 49.628C50.9053 49.4932 50.7225 49.4175 50.5318 49.4175Z" fill="#1D1F21"/>
<path d="M40.1461 31.6145C39.7054 31.6145 39.2746 31.4838 38.9082 31.2389C38.5418 30.9941 38.2562 30.6461 38.0876 30.239C37.9189 29.8319 37.8748 29.3839 37.9608 28.9516C38.0468 28.5194 38.259 28.1224 38.5706 27.8108C38.8822 27.4992 39.2792 27.287 39.7114 27.201C40.1436 27.115 40.5916 27.1592 40.9988 27.3278C41.4059 27.4965 41.7539 27.782 41.9987 28.1484C42.2435 28.5149 42.3742 28.9456 42.3742 29.3863C42.3742 29.9773 42.1395 30.544 41.7216 30.9619C41.3038 31.3797 40.737 31.6145 40.1461 31.6145ZM40.1461 28.646C40.0039 28.646 39.865 28.6882 39.7468 28.7671C39.6286 28.8461 39.5365 28.9584 39.4821 29.0897C39.4277 29.221 39.4134 29.3656 39.4412 29.505C39.4689 29.6444 39.5373 29.7725 39.6379 29.873C39.7384 29.9735 39.8665 30.042 40.0059 30.0697C40.1453 30.0974 40.2898 30.0832 40.4211 30.0288C40.5525 29.9744 40.6647 29.8823 40.7437 29.7641C40.8227 29.6459 40.8648 29.5069 40.8648 29.3648C40.8648 29.1741 40.7891 28.9913 40.6543 28.8565C40.5195 28.7217 40.3367 28.646 40.1461 28.646Z" fill="#1D1F21"/>
<path d="M40.1461 55.3547C39.7054 55.3547 39.2746 55.224 38.9082 54.9792C38.5418 54.7344 38.2562 54.3864 38.0876 53.9792C37.9189 53.5721 37.8748 53.1241 37.9608 52.6919C38.0468 52.2597 38.259 51.8626 38.5706 51.551C38.8822 51.2394 39.2792 51.0272 39.7114 50.9413C40.1436 50.8553 40.5916 50.8994 40.9988 51.068C41.4059 51.2367 41.7539 51.5223 41.9987 51.8887C42.2435 52.2551 42.3742 52.6859 42.3742 53.1266C42.3742 53.4192 42.3166 53.7089 42.2046 53.9792C42.0926 54.2496 41.9285 54.4952 41.7216 54.7021C41.5147 54.909 41.2691 55.0731 40.9988 55.1851C40.7284 55.2971 40.4387 55.3547 40.1461 55.3547ZM40.1461 52.3863C40.0039 52.3863 39.865 52.4284 39.7468 52.5074C39.6286 52.5864 39.5365 52.6986 39.4821 52.8299C39.4277 52.9613 39.4134 53.1058 39.4412 53.2452C39.4689 53.3846 39.5373 53.5127 39.6379 53.6132C39.7384 53.7138 39.8665 53.7822 40.0059 53.8099C40.1453 53.8377 40.2898 53.8234 40.4211 53.769C40.5525 53.7146 40.6647 53.6225 40.7437 53.5043C40.8227 53.3861 40.8648 53.2472 40.8648 53.105C40.8648 52.9144 40.7891 52.7316 40.6543 52.5968C40.5195 52.462 40.3367 52.3863 40.1461 52.3863Z" fill="#1D1F21"/>
<path d="M40.8859 30.874H39.4053V51.6459H40.8859V30.874Z" fill="#1D1F21"/>
</g>
<circle cx="94.5" cy="31" r="2.5" fill="#BA8B4A" stroke="#BA8B4A"/>
<circle cx="3.5" cy="31" r="2.5" fill="#BA8B4A" stroke="#BA8B4A"/>
<path d="M3.5 38V87.5H94.5V38" stroke="#BA8B4A"/>
<defs>
<clipPath id="clip0_7386_31268">
<rect width="46" height="46" fill="white" transform="translate(30.5 19)"/>
</clipPath>
</defs>
</svg>
