<svg width="98" height="88" viewBox="0 0 98 88" fill="none" xmlns="http://www.w3.org/2000/svg">
<rect x="90.5" y="88" width="83" height="83" transform="rotate(-180 90.5 88)" fill="white"/>
<g clip-path="url(#clip0_7386_31295)">
<path d="M33.9175 30.4175H26.5V23H33.9175V30.4175ZM27.9806 28.9369H32.4369V24.4806H27.9806V28.9369Z" fill="#1D1F21"/>
<path d="M72.4995 30.4175H65.082V23H72.4995V30.4175ZM66.5627 28.9369H71.0117V24.4806H66.5627V28.9369Z" fill="#1D1F21"/>
<path d="M53.2085 30.4175H45.791V23H53.2085V30.4175ZM47.2716 28.9369H51.7279V24.4806H47.2716V28.9369Z" fill="#1D1F21"/>
<path d="M33.9175 68.9995H26.5V61.582H33.9175V68.9995ZM27.9806 67.5189H32.4369V63.0627H27.9806V67.5189Z" fill="#1D1F21"/>
<path d="M33.9175 49.7085H26.5V42.291H33.9175V49.7085ZM27.9806 48.2279H32.4369V43.7716H27.9806V48.2279Z" fill="#1D1F21"/>
<path d="M72.4995 49.7085H65.082V42.291H72.4995V49.7085ZM66.5627 48.2279H71.0117V43.7716H66.5627V48.2279Z" fill="#1D1F21"/>
<path d="M72.4995 68.9995H65.082V61.582H72.4995V68.9995ZM66.5627 67.5189H71.0117V63.0627H66.5627V67.5189Z" fill="#1D1F21"/>
<path d="M53.2085 68.9995H45.791V61.582H53.2085V68.9995ZM47.2716 67.5189H51.7279V63.0627H47.2716V67.5189Z" fill="#1D1F21"/>
<path d="M46.5311 25.9688H33.1768V27.4494H46.5311V25.9688Z" fill="#1D1F21"/>
<path d="M65.8231 25.9688H52.4688V27.4494H65.8231V25.9688Z" fill="#1D1F21"/>
<path d="M46.5311 64.5508H33.1768V66.0314H46.5311V64.5508Z" fill="#1D1F21"/>
<path d="M65.8231 64.5508H52.4688V66.0314H65.8231V64.5508Z" fill="#1D1F21"/>
<path d="M69.5314 29.6768H68.0508V43.0311H69.5314V29.6768Z" fill="#1D1F21"/>
<path d="M69.5314 48.9688H68.0508V62.3231H69.5314V48.9688Z" fill="#1D1F21"/>
<path d="M30.9494 29.6768H29.4688V43.0311H30.9494V29.6768Z" fill="#1D1F21"/>
<path d="M30.9494 48.9688H29.4688V62.3231H30.9494V48.9688Z" fill="#1D1F21"/>
<path d="M49.5 61.4891L40.875 37.375L64.9891 46L53.8125 50.3125L49.5 61.4891ZM43.3044 39.8044L49.5 57.2197L52.6122 49.1338L60.7197 46L43.3044 39.8044Z" fill="#1D1F21"/>
<path d="M43.5627 31.9053H42.082V34.8737H43.5627V31.9053Z" fill="#1D1F21"/>
<path d="M38.1007 33.5546L37.0537 34.6016L39.1527 36.7006L40.1997 35.6536L38.1007 33.5546Z" fill="#1D1F21"/>
<path d="M38.3737 38.582H35.4053V40.0627H38.3737V38.582Z" fill="#1D1F21"/>
<path d="M39.1517 41.944L37.0527 44.043L38.0997 45.0899L40.1987 42.9909L39.1517 41.944Z" fill="#1D1F21"/>
<path d="M43.5627 43.7715H42.082V46.7399H43.5627V43.7715Z" fill="#1D1F21"/>
<path d="M50.2399 38.582H47.2715V40.0627H50.2399V38.582Z" fill="#1D1F21"/>
<path d="M47.5414 33.5553L45.4424 35.6543L46.4893 36.7013L48.5883 34.6023L47.5414 33.5553Z" fill="#1D1F21"/>
</g>
<circle cx="3.5" cy="57" r="2.5" transform="rotate(-180 3.5 57)" fill="#BA8B4A" stroke="#BA8B4A"/>
<circle cx="94.5" cy="57" r="2.5" transform="rotate(-180 94.5 57)" fill="#BA8B4A" stroke="#BA8B4A"/>
<path d="M94.5 50L94.5 0.5L3.5 0.499992L3.5 50" stroke="#BA8B4A"/>
<defs>
<clipPath id="clip0_7386_31295">
<rect width="46" height="46" fill="white" transform="translate(26.5 23)"/>
</clipPath>
</defs>
</svg>
