<svg width="225" height="39" viewBox="0 0 225 39" fill="none" xmlns="http://www.w3.org/2000/svg">
<path d="M67.7155 20.4262H66.8367L60.2035 5.17657C60.0806 4.90308 59.8869 4.43154 59.6224 3.76195C59.2538 2.85659 58.8664 2.2483 58.4601 1.93708C58.0538 1.62587 57.3971 1.46083 56.49 1.44197V0.791239H64.7674V1.44197C63.7374 1.44197 63.0429 1.51741 62.6839 1.66831C62.3342 1.8192 62.1594 2.10684 62.1594 2.53123C62.1594 2.80472 62.3815 3.44602 62.8256 4.45512L68.3533 17.1867L72.7896 6.5912C73.5361 4.8182 73.9093 3.66293 73.9093 3.12537C73.9093 2.04082 73.1392 1.47969 71.599 1.44197V0.791239H77.4669V1.44197C76.8716 1.46083 76.3472 1.67302 75.8936 2.07855C75.4401 2.48407 75.048 3.07821 74.7172 3.86097L73.4274 6.87412L67.7155 20.4262Z" fill="white"/>
<path d="M78.3315 1.44197V0.791239H87.1191V1.44197H86.7081C85.7632 1.44197 85.1443 1.52213 84.8514 1.68245C84.5584 1.83335 84.36 2.12099 84.2561 2.54537C84.1616 2.96976 84.1143 3.97886 84.1143 5.57267V14.9799C84.1143 16.4888 84.1474 17.4791 84.2135 17.9506C84.2891 18.4127 84.4781 18.757 84.7805 18.9833C85.0923 19.2096 85.6829 19.3228 86.5522 19.3228H87.1191V19.9735H78.3315V19.3228H78.8984C79.7205 19.3228 80.2875 19.2191 80.5993 19.0116C80.9205 18.8041 81.1237 18.4835 81.2087 18.0497C81.2938 17.6064 81.3363 16.5832 81.3363 14.9799V5.57267C81.3363 4.04487 81.2938 3.05935 81.2087 2.6161C81.1237 2.17286 80.9347 1.86635 80.6418 1.6966C80.3489 1.52684 79.7158 1.44197 78.7425 1.44197H78.3315Z" fill="white"/>
<path d="M88.7491 19.9735V19.4784L101.151 1.44197H95.1697C93.8847 1.44197 93.0437 1.49384 92.6468 1.59758C92.2594 1.70131 91.8106 2.07855 91.3003 2.72927C90.7901 3.37057 90.4027 4.19577 90.1381 5.20487H89.5145L90.1381 0.791239H104.425V1.44197L92.1508 19.3228H98.0186C100.012 19.3228 101.279 19.1672 101.817 18.856C102.356 18.5448 102.842 18.0072 103.277 17.2433C103.721 16.4794 104.057 15.7344 104.283 15.0082H104.935L104.283 19.9735H88.7491Z" fill="white"/>
<path d="M121.66 0.791239H128.081V1.44197C127.23 1.49855 126.593 1.69188 126.167 2.02196C125.752 2.34261 125.496 2.7057 125.402 3.11122C125.308 3.51675 125.26 4.30422 125.26 5.47364V11.8536C125.26 13.4851 125.194 14.697 125.062 15.4892C124.939 16.2814 124.57 17.0594 123.956 17.8233C123.352 18.5872 122.496 19.1955 121.391 19.6482C120.285 20.1009 119.01 20.3272 117.564 20.3272C115.854 20.3272 114.403 20.0396 113.213 19.4643C112.032 18.8796 111.186 18.1298 110.676 17.215C110.175 16.2908 109.924 15.0554 109.924 13.5087L109.939 11.5424V5.57267C109.939 4.04487 109.891 3.05935 109.797 2.6161C109.712 2.17286 109.523 1.86635 109.23 1.6966C108.946 1.52684 108.318 1.44197 107.345 1.44197H106.905V0.791239H115.679V1.44197H115.296C114.351 1.44197 113.732 1.52213 113.439 1.68245C113.147 1.83335 112.948 2.12099 112.844 2.54537C112.75 2.96976 112.702 3.97886 112.702 5.57267V11.6131C112.702 13.7068 112.797 15.1921 112.986 16.0692C113.184 16.9462 113.732 17.7149 114.63 18.375C115.528 19.0257 116.723 19.3511 118.216 19.3511C119.388 19.3511 120.451 19.1342 121.405 18.7004C122.369 18.2571 123.082 17.7101 123.545 17.0594C124.018 16.3993 124.306 15.725 124.41 15.0365C124.514 14.3386 124.566 13.2446 124.566 11.7546V5.21901C124.566 4.13447 124.504 3.37529 124.382 2.94147C124.259 2.50765 123.994 2.16342 123.588 1.90879C123.181 1.65416 122.539 1.49855 121.66 1.44197V0.791239Z" fill="white"/>
<path d="M139.349 12.9004H132.049L131.553 14.117C130.816 15.8806 130.448 17.0311 130.448 17.5687C130.448 18.144 130.642 18.5825 131.029 18.8843C131.426 19.1766 131.931 19.3228 132.546 19.3228V19.9735H126.834V19.3228C127.684 19.1908 128.317 18.8937 128.733 18.4316C129.149 17.9601 129.649 16.9745 130.235 15.475C130.282 15.3336 130.509 14.7866 130.916 13.8341L136.5 0.522461H137.053L143.473 15.758L144.352 17.7667C144.551 18.2194 144.815 18.5778 145.146 18.8418C145.486 19.0965 145.992 19.2568 146.662 19.3228V19.9735H139.108V19.3228C140.034 19.3228 140.658 19.2568 140.979 19.1248C141.31 18.9833 141.475 18.7098 141.475 18.3043C141.475 18.0968 141.258 17.4791 140.823 16.4511L139.349 12.9004ZM139.108 12.2638L135.706 4.08731L132.319 12.2638H139.108Z" fill="white"/>
<path d="M163.784 14.3292L163.642 19.9735H147.314V19.3228H147.881C148.703 19.3228 149.27 19.2191 149.582 19.0116C149.903 18.8041 150.107 18.4835 150.192 18.0497C150.286 17.6064 150.333 16.5832 150.333 14.9799V5.57267C150.333 4.04487 150.286 3.05935 150.192 2.6161C150.107 2.17286 149.918 1.86635 149.625 1.6966C149.341 1.52684 148.713 1.44197 147.74 1.44197H147.314V0.791239H156.541V1.44197H155.691C154.746 1.44197 154.127 1.52213 153.834 1.68245C153.541 1.83335 153.343 2.12099 153.239 2.54537C153.144 2.96976 153.097 3.97886 153.097 5.57267V15.6165C153.097 17.0028 153.135 17.8705 153.211 18.2194C153.286 18.5683 153.489 18.8418 153.82 19.0399C154.16 19.2285 154.883 19.3228 155.989 19.3228H157.449C158.63 19.3228 159.504 19.2191 160.071 19.0116C160.647 18.8041 161.19 18.3514 161.701 17.6536C162.22 16.9557 162.693 15.8476 163.118 14.3292H163.784Z" fill="white"/>
<path d="M178.298 0.791239H184.719V1.44197C183.868 1.49855 183.23 1.69188 182.805 2.02196C182.389 2.34261 182.134 2.7057 182.04 3.11122C181.945 3.51675 181.898 4.30422 181.898 5.47364V11.8536C181.898 13.4851 181.832 14.697 181.7 15.4892C181.577 16.2814 181.208 17.0594 180.594 17.8233C179.989 18.5872 179.134 19.1955 178.029 19.6482C176.923 20.1009 175.647 20.3272 174.202 20.3272C172.491 20.3272 171.041 20.0396 169.85 19.4643C168.669 18.8796 167.824 18.1298 167.313 17.215C166.813 16.2908 166.562 15.0554 166.562 13.5087L166.576 11.5424V5.57267C166.576 4.04487 166.529 3.05935 166.435 2.6161C166.35 2.17286 166.161 1.86635 165.868 1.6966C165.584 1.52684 164.956 1.44197 163.983 1.44197H163.543V0.791239H172.317V1.44197H171.934C170.989 1.44197 170.37 1.52213 170.077 1.68245C169.784 1.83335 169.586 2.12099 169.482 2.54537C169.387 2.96976 169.34 3.97886 169.34 5.57267V11.6131C169.34 13.7068 169.435 15.1921 169.624 16.0692C169.822 16.9462 170.37 17.7149 171.268 18.375C172.165 19.0257 173.361 19.3511 174.854 19.3511C176.025 19.3511 177.088 19.1342 178.043 18.7004C179.007 18.2571 179.72 17.7101 180.183 17.0594C180.655 16.3993 180.944 15.725 181.048 15.0365C181.151 14.3386 181.203 13.2446 181.203 11.7546V5.21901C181.203 4.13447 181.142 3.37529 181.019 2.94147C180.896 2.50765 180.632 2.16342 180.225 1.90879C179.819 1.65416 179.177 1.49855 178.298 1.44197V0.791239Z" fill="white"/>
<path d="M197.39 9.33557L202.365 15.376C204.141 17.5262 205.27 18.724 205.752 18.9692C206.234 19.2049 206.862 19.3228 207.637 19.3228V19.9735H198.113V19.3228C199.067 19.3228 199.733 19.2379 200.111 19.0682C200.498 18.889 200.692 18.5966 200.692 18.1911C200.692 17.9459 200.602 17.6818 200.423 17.3989C200.253 17.1066 199.804 16.5171 199.076 15.6306L195.646 11.4151L192.627 15.0648C191.919 15.923 191.456 16.5266 191.238 16.8755C191.021 17.2245 190.912 17.5545 190.912 17.8657C190.912 18.8277 191.649 19.3134 193.123 19.3228V19.9735H185.682V19.3228C186.485 19.2757 187.208 19.1012 187.851 18.7994C188.503 18.4882 189.103 18.0591 189.651 17.5121C190.199 16.9651 190.979 16.0503 191.99 14.7677L195.207 10.9058L188.517 2.88488C188.196 2.46993 187.818 2.1257 187.383 1.85221C186.958 1.57871 186.391 1.44197 185.682 1.44197V0.791239H193.875V1.44197H193.605C192.528 1.44197 191.99 1.73432 191.99 2.31903C191.99 2.5548 192.07 2.80472 192.23 3.06878C192.401 3.33285 192.788 3.82325 193.393 4.53999L196.922 8.81216L200.111 4.82292C200.791 3.98357 201.202 3.45073 201.344 3.22439C201.495 2.98862 201.571 2.75285 201.571 2.51708C201.571 2.12099 201.382 1.84278 201.004 1.68245C200.626 1.52213 199.983 1.44197 199.076 1.44197V0.791239H206.291V1.44197C205.062 1.44197 204.028 1.80505 203.187 2.53123C202.355 3.24797 201.434 4.24292 200.423 5.51608L197.39 9.33557Z" fill="white"/>
<path d="M224.32 14.0038H225L224.589 19.9735H208.672V19.3228H209.069C210.023 19.3228 210.637 19.1955 210.911 18.9409C211.195 18.6862 211.374 18.3656 211.45 17.9789C211.525 17.5828 211.563 16.5832 211.563 14.9799V5.57267C211.563 4.11089 211.521 3.14895 211.436 2.68684C211.36 2.22472 211.176 1.90408 210.883 1.72489C210.599 1.53627 209.995 1.44197 209.069 1.44197V0.791239H222.803L223.257 5.57267H222.59C222.288 4.23349 221.915 3.28569 221.471 2.72927C221.036 2.16342 220.516 1.80977 219.912 1.66831C219.307 1.51741 218.334 1.44197 216.992 1.44197H214.327V9.49118H216.368C217.304 9.49118 217.956 9.41101 218.324 9.25069C218.702 9.09037 218.948 8.84988 219.061 8.52923C219.184 8.19915 219.245 7.56257 219.245 6.61949H219.912V13.1833H219.245C219.245 12.1177 219.156 11.4056 218.976 11.0473C218.797 10.6795 218.532 10.4437 218.182 10.34C217.842 10.2268 217.261 10.1702 216.439 10.1702H214.327V14.7111C214.327 16.984 214.474 18.3231 214.767 18.7287C215.059 19.1248 215.848 19.3228 217.134 19.3228H218.565C219.576 19.3228 220.408 19.1955 221.06 18.9409C221.712 18.6768 222.33 18.144 222.916 17.3423C223.512 16.5313 223.979 15.4185 224.32 14.0038Z" fill="white"/>
<path d="M65.1971 38.8897L61.6838 29.3885H62.8583L64.9237 34.9053C64.998 35.096 65.0587 35.2799 65.106 35.457C65.1532 35.6273 65.2038 35.8316 65.2578 36.07C65.3118 35.8316 65.3625 35.6273 65.4097 35.457C65.4637 35.2799 65.5244 35.096 65.5919 34.9053L67.6776 29.082L69.7532 34.9053C69.8139 35.0756 69.8713 35.2493 69.9253 35.4264C69.986 35.5966 70.04 35.8112 70.0873 36.07C70.1413 35.8112 70.1953 35.5966 70.2493 35.4264C70.3033 35.2493 70.364 35.0756 70.4315 34.9053L72.4969 29.3885H73.5904L70.0873 38.8897L67.9814 32.9234C67.9206 32.7463 67.8632 32.576 67.8092 32.4125C67.7552 32.2423 67.7012 32.0277 67.6472 31.7689C67.5932 32.0277 67.5392 32.2423 67.4852 32.4125C67.4313 32.576 67.3739 32.7463 67.3131 32.9234L65.1971 38.8897Z" fill="#FFF6E1"/>
<path d="M79.6483 38.5832V29.3885H84.1436V30.4306H80.8025V32.3921H83.4349V33.4342H80.8025V37.5411H84.1436V38.5832H79.6483Z" fill="#FFF6E1"/>
<path d="M90.6922 38.5832V29.3885H93.2436C93.8241 29.3885 94.2831 29.5043 94.6206 29.7359C94.9648 29.9674 95.2112 30.2501 95.3597 30.5838C95.5082 30.9107 95.5824 31.2206 95.5824 31.5135C95.5824 31.8472 95.5048 32.1537 95.3495 32.433C95.2011 32.7054 94.9986 32.9302 94.7421 33.1073C95.2348 33.332 95.633 33.6692 95.9368 34.1187C96.2473 34.5682 96.4025 35.079 96.4025 35.6511C96.4025 36.1347 96.281 36.6012 96.038 37.0507C95.8018 37.5003 95.4474 37.8681 94.9749 38.1541C94.5092 38.4402 93.9321 38.5832 93.2436 38.5832H90.6922ZM91.8464 37.5411H93.1626C93.6621 37.5411 94.0637 37.4424 94.3675 37.2449C94.6712 37.0473 94.8939 36.7987 95.0357 36.4991C95.1774 36.1994 95.2483 35.9031 95.2483 35.6102C95.2483 35.3242 95.1808 35.0313 95.0458 34.7316C94.9108 34.432 94.6914 34.1834 94.3877 33.9859C94.084 33.7815 93.6756 33.6794 93.1626 33.6794H91.8464V37.5411ZM91.8464 32.6986H93.1525C93.5507 32.6986 93.8714 32.6033 94.1143 32.4125C94.3641 32.215 94.489 31.9358 94.489 31.5748C94.489 31.2002 94.3675 30.9176 94.1245 30.7269C93.8815 30.5293 93.571 30.4306 93.193 30.4306H91.8464V32.6986Z" fill="#FFF6E1"/>
<path d="M110.644 38.5832V29.3885H113.631C114.455 29.3885 115.17 29.5247 115.778 29.7972C116.392 30.0696 116.898 30.4306 117.296 30.8801C117.695 31.3296 117.992 31.8268 118.187 32.3717C118.383 32.9097 118.481 33.4478 118.481 33.9859C118.481 34.5239 118.383 35.0654 118.187 35.6102C117.992 36.1483 117.695 36.6421 117.296 37.0916C116.898 37.5411 116.392 37.9021 115.778 38.1745C115.17 38.447 114.455 38.5832 113.631 38.5832H110.644ZM111.799 37.5411H113.51C114.212 37.5411 114.802 37.4322 115.282 37.2142C115.761 36.9894 116.149 36.7 116.446 36.3458C116.743 35.9848 116.955 35.5966 117.084 35.1812C117.219 34.7657 117.286 34.3673 117.286 33.9859C117.286 33.6044 117.219 33.206 117.084 32.7905C116.955 32.3751 116.743 31.9903 116.446 31.6361C116.149 31.2751 115.761 30.9857 115.282 30.7677C114.802 30.543 114.212 30.4306 113.51 30.4306H111.799V37.5411Z" fill="#FFF6E1"/>
<path d="M125.034 38.5832V29.3885H129.53V30.4306H126.188V32.3921H128.821V33.4342H126.188V37.5411H129.53V38.5832H125.034Z" fill="#FFF6E1"/>
<path d="M138.042 38.7058C137.502 38.7058 137.013 38.5968 136.574 38.3789C136.142 38.1609 135.798 37.8953 135.542 37.582L135.876 36.1721C136.065 36.5536 136.348 36.8975 136.726 37.204C137.104 37.5105 137.556 37.6637 138.083 37.6637C138.562 37.6637 138.957 37.5105 139.267 37.204C139.585 36.8975 139.743 36.5195 139.743 36.07C139.743 35.7431 139.666 35.474 139.51 35.2629C139.355 35.0518 139.18 34.8849 138.984 34.7623C138.788 34.6397 138.633 34.5512 138.518 34.4967L137.405 33.9246C137.229 33.8292 137.01 33.6964 136.746 33.5261C136.49 33.3559 136.264 33.1209 136.068 32.8212C135.872 32.5215 135.774 32.1333 135.774 31.6565C135.774 31.1934 135.879 30.7813 136.088 30.4204C136.304 30.0594 136.601 29.7767 136.979 29.5724C137.364 29.3681 137.803 29.2659 138.295 29.2659C138.781 29.2659 139.21 29.3545 139.581 29.5315C139.953 29.7018 140.243 29.8789 140.452 30.0628L140.118 31.4726C139.949 31.1866 139.699 30.9176 139.369 30.6656C139.038 30.4136 138.663 30.2876 138.245 30.2876C137.84 30.2876 137.516 30.4102 137.273 30.6553C137.03 30.8937 136.908 31.19 136.908 31.5442C136.908 31.8166 136.969 32.0414 137.091 32.2184C137.219 32.3955 137.361 32.5351 137.516 32.6373C137.678 32.7395 137.81 32.8178 137.911 32.8723L139.045 33.4444C139.18 33.5125 139.348 33.6079 139.551 33.7304C139.76 33.853 139.966 34.0165 140.169 34.2208C140.371 34.4183 140.54 34.6635 140.675 34.9564C140.81 35.2425 140.877 35.5898 140.877 35.9985C140.877 36.5229 140.752 36.9894 140.503 37.3981C140.26 37.8068 139.926 38.1269 139.5 38.3584C139.075 38.59 138.589 38.7058 138.042 38.7058Z" fill="#FFF6E1"/>
<path d="M147.543 38.5832V29.3885H148.697V38.5832H147.543Z" fill="#FFF6E1"/>
<path d="M160.111 38.7671C159.449 38.7671 158.832 38.6445 158.258 38.3993C157.684 38.1473 157.178 37.8033 156.739 37.3675C156.307 36.9247 155.97 36.4173 155.727 35.8452C155.484 35.2663 155.362 34.6465 155.362 33.9859C155.362 33.3252 155.484 32.7088 155.727 32.1367C155.976 31.5578 156.317 31.0504 156.749 30.6145C157.188 30.1718 157.694 29.8278 158.268 29.5826C158.842 29.3306 159.459 29.2046 160.121 29.2046C160.769 29.2046 161.376 29.3272 161.943 29.5724C162.51 29.8108 163.01 30.1411 163.442 30.5634L163.108 31.9732C162.797 31.4692 162.379 31.0674 161.852 30.7677C161.332 30.4612 160.755 30.308 160.121 30.308C159.453 30.308 158.848 30.4749 158.308 30.8086C157.775 31.1355 157.35 31.5782 157.033 32.1367C156.716 32.6884 156.557 33.3048 156.557 33.9859C156.557 34.6533 156.712 35.2663 157.023 35.8248C157.34 36.3833 157.765 36.8294 158.298 37.1631C158.838 37.4969 159.442 37.6637 160.111 37.6637C160.489 37.6637 160.846 37.6195 161.184 37.5309C161.528 37.4356 161.842 37.3027 162.125 37.1325V34.7214H159.615V33.6794H163.239V37.725C162.827 38.0724 162.348 38.3346 161.801 38.5117C161.261 38.6819 160.698 38.7671 160.111 38.7671Z" fill="#FFF6E1"/>
<path d="M177.679 38.8897L171.3 31.9937V38.5832H170.207V29.082L176.585 35.978V29.3885H177.679V38.8897Z" fill="#FFF6E1"/>
<path d="M50.1759 1.00586L50.0428 1.55857L29.6876 36.6159C26.2344 40.254 21.2519 39.6273 18.6221 35.4305C16.6683 32.3125 14.7773 28.8621 12.9522 25.6471C12.5965 25.0206 11.8923 23.976 11.6526 23.3806C11.5935 23.2338 11.5586 23.1102 11.5816 22.9496L12.8178 24.1357C16.3351 26.7216 20.3568 25.7691 22.6484 22.1729C26.409 16.2714 29.5323 9.74503 33.2578 3.79589C34.1706 2.52081 36.3607 1.00586 37.9665 1.00586L50.1759 1.00586Z" fill="#36574A"/>
<path d="M20.9412 0.382459C20.765 0.305927 20.5837 0.290673 20.397 0.264208L2.68023 7.16074e-07C1.42317 -0.0012008 0.720645 1.50992 1.58273 2.4335C1.75357 2.61654 2.00009 2.77059 2.20307 2.92485C3.89461 4.21037 5.904 5.389 7.51388 6.72605C8.20396 7.29917 8.36008 7.8592 8.35606 8.71973C8.3455 10.9766 8.05579 13.2854 8.0439 15.5489C8.08148 16.865 9.79448 17.4546 10.6534 16.4517L21.5519 2.56194C22.0822 1.83571 21.7677 0.741379 20.9412 0.382459Z" fill="#36574A"/>
</svg>
