<svg width="65" height="64" viewBox="0 0 65 64" fill="none" xmlns="http://www.w3.org/2000/svg">
<g id="icon_66 1" clip-path="url(#clip0_7386_30624)">
<g id="Layer 2">
<g id="Layer 1">
<g id="&#60;Group&#62;">
<g id="&#60;Group&#62;_2">
<g id="&#60;Group&#62;_3">
<g id="&#60;Group&#62;_4">
<path id="Vector" d="M53.81 11.69H53.75C53.4848 11.69 53.2304 11.5846 53.0429 11.3971C52.8554 11.2096 52.75 10.9552 52.75 10.69V1C52.75 0.734784 52.8554 0.48043 53.0429 0.292893C53.2304 0.105357 53.4848 0 53.75 0C54.2 0 54.92 0 59.17 2.56C59.3174 2.64974 59.4391 2.77611 59.5232 2.92681C59.6073 3.07751 59.651 3.24742 59.65 3.42V8.27C59.651 8.44258 59.6073 8.61249 59.5232 8.76319C59.4391 8.91389 59.3174 9.04026 59.17 9.13C54.92 11.69 54.2 11.69 53.81 11.69ZM54.75 2.39V9.31C55.33 9.03 56.24 8.55 57.65 7.71V4C56.25 3.15 55.34 2.66 54.75 2.38V2.39Z" fill="#1D1F21"/>
</g>
<g id="&#60;Group&#62;_5">
<path id="Vector_2" d="M58.6602 9.27026C58.3949 9.27026 58.1406 9.1649 57.953 8.97737C57.7655 8.78983 57.6602 8.53548 57.6602 8.27026V3.41026C57.6606 3.24166 57.7037 3.07593 57.7854 2.92845C57.8671 2.78098 57.9848 2.65656 58.1275 2.56675C58.2702 2.47695 58.4333 2.42468 58.6016 2.4148C58.7699 2.40493 58.9379 2.43776 59.0902 2.51026C61.3002 3.56026 63.9402 4.94026 63.9602 5.00026C64.124 5.08418 64.2614 5.21167 64.3574 5.3687C64.4534 5.52574 64.5042 5.70621 64.5042 5.89026C64.5042 6.07431 64.4534 6.25478 64.3574 6.41181C64.2614 6.56885 64.124 6.69634 63.9602 6.78026L59.1102 9.17026C58.97 9.23818 58.8159 9.27243 58.6602 9.27026ZM59.6602 5.01026V6.65026L61.2902 5.83026L59.6602 5.01026Z" fill="#1D1F21"/>
</g>
<g id="&#60;Group&#62;_6">
<path id="Vector_3" d="M7.31 11.69H3.91C3.00561 11.69 2.13826 11.3307 1.49877 10.6912C0.859267 10.0517 0.5 9.18439 0.5 8.28L0.5 3.41C0.5 2.50561 0.859267 1.63826 1.49877 0.998766C2.13826 0.359267 3.00561 0 3.91 0H7.31C7.57522 0 7.82957 0.105357 8.01711 0.292893C8.20464 0.48043 8.31 0.734784 8.31 1V10.69C8.31 10.9552 8.20464 11.2096 8.01711 11.3971C7.82957 11.5846 7.57522 11.69 7.31 11.69ZM3.91 2C3.53604 2 3.17741 2.14855 2.91298 2.41298C2.64855 2.67741 2.5 3.03604 2.5 3.41V8.28C2.5 8.65396 2.64855 9.01259 2.91298 9.27702C3.17741 9.54145 3.53604 9.69 3.91 9.69H6.31V2H3.91Z" fill="#1D1F21"/>
</g>
<g id="&#60;Group&#62;_7">
<path id="Vector_4" d="M53.7498 11.69H14.0898C13.8246 11.69 13.5703 11.5846 13.3827 11.3971C13.1952 11.2096 13.0898 10.9552 13.0898 10.69V1C13.0898 0.734784 13.1952 0.48043 13.3827 0.292893C13.5703 0.105357 13.8246 0 14.0898 0L53.7498 0C54.0151 0 54.2694 0.105357 54.457 0.292893C54.6445 0.48043 54.7498 0.734784 54.7498 1V10.69C54.7498 10.9552 54.6445 11.2096 54.457 11.3971C54.2694 11.5846 54.0151 11.69 53.7498 11.69ZM15.0898 9.69H52.7498V2H15.0898V9.69Z" fill="#1D1F21"/>
</g>
<g id="&#60;Group&#62;_8">
<path id="Vector_5" d="M14.0905 11.69H7.31055C7.04533 11.69 6.79098 11.5846 6.60344 11.3971C6.4159 11.2096 6.31055 10.9552 6.31055 10.69V1C6.31055 0.734784 6.4159 0.48043 6.60344 0.292893C6.79098 0.105357 7.04533 0 7.31055 0L14.0905 0C14.3558 0 14.6101 0.105357 14.7977 0.292893C14.9852 0.48043 15.0905 0.734784 15.0905 1V10.69C15.0905 10.9552 14.9852 11.2096 14.7977 11.3971C14.6101 11.5846 14.3558 11.69 14.0905 11.69ZM8.31055 9.69H13.0905V2H8.31055V9.69Z" fill="#1D1F21"/>
</g>
</g>
<g id="&#60;Group&#62;_9">
<path id="Vector_6" d="M12.16 6.78027H9.25V8.78027H12.16V6.78027Z" fill="#1D1F21"/>
</g>
<g id="&#60;Group&#62;_10">
<path id="Vector_7" d="M12.16 2.91016H9.25V4.91016H12.16V2.91016Z" fill="#1D1F21"/>
</g>
<g id="&#60;Group&#62;_11">
<path id="Vector_8" d="M50.91 4.83984H17V6.83984H50.91V4.83984Z" fill="#1D1F21"/>
</g>
</g>
<g id="&#60;Group&#62;_12">
<g id="&#60;Group&#62;_13">
<g id="&#60;Group&#62;_14">
<path id="Vector_9" d="M64.5005 63.9996H52.8105V52.3096H64.5005V63.9996ZM54.8105 61.9996H62.5005V54.3096H54.8105V61.9996Z" fill="#1D1F21"/>
</g>
<g id="&#60;Group&#62;_15">
<path id="Vector_10" d="M12.19 63.9996H0.5V52.3096H12.19V63.9996ZM2.5 61.9996H10.19V54.3096H2.5V61.9996Z" fill="#1D1F21"/>
</g>
<g id="&#60;Group&#62;_16">
<path id="Vector_11" d="M12.19 27.19H0.5V15.5H12.19V27.19ZM2.5 25.19H10.19V17.5H2.5V25.19Z" fill="#1D1F21"/>
</g>
<g id="&#60;Group&#62;_17">
<path id="Vector_12" d="M64.5005 27.19H52.8105V15.5H64.5005V27.19ZM54.8105 25.19H62.5005V17.5H54.8105V25.19Z" fill="#1D1F21"/>
</g>
</g>
<g id="&#60;Group&#62;_18">
<g id="&#60;Group&#62;_19">
<path id="Vector_13" d="M53.8195 20.3398H11.1895V22.3398H53.8195V20.3398Z" fill="#1D1F21"/>
</g>
<g id="&#60;Group&#62;_20">
<path id="Vector_14" d="M53.8195 57.1602H11.1895V59.1602H53.8195V57.1602Z" fill="#1D1F21"/>
</g>
<g id="&#60;Group&#62;_21">
<path id="Vector_15" d="M59.6602 26.1895H57.6602V53.3195H59.6602V26.1895Z" fill="#1D1F21"/>
</g>
<g id="&#60;Group&#62;_22">
<path id="Vector_16" d="M7.33984 26.1895H5.33984V53.3195H7.33984V26.1895Z" fill="#1D1F21"/>
</g>
</g>
</g>
<g id="&#60;Group&#62;_23">
<g id="&#60;Group&#62;_24">
<g id="&#60;Group&#62;_25">
<path id="Vector_17" d="M31.5593 53.3402H25.6893V50.0002C24.9055 49.7748 24.1505 49.4593 23.4393 49.0602L21.0893 51.4102L16.9393 47.2602L19.2893 44.9102C18.8901 44.199 18.5747 43.4439 18.3493 42.6602H15.0293V36.8102H18.3493C18.5745 36.0263 18.89 35.2713 19.2893 34.5602L16.9393 32.2102L21.0893 28.0602L23.4393 30.4102C24.1505 30.0111 24.9055 29.6956 25.6893 29.4702V26.1602H31.5693V29.4802C32.3531 29.7056 33.1081 30.021 33.8193 30.4202L36.1693 28.0702L40.3193 32.2202L37.9693 34.5702C38.3687 35.2812 38.6842 36.0363 38.9093 36.8202H42.2293V42.7002H38.8993C38.674 43.484 38.3585 44.239 37.9593 44.9502L40.3093 47.3002L36.1593 51.4502L33.8093 49.1002C33.0982 49.4995 32.3431 49.8149 31.5593 50.0402V53.3402ZM27.6893 51.3402H29.5693V48.4302L30.3693 48.2702C31.4411 48.0418 32.4593 47.6108 33.3693 47.0002L34.0493 46.5502L36.1193 48.6202L37.4993 47.2902L35.4293 45.2202L35.8793 44.5402C36.4899 43.6302 36.921 42.6119 37.1493 41.5402L37.3093 40.7402H40.2293V38.8102H37.2993L37.1393 38.0102C36.911 36.9384 36.4799 35.9201 35.8693 35.0102L35.4193 34.3302L37.4993 32.2102L36.1693 30.8802L34.0893 33.0002L33.4093 32.5502C32.4992 31.9398 31.481 31.5087 30.4093 31.2802L29.6093 31.1202V28.1602H27.6893V31.0802L26.8893 31.2402C25.8176 31.4687 24.7994 31.8998 23.8893 32.5102L23.2093 32.9602L21.1393 30.8902L19.8093 32.2202L21.8793 34.2902L21.4293 34.9702C20.8187 35.8801 20.3876 36.8984 20.1593 37.9702L19.9993 38.7702H17.0293V40.6502H19.9493L20.1093 41.4502C20.3376 42.5219 20.7687 43.5402 21.3793 44.4502L21.8293 45.1302L19.7593 47.2002L21.0893 48.5302L23.1593 46.4602L23.8393 46.9102C24.7493 47.5208 25.7675 47.9518 26.8393 48.1802L27.6393 48.3402L27.6893 51.3402Z" fill="#1D1F21"/>
</g>
<g id="&#60;Group&#62;_26">
<path id="Vector_18" d="M28.6297 50.4405C26.515 50.4425 24.4472 49.8172 22.6879 48.6438C20.9286 47.4704 19.5569 45.8015 18.7463 43.8484C17.9357 41.8952 17.7225 39.7455 18.1339 37.6712C18.5452 35.5969 19.5626 33.6911 21.0572 32.1951C22.5518 30.6991 24.4566 29.68 26.5305 29.2667C28.6044 28.8534 30.7543 29.0645 32.7083 29.8733C34.6622 30.6821 36.3323 32.0523 37.5074 33.8105C38.6825 35.5686 39.3097 37.6358 39.3097 39.7505C39.3071 42.5832 38.1813 45.2992 36.1793 47.3031C34.1773 49.307 31.4623 50.4353 28.6297 50.4405ZM28.6297 31.0705C26.911 31.0705 25.2309 31.5802 23.8018 32.5351C22.3727 33.4899 21.2589 34.8471 20.6012 36.435C19.9435 38.0229 19.7714 39.7702 20.1067 41.4559C20.442 43.1416 21.2696 44.69 22.4849 45.9053C23.7003 47.1206 25.2487 47.9483 26.9344 48.2836C28.6201 48.6189 30.3673 48.4468 31.9552 47.7891C33.5431 47.1313 34.9003 46.0175 35.8552 44.5885C36.81 43.1594 37.3197 41.4793 37.3197 39.7605C37.3197 37.4549 36.4045 35.2435 34.7751 33.6122C33.1457 31.981 30.9353 31.0632 28.6297 31.0605V31.0705Z" fill="#1D1F21"/>
</g>
<g id="&#60;Group&#62;_27">
<path id="Vector_19" d="M28.6284 45.5901C27.4746 45.5842 26.3485 45.2366 25.392 44.5913C24.4356 43.946 23.6918 43.0319 23.2543 41.9642C22.8169 40.8966 22.7055 39.7233 22.9343 38.5925C23.163 37.4616 23.7215 36.4238 24.5395 35.6101C25.3574 34.7964 26.398 34.2431 27.53 34.0202C28.662 33.7973 29.8347 33.9147 30.9001 34.3576C31.9655 34.8004 32.8758 35.549 33.5162 36.5087C34.1566 37.4684 34.4983 38.5963 34.4984 39.7501C34.4971 40.5192 34.3441 41.2804 34.0483 41.9903C33.7524 42.7002 33.3195 43.3448 32.7743 43.8873C32.2291 44.4297 31.5823 44.8593 30.8709 45.1515C30.1595 45.4437 29.3974 45.5927 28.6284 45.5901ZM28.6284 35.9001C27.8706 35.906 27.1316 36.136 26.5042 36.5611C25.8769 36.9862 25.3894 37.5874 25.1031 38.2889C24.8167 38.9905 24.7444 39.7612 24.8951 40.5038C25.0458 41.2464 25.4129 41.9278 25.9501 42.4623C26.4873 42.9967 27.1707 43.3603 27.9141 43.5071C28.6575 43.654 29.4277 43.5777 30.1278 43.2877C30.8279 42.9977 31.4265 42.5071 31.8484 41.8776C32.2702 41.2481 32.4964 40.5079 32.4984 39.7501C32.4971 39.2436 32.3958 38.7424 32.2005 38.2752C32.0052 37.8079 31.7196 37.3838 31.3601 37.0271C31.0006 36.6704 30.5743 36.3881 30.1055 36.1964C29.6368 36.0048 29.1348 35.9075 28.6284 35.9101V35.9001Z" fill="#1D1F21"/>
</g>
<g id="&#60;Group&#62;_28">
<path id="Vector_20" d="M29.6002 38.75H27.6602V40.75H29.6002V38.75Z" fill="#1D1F21"/>
</g>
</g>
<g id="&#60;Group&#62;_29">
<g id="&#60;Group&#62;_30">
<path id="Vector_21" d="M48.9702 26.1602H43.1602V28.1602H48.9702V26.1602Z" fill="#1D1F21"/>
</g>
<g id="&#60;Group&#62;_31">
<path id="Vector_22" d="M48.9702 51.3398H43.1602V53.3398H48.9702V51.3398Z" fill="#1D1F21"/>
</g>
<g id="&#60;Group&#62;_32">
<path id="Vector_23" d="M49.9707 26.1904H47.9707V53.3204H49.9707V26.1904Z" fill="#1D1F21"/>
</g>
<g id="&#60;Group&#62;_33">
<g id="&#60;Group&#62;_34">
<path id="Vector_24" d="M48.9698 31H45.0898V33H48.9698V31Z" fill="#1D1F21"/>
</g>
<g id="&#60;Group&#62;_35">
<path id="Vector_25" d="M48.9698 34.8799H45.0898V36.8799H48.9698V34.8799Z" fill="#1D1F21"/>
</g>
<g id="&#60;Group&#62;_36">
<path id="Vector_26" d="M48.9698 38.75H45.0898V40.75H48.9698V38.75Z" fill="#1D1F21"/>
</g>
<g id="&#60;Group&#62;_37">
<path id="Vector_27" d="M48.9698 42.6299H45.0898V44.6299H48.9698V42.6299Z" fill="#1D1F21"/>
</g>
<g id="&#60;Group&#62;_38">
<path id="Vector_28" d="M48.9698 46.5H45.0898V48.5H48.9698V46.5Z" fill="#1D1F21"/>
</g>
</g>
</g>
</g>
</g>
</g>
</g>
</g>
<defs>
<clipPath id="clip0_7386_30624">
<rect width="64" height="64" fill="white" transform="translate(0.5)"/>
</clipPath>
</defs>
</svg>
