<svg width="15" height="194" viewBox="0 0 15 194" fill="none" xmlns="http://www.w3.org/2000/svg">
<path d="M13.8633 193.848L9.60547 193.848L9.60547 193.359C12.3789 192.806 13.7656 191.494 13.7656 189.424C13.7656 188.493 13.502 187.773 12.9746 187.266C12.4408 186.751 11.8451 186.494 11.1875 186.494C10.5234 186.494 9.9668 186.719 9.51758 187.168C9.07487 187.617 8.59961 188.437 8.0918 189.629C7.63607 190.69 7.23893 191.491 6.90039 192.031C6.55534 192.572 6.10937 192.995 5.5625 193.301C5.01562 193.6 4.43294 193.75 3.81445 193.75C2.87044 193.75 2.08594 193.424 1.46094 192.773C0.829427 192.116 0.513672 191.286 0.513672 190.283C0.513672 189.723 0.604817 189.196 0.787109 188.701C0.969401 188.206 1.347 187.699 1.91992 187.178C1.56185 186.878 1.17448 186.709 0.757812 186.67L0.757812 186.24L4.22461 186.24L4.22461 186.67C3.21549 186.917 2.42122 187.357 1.8418 187.988C1.26237 188.613 0.972656 189.339 0.972656 190.166C0.972656 190.954 1.1875 191.533 1.61719 191.904C2.04036 192.269 2.50586 192.451 3.01367 192.451C3.62565 192.451 4.14323 192.22 4.56641 191.758C4.99609 191.302 5.47786 190.479 6.01172 189.287C6.51953 188.148 6.92969 187.321 7.24219 186.807C7.54818 186.286 7.97461 185.869 8.52148 185.557C9.06836 185.244 9.69987 185.088 10.416 185.088C11.5488 185.088 12.4701 185.465 13.1797 186.221C13.8893 186.976 14.2441 187.985 14.2441 189.248C14.2441 190.7 13.6875 191.911 12.5742 192.881C12.8802 193.096 13.3099 193.255 13.8633 193.359L13.8633 193.848ZM12.0469 176.514L12.0469 176.084C13.5638 176.527 14.3223 177.633 14.3223 179.404C14.3223 180.544 13.9349 181.504 13.1602 182.285C12.3854 183.06 11.36 183.447 10.084 183.447C8.77539 183.447 7.71419 183.027 6.90039 182.187C6.08659 181.348 5.67969 180.355 5.67969 179.209C5.67969 178.519 5.83268 177.884 6.13867 177.305C6.43815 176.725 6.80599 176.436 7.24219 176.436C7.40495 176.436 7.55794 176.491 7.70117 176.602C7.8444 176.706 7.91601 176.859 7.91601 177.061C7.91601 177.49 7.66536 177.754 7.16406 177.852C6.78646 177.93 6.52279 178.05 6.37305 178.213C6.22331 178.382 6.14844 178.711 6.14844 179.199C6.14844 180.072 6.45117 180.729 7.05664 181.172C7.66211 181.608 8.57357 181.826 9.79102 181.826C11.0475 181.826 12.0306 181.592 12.7402 181.123C13.4499 180.648 13.8047 179.932 13.8047 178.975C13.8047 177.686 13.2187 176.865 12.0469 176.514ZM7.7207 172.275C7.14128 172.054 6.65625 171.696 6.26562 171.201C5.875 170.7 5.67969 170.212 5.67969 169.736C5.67969 169.307 5.81315 168.968 6.08008 168.721C6.347 168.473 6.62044 168.35 6.90039 168.35C7.08919 168.35 7.25195 168.415 7.38867 168.545C7.52539 168.669 7.59375 168.822 7.59375 169.004C7.59375 169.329 7.35286 169.577 6.87109 169.746C6.54557 169.863 6.38281 170.039 6.38281 170.273C6.38281 170.553 6.57487 170.889 6.95898 171.279C7.33659 171.67 7.73047 171.921 8.14062 172.031C8.55078 172.142 9.11393 172.197 9.83008 172.197L11.2559 172.197C12.1087 172.197 12.6458 172.187 12.8672 172.168C13.0885 172.142 13.2578 172.048 13.375 171.885C13.4922 171.722 13.5508 171.432 13.5508 171.016L13.5508 170.742L14 170.742L14 174.99L13.5508 174.99L13.5508 174.785C13.5508 174.395 13.4987 174.118 13.3945 173.955C13.2839 173.786 13.1309 173.685 12.9355 173.652C12.7402 173.62 12.1803 173.604 11.2559 173.604L9 173.604C8.14062 173.604 7.60351 173.617 7.38867 173.643C7.16732 173.662 6.99805 173.753 6.88086 173.916C6.75716 174.079 6.69531 174.368 6.69531 174.785L6.69531 174.99L6.25586 174.99C6.18424 174.378 5.99219 173.577 5.67969 172.588C6.19401 172.399 6.87435 172.295 7.7207 172.275ZM9.98633 167.949C8.76237 167.949 7.74023 167.539 6.91992 166.719C6.0931 165.898 5.67969 164.889 5.67969 163.691C5.67969 162.487 6.0931 161.475 6.91992 160.654C7.74674 159.834 8.76888 159.424 9.98633 159.424C11.334 159.424 12.3952 159.84 13.1699 160.674C13.9381 161.507 14.3223 162.513 14.3223 163.691C14.3223 164.87 13.9316 165.876 13.1504 166.709C12.3626 167.536 11.3079 167.949 9.98633 167.949ZM10.0352 166.328C11.4544 166.328 12.4505 166.097 13.0234 165.635C13.5898 165.173 13.873 164.525 13.873 163.691C13.873 162.839 13.5898 162.187 13.0234 161.738C12.4505 161.283 11.4544 161.055 10.0352 161.055C8.6289 161.055 7.6263 161.279 7.02734 161.729C6.42838 162.178 6.1289 162.832 6.1289 163.691C6.1289 164.544 6.42838 165.199 7.02734 165.654C7.61979 166.104 8.62239 166.328 10.0352 166.328ZM0.572264 155.625L11.2559 155.625C12.1087 155.625 12.6458 155.615 12.8672 155.596C13.0885 155.57 13.2578 155.475 13.375 155.312C13.4922 155.15 13.5508 154.86 13.5508 154.443L13.5508 154.209L14 154.209L14 158.486L13.5508 158.486L13.5508 158.213C13.5508 157.822 13.4987 157.546 13.3945 157.383C13.2839 157.214 13.1309 157.113 12.9355 157.08C12.7402 157.048 12.1803 157.031 11.2559 157.031L3.3457 157.031C2.50586 157.031 1.97851 157.106 1.76367 157.256C1.54232 157.406 1.43164 157.77 1.43164 158.35L0.98242 158.35C0.98242 157.952 0.936847 157.487 0.845701 156.953C0.754556 156.413 0.66341 156.042 0.572264 155.84L0.572264 155.625ZM0.572264 150.82L11.2559 150.82C12.1087 150.82 12.6458 150.811 12.8672 150.791C13.0885 150.765 13.2578 150.671 13.375 150.508C13.4922 150.345 13.5508 150.055 13.5508 149.639L13.5508 149.404L14 149.404L14 153.682L13.5508 153.682L13.5508 153.408C13.5508 153.018 13.4987 152.741 13.3945 152.578C13.2839 152.409 13.1309 152.308 12.9355 152.275C12.7402 152.243 12.1803 152.227 11.2559 152.227L3.3457 152.227C2.50586 152.227 1.97851 152.301 1.76367 152.451C1.54232 152.601 1.43164 152.965 1.43164 153.545L0.98242 153.545C0.98242 153.148 0.936847 152.682 0.845701 152.148C0.754555 151.608 0.66341 151.237 0.572264 151.035L0.572264 150.82ZM0.75781 133.232L4.05859 133.125L4.05859 133.584C3.33593 133.675 2.74023 133.88 2.27148 134.199C1.79622 134.512 1.5 134.84 1.38281 135.186C1.26562 135.531 1.20703 136.113 1.20703 136.934L1.20703 139.521L6.82226 139.521L6.82226 138.281C6.82226 137.48 6.6888 136.95 6.42187 136.689C6.14843 136.423 5.60482 136.289 4.79101 136.289L4.79101 135.801L9.45898 135.801L9.45898 136.289C8.89258 136.289 8.44661 136.348 8.12109 136.465C7.78906 136.576 7.56445 136.745 7.44726 136.973C7.32357 137.194 7.26172 137.63 7.26172 138.281L7.26172 139.521L10.5527 139.521C11.5944 139.521 12.278 139.495 12.6035 139.443C12.9225 139.391 13.1602 139.261 13.3164 139.053C13.4727 138.838 13.5508 138.428 13.5508 137.822L13.5508 137.373L14 137.373L14 143.525L13.5508 143.525L13.5508 143.115C13.5508 142.549 13.4792 142.158 13.3359 141.943C13.1927 141.722 12.9714 141.582 12.6719 141.523C12.3659 141.458 11.6595 141.426 10.5527 141.426L4.05859 141.426C3.0039 141.426 2.32357 141.458 2.01758 141.523C1.71159 141.582 1.5 141.712 1.38281 141.914C1.26562 142.109 1.20703 142.542 1.20703 143.213L1.20703 143.447L0.75781 143.447L0.75781 133.232ZM9.98633 134.141C8.76237 134.141 7.74023 133.73 6.91992 132.91C6.0931 132.09 5.67968 131.081 5.67968 129.883C5.67968 128.678 6.0931 127.666 6.91992 126.846C7.74674 126.025 8.76888 125.615 9.98633 125.615C11.334 125.615 12.3952 126.032 13.1699 126.865C13.9381 127.699 14.3223 128.704 14.3223 129.883C14.3223 131.061 13.9316 132.067 13.1504 132.9C12.3626 133.727 11.3079 134.141 9.98633 134.141ZM10.0352 132.52C11.4544 132.52 12.4505 132.288 13.0234 131.826C13.5898 131.364 13.873 130.716 13.873 129.883C13.873 129.03 13.5898 128.379 13.0234 127.93C12.4505 127.474 11.4544 127.246 10.0352 127.246C8.6289 127.246 7.6263 127.471 7.02734 127.92C6.42838 128.369 6.1289 129.023 6.1289 129.883C6.1289 130.736 6.42838 131.39 7.02734 131.846C7.61979 132.295 8.62239 132.52 10.0352 132.52ZM7.7207 121.553C7.14127 121.331 6.65625 120.973 6.26562 120.479C5.875 119.977 5.67968 119.489 5.67968 119.014C5.67968 118.584 5.81315 118.245 6.08007 117.998C6.347 117.751 6.62044 117.627 6.90039 117.627C7.08919 117.627 7.25195 117.692 7.38867 117.822C7.52539 117.946 7.59375 118.099 7.59375 118.281C7.59375 118.607 7.35286 118.854 6.87109 119.023C6.54557 119.141 6.38281 119.316 6.38281 119.551C6.38281 119.831 6.57487 120.166 6.95898 120.557C7.33659 120.947 7.73047 121.198 8.14062 121.309C8.55078 121.419 9.11393 121.475 9.83007 121.475L11.2559 121.475C12.1087 121.475 12.6458 121.465 12.8672 121.445C13.0885 121.419 13.2578 121.325 13.375 121.162C13.4922 120.999 13.5508 120.71 13.5508 120.293L13.5508 120.02L14 120.02L14 124.268L13.5508 124.268L13.5508 124.062C13.5508 123.672 13.4987 123.395 13.3945 123.232C13.2839 123.063 13.1309 122.962 12.9355 122.93C12.7402 122.897 12.1803 122.881 11.2559 122.881L9 122.881C8.14062 122.881 7.60351 122.894 7.38867 122.92C7.16731 122.939 6.99804 123.031 6.88086 123.193C6.75716 123.356 6.69531 123.646 6.69531 124.062L6.69531 124.268L6.25586 124.268C6.18424 123.656 5.99218 122.855 5.67968 121.865C6.19401 121.676 6.87435 121.572 7.7207 121.553ZM9.02929 99.9414L9.02929 99.5215L13.668 99.5215L13.668 99.9414C13.1406 100.059 12.6751 100.27 12.2715 100.576C13.5866 101.742 14.2441 103.229 14.2441 105.039C14.2441 106.953 13.6387 108.519 12.4277 109.736C11.2168 110.947 9.61523 111.553 7.62304 111.553C6.31445 111.553 5.08398 111.273 3.93164 110.713C2.77278 110.153 1.91341 109.372 1.35351 108.369C0.793616 107.367 0.513668 106.266 0.513668 105.068C0.513668 104.079 0.718746 103.184 1.1289 102.383C1.53255 101.576 1.98177 100.973 2.47656 100.576C1.92317 100.296 1.35026 100.127 0.757808 100.068L0.757808 99.6387L5.77734 99.5215L5.77734 99.9414C3.99349 100.234 2.75325 100.833 2.05664 101.738C1.36002 102.637 1.01171 103.652 1.01171 104.785C1.01171 106.172 1.57487 107.275 2.70117 108.096C3.82747 108.91 5.4388 109.316 7.53515 109.316C9.52083 109.316 11.0443 108.87 12.1055 107.979C13.1602 107.087 13.6875 105.977 13.6875 104.648C13.6875 103.939 13.515 103.213 13.1699 102.471C12.8249 101.729 12.2422 101.143 11.4219 100.713C10.595 100.277 9.79752 100.02 9.02929 99.9414ZM9.98632 97.4609C8.76237 97.4609 7.74023 97.0508 6.91992 96.2305C6.09309 95.4102 5.67968 94.401 5.67968 93.2031C5.67968 91.9987 6.09309 90.9863 6.91992 90.166C7.74674 89.3457 8.76888 88.9355 9.98632 88.9355C11.334 88.9355 12.3952 89.3522 13.1699 90.1855C13.9381 91.0189 14.3223 92.0247 14.3223 93.2031C14.3223 94.3815 13.9316 95.3874 13.1504 96.2207C12.3626 97.0475 11.3079 97.4609 9.98632 97.4609ZM10.0352 95.8398C11.4544 95.8398 12.4505 95.6087 13.0234 95.1465C13.5898 94.6842 13.873 94.0365 13.873 93.2031C13.873 92.3503 13.5898 91.6992 13.0234 91.25C12.4505 90.7943 11.4544 90.5664 10.0352 90.5664C8.6289 90.5664 7.6263 90.791 7.02734 91.2402C6.42838 91.6895 6.1289 92.3437 6.1289 93.2031C6.1289 94.056 6.42838 94.7103 7.02734 95.166C7.61979 95.6152 8.62239 95.8398 10.0352 95.8398ZM5.67968 85.4492L5.67968 85.1855C6.08333 85.0358 6.63346 84.9512 7.33007 84.9316C6.77669 84.4629 6.36328 83.9714 6.08984 83.457C5.8164 82.9427 5.67968 82.4056 5.67968 81.8457C5.67968 81.2077 5.81315 80.6868 6.08007 80.2832C6.347 79.873 6.67578 79.6094 7.0664 79.4922C7.45052 79.375 8.01367 79.3164 8.75585 79.3164L11.2559 79.3164C12.1803 79.3164 12.7435 79.3001 12.9453 79.2676C13.1471 79.235 13.3001 79.1341 13.4043 78.9648C13.5019 78.7891 13.5508 78.4701 13.5508 78.0078L14 78.0078L14 82.0996L13.5508 82.0996L13.5508 81.9141C13.5508 81.4453 13.4824 81.1393 13.3457 80.9961C13.209 80.8529 13.0495 80.7715 12.8672 80.752C12.6849 80.7324 12.1478 80.7227 11.2559 80.7227L8.67773 80.7227C8.04622 80.7227 7.597 80.7552 7.33007 80.8203C7.05664 80.8789 6.81575 81.0449 6.60742 81.3184C6.39908 81.5853 6.29492 81.9271 6.29492 82.3437C6.29492 82.819 6.43815 83.2747 6.7246 83.7109C7.00455 84.1406 7.42773 84.5475 7.99414 84.9316L11.2559 84.9316C12.1803 84.9316 12.7435 84.9154 12.9453 84.8828C13.1471 84.8437 13.3001 84.7396 13.4043 84.5703C13.5019 84.3945 13.5508 84.0723 13.5508 83.6035L14 83.6035L14 87.6465L13.5508 87.6465C13.5508 87.1973 13.5052 86.8848 13.4141 86.709C13.3229 86.5332 13.1862 86.4258 13.0039 86.3867C12.8151 86.3411 12.2324 86.3184 11.2559 86.3184L8.87304 86.3184C7.94205 86.3184 7.3789 86.3379 7.18359 86.377C6.98177 86.4095 6.83203 86.5137 6.73437 86.6895C6.6302 86.8587 6.57812 87.1777 6.57812 87.6465L6.1289 87.6465C6.05078 86.9303 5.90104 86.1979 5.67968 85.4492ZM6.45117 72.0898L6.45117 74.502L11.2852 74.502C12.0273 74.502 12.5286 74.4694 12.7891 74.4043C13.043 74.3392 13.248 74.2025 13.4043 73.9941C13.5605 73.7793 13.6387 73.5514 13.6387 73.3105C13.6387 72.8418 13.3717 72.4349 12.8379 72.0898L13.0234 71.7773C13.4531 71.9792 13.7786 72.2786 14 72.6758C14.2148 73.0664 14.3223 73.4635 14.3223 73.8672C14.3223 74.3359 14.1855 74.7493 13.9121 75.1074C13.6322 75.459 13.3066 75.6803 12.9355 75.7715C12.5644 75.8561 11.9134 75.8984 10.9824 75.8984L6.45117 75.8984L6.45117 77.0605L6.00195 77.0605C5.98893 76.5267 5.76432 76.0482 5.32812 75.625C4.89192 75.2018 4.27994 74.9316 3.49218 74.8145L3.49218 74.502L6.00195 74.502L6.00195 72.0898L6.45117 72.0898ZM12.5352 62.9297L12.5352 62.5684C13.6484 62.627 14.2051 63.1738 14.2051 64.209C14.2051 64.6517 14.0879 65.0033 13.8535 65.2637C13.6191 65.5176 13.2708 65.6836 12.8086 65.7617C13.2708 66.4128 13.6191 67.0085 13.8535 67.5488C14.0879 68.0827 14.2051 68.5612 14.2051 68.9844C14.2051 69.5247 14.0488 69.9902 13.7363 70.3809C13.4238 70.7715 13.0104 70.9668 12.4961 70.9668C11.8255 70.9668 11.2396 70.6413 10.7383 69.9902C10.237 69.3327 9.74869 68.4277 9.27343 67.2754L8.6582 65.7617L8.26757 65.7617C7.71419 65.7617 7.3138 65.7975 7.0664 65.8691C6.819 65.9408 6.59765 66.1263 6.40234 66.4258C6.20703 66.7253 6.10937 67.1191 6.10937 67.6074C6.10937 68.584 6.43489 69.1276 7.08593 69.2383C7.74999 69.3424 8.08203 69.6159 8.08203 70.0586C8.08203 70.4557 7.89322 70.6543 7.51562 70.6543C7.14453 70.6543 6.74739 70.3906 6.32421 69.8633C5.89453 69.3359 5.67968 68.5156 5.67968 67.4023C5.67968 66.5755 5.80989 65.9342 6.07031 65.4785C6.33072 65.0228 6.62695 64.7233 6.95898 64.5801C7.29101 64.4303 7.79882 64.3555 8.48242 64.3555L11.7148 64.3555C12.47 64.3555 12.9551 64.3164 13.1699 64.2383C13.3848 64.1602 13.4922 63.9909 13.4922 63.7305C13.4922 63.3008 13.1732 63.0339 12.5352 62.9297ZM9.11718 65.7617L9.54687 66.8262C10.2305 68.5059 11.0898 69.3457 12.125 69.3457C12.5352 69.3457 12.8672 69.2383 13.1211 69.0234C13.3685 68.8086 13.4922 68.5286 13.4922 68.1836C13.4922 67.8776 13.3913 67.5228 13.1894 67.1191C12.9876 66.7155 12.6849 66.263 12.2812 65.7617L9.11718 65.7617ZM12.0469 54.7168L12.0469 54.2871C13.5638 54.7298 14.3223 55.8366 14.3223 57.6074C14.3223 58.7467 13.9349 59.707 13.1602 60.4883C12.3854 61.263 11.36 61.6504 10.084 61.6504C8.77538 61.6504 7.71419 61.2305 6.90038 60.3906C6.08658 59.5508 5.67968 58.5579 5.67968 57.4121C5.67968 56.722 5.83268 56.0872 6.13867 55.5078C6.43814 54.9284 6.80598 54.6387 7.24218 54.6387C7.40494 54.6387 7.55794 54.694 7.70117 54.8047C7.84439 54.9089 7.91601 55.0618 7.91601 55.2637C7.91601 55.6934 7.66536 55.957 7.16406 56.0547C6.78645 56.1328 6.52278 56.2533 6.37304 56.416C6.2233 56.5853 6.14843 56.9141 6.14843 57.4023C6.14843 58.2747 6.45117 58.9323 7.05663 59.375C7.6621 59.8112 8.57356 60.0293 9.79101 60.0293C11.0475 60.0293 12.0306 59.7949 12.7402 59.3262C13.4499 58.8509 13.8047 58.1348 13.8047 57.1777C13.8047 55.8887 13.2187 55.0684 12.0469 54.7168ZM6.45117 48.3203L6.45117 50.7324L11.2851 50.7324C12.0273 50.7324 12.5286 50.6999 12.7891 50.6348C13.043 50.5697 13.248 50.4329 13.4043 50.2246C13.5605 50.0098 13.6387 49.7819 13.6387 49.541C13.6387 49.0723 13.3717 48.6654 12.8379 48.3203L13.0234 48.0078C13.4531 48.2096 13.7786 48.5091 14 48.9062C14.2148 49.2969 14.3223 49.694 14.3223 50.0977C14.3223 50.5664 14.1855 50.9798 13.9121 51.3379C13.6322 51.6895 13.3066 51.9108 12.9355 52.002C12.5644 52.0866 11.9134 52.1289 10.9824 52.1289L6.45117 52.1289L6.45117 53.291L6.00195 53.291C5.98893 52.7572 5.76432 52.2786 5.32812 51.8555C4.89192 51.4323 4.27994 51.1621 3.49218 51.0449L3.49218 50.7324L6.00195 50.7324L6.00195 48.3203L6.45117 48.3203ZM0.757805 32.1191L4.05859 32.0117L4.05859 32.4707C3.33593 32.5618 2.74023 32.7669 2.27148 33.0859C1.79622 33.3984 1.49999 33.7272 1.38281 34.0723C1.26562 34.4173 1.20702 35 1.20702 35.8203L1.20702 38.4082L6.82226 38.4082L6.82226 37.168C6.82226 36.3672 6.6888 35.8366 6.42187 35.5762C6.14843 35.3092 5.60481 35.1758 4.79101 35.1758L4.79101 34.6875L9.45898 34.6875L9.45898 35.1758C8.89257 35.1758 8.44661 35.2344 8.12109 35.3516C7.78906 35.4622 7.56445 35.6315 7.44726 35.8594C7.32356 36.0807 7.26171 36.5169 7.26171 37.168L7.26171 38.4082L10.5527 38.4082C11.5944 38.4082 12.278 38.3822 12.6035 38.3301C12.9225 38.278 13.1601 38.1478 13.3164 37.9395C13.4726 37.7246 13.5508 37.3145 13.5508 36.709L13.5508 36.2598L14 36.2598L14 42.4121L13.5508 42.4121L13.5508 42.002C13.5508 41.4355 13.4792 41.0449 13.3359 40.8301C13.1927 40.6087 12.9713 40.4687 12.6719 40.4102C12.3659 40.3451 11.6595 40.3125 10.5527 40.3125L4.05859 40.3125C3.0039 40.3125 2.32356 40.3451 2.01757 40.4102C1.71158 40.4687 1.49999 40.599 1.38281 40.8008C1.26562 40.9961 1.20702 41.429 1.20702 42.0996L1.20702 42.334L0.757806 42.334L0.757805 32.1191ZM9.98632 33.0273C8.76236 33.0273 7.74023 32.6172 6.91991 31.7969C6.09309 30.9766 5.67968 29.9674 5.67968 28.7695C5.67968 27.5651 6.09309 26.5527 6.91991 25.7324C7.74674 24.9121 8.76887 24.502 9.98632 24.502C11.334 24.502 12.3952 24.9186 13.1699 25.752C13.9381 26.5853 14.3223 27.5911 14.3223 28.7695C14.3223 29.9479 13.9316 30.9538 13.1504 31.7871C12.3626 32.6139 11.3079 33.0273 9.98632 33.0273ZM10.0351 31.4062C11.4544 31.4062 12.4505 31.1751 13.0234 30.7129C13.5898 30.2507 13.873 29.6029 13.873 28.7695C13.873 27.9167 13.5898 27.2656 13.0234 26.8164C12.4505 26.3607 11.4544 26.1328 10.0351 26.1328C8.6289 26.1328 7.62629 26.3574 7.02734 26.8066C6.42838 27.2559 6.1289 27.9102 6.1289 28.7695C6.1289 29.6224 6.42838 30.2767 7.02734 30.7324C7.61978 31.1816 8.62239 31.4062 10.0351 31.4062ZM7.7207 20.4395C7.14127 20.2181 6.65624 19.86 6.26562 19.3652C5.87499 18.8639 5.67968 18.3757 5.67968 17.9004C5.67968 17.4707 5.81314 17.1322 6.08007 16.8848C6.347 16.6374 6.62043 16.5137 6.90038 16.5137C7.08918 16.5137 7.25195 16.5788 7.38866 16.709C7.52538 16.8327 7.59374 16.9857 7.59374 17.168C7.59374 17.4935 7.35286 17.7409 6.87109 17.9102C6.54557 18.0273 6.3828 18.2031 6.3828 18.4375C6.3828 18.7174 6.57486 19.0527 6.95898 19.4434C7.33658 19.834 7.73046 20.0846 8.14062 20.1953C8.55077 20.306 9.11392 20.3613 9.83007 20.3613L11.2559 20.3613C12.1087 20.3613 12.6458 20.3516 12.8672 20.332C13.0885 20.306 13.2578 20.2116 13.375 20.0488C13.4922 19.8861 13.5508 19.5964 13.5508 19.1797L13.5508 18.9062L14 18.9062L14 23.1543L13.5508 23.1543L13.5508 22.9492C13.5508 22.5586 13.4987 22.2819 13.3945 22.1191C13.2838 21.9499 13.1309 21.849 12.9355 21.8164C12.7402 21.7839 12.1803 21.7676 11.2559 21.7676L8.99999 21.7676C8.14062 21.7676 7.60351 21.7806 7.38866 21.8066C7.16731 21.8262 6.99804 21.9173 6.88085 22.0801C6.75715 22.2428 6.6953 22.5326 6.6953 22.9492L6.6953 23.1543L6.25585 23.1543C6.18424 22.5423 5.99218 21.7415 5.67968 20.752C6.194 20.5632 6.87434 20.459 7.7207 20.4395ZM5.67968 12.9395L5.67968 12.8418C6.11588 12.653 6.67577 12.5586 7.35937 12.5586C6.79947 12.1224 6.37955 11.6536 6.0996 11.1523C5.81965 10.6445 5.67968 10.1009 5.67968 9.52148C5.67968 8.86393 5.82942 8.33008 6.1289 7.91992C6.42838 7.50977 6.8776 7.22331 7.47655 7.06055C6.8776 6.56575 6.42838 6.05794 6.1289 5.53711C5.82942 5.01628 5.67968 4.48568 5.67968 3.94531C5.67968 3.32682 5.82291 2.80273 6.10937 2.37305C6.39582 1.94336 6.72135 1.68294 7.08593 1.5918C7.45051 1.50065 8.03971 1.45508 8.85351 1.45508L11.2559 1.45508C12.1868 1.45508 12.7532 1.4388 12.9551 1.40625C13.1569 1.36719 13.3066 1.26302 13.4043 1.09375C13.5019 0.917968 13.5508 0.595702 13.5508 0.126952L14 0.126952L14 4.12109L13.5508 4.12109C13.5508 3.69792 13.5052 3.40169 13.4141 3.23242C13.3164 3.05664 13.1732 2.94922 12.9844 2.91016C12.7891 2.87109 12.2129 2.85156 11.2559 2.85156L8.58984 2.85156C8.04947 2.85156 7.64257 2.88411 7.36913 2.94922C7.09569 3.00781 6.86132 3.16732 6.66601 3.42773C6.47069 3.68815 6.37304 4.02669 6.37304 4.44336C6.37304 4.86654 6.51627 5.29297 6.80273 5.72266C7.08918 6.14583 7.52213 6.57227 8.10155 7.00195L11.2559 7.00195C12.1087 7.00195 12.6458 6.99219 12.8672 6.97266C13.082 6.94661 13.2513 6.85547 13.375 6.69922C13.4922 6.53646 13.5508 6.25 13.5508 5.83984L14 5.83984L14 9.70703L13.5508 9.70703C13.5508 9.27083 13.5052 8.9681 13.4141 8.79883C13.3229 8.62305 13.1829 8.51562 12.9941 8.47656C12.8053 8.43099 12.2259 8.4082 11.2559 8.4082L9.03905 8.4082C8.33593 8.4082 7.82812 8.4375 7.51562 8.49609C7.19661 8.54818 6.92642 8.71419 6.70507 8.99414C6.47721 9.27409 6.36327 9.6224 6.36327 10.0391C6.36327 10.4427 6.49348 10.8561 6.7539 11.2793C7.01431 11.696 7.40494 12.1224 7.92577 12.5586L11.2559 12.5586C12.1348 12.5586 12.6816 12.5456 12.8965 12.5195C13.1113 12.4935 13.2741 12.3958 13.3848 12.2266C13.4954 12.0573 13.5508 11.7546 13.5508 11.3184L14 11.3184L14 15.2344L13.5508 15.2344C13.5508 14.8047 13.5052 14.5052 13.4141 14.3359C13.3164 14.1602 13.1732 14.0527 12.9844 14.0137C12.7956 13.9746 12.2194 13.9551 11.2559 13.9551L8.86327 13.9551C7.95182 13.9551 7.39517 13.9714 7.19335 14.0039C6.98502 14.0299 6.82877 14.1309 6.7246 14.3066C6.62043 14.4759 6.56835 14.7852 6.56835 15.2344L6.11913 15.2344C6.02799 14.3099 5.8815 13.5449 5.67968 12.9395Z" fill="#36574A"/>
</svg>
