<svg width="206" height="40" viewBox="0 0 206 40" fill="none" xmlns="http://www.w3.org/2000/svg">
<path d="M61.9973 20.9502H61.1927L55.1196 5.30958C55.0072 5.02907 54.8298 4.54544 54.5876 3.85868C54.2502 2.93011 53.8955 2.30623 53.5235 1.98703C53.1515 1.66783 52.5502 1.49856 51.7197 1.47922V0.811803H59.2981V1.47922C58.3552 1.47922 57.7193 1.5566 57.3906 1.71136C57.0705 1.86612 56.9104 2.16114 56.9104 2.59641C56.9104 2.87691 57.1137 3.53465 57.5203 4.56962L62.5812 17.6277L66.6429 6.76048C67.3264 4.94202 67.6681 3.75712 67.6681 3.20578C67.6681 2.09343 66.963 1.51791 65.5529 1.47922V0.811803H70.9253V1.47922C70.3802 1.49856 69.9001 1.71619 69.4848 2.13212C69.0696 2.54804 68.7106 3.15742 68.4078 3.96025L67.2269 7.05066L61.9973 20.9502Z" fill="white"/>
<path d="M71.7168 1.47922V0.811803H79.7624V1.47922H79.3861C78.521 1.47922 77.9543 1.56143 77.6861 1.72587C77.4179 1.88063 77.2363 2.17565 77.1411 2.61091C77.0546 3.04618 77.0113 4.08116 77.0113 5.71583V15.3643C77.0113 16.9119 77.0416 17.9275 77.1022 18.4112C77.1714 18.8851 77.3444 19.2382 77.6212 19.4703C77.9067 19.7025 78.4474 19.8185 79.2433 19.8185H79.7624V20.486H71.7168V19.8185H72.2359C72.9886 19.8185 73.5076 19.7121 73.7931 19.4993C74.0873 19.2865 74.2733 18.9577 74.3511 18.5127C74.429 18.0581 74.4679 17.0086 74.4679 15.3643V5.71583C74.4679 4.14886 74.429 3.13807 74.3511 2.68346C74.2733 2.22884 74.1002 1.91448 73.832 1.74038C73.5639 1.56627 72.9842 1.47922 72.0932 1.47922H71.7168Z" fill="white"/>
<path d="M81.2547 20.486V19.9781L92.6093 1.47922H87.1332C85.9566 1.47922 85.1867 1.53241 84.8233 1.63881C84.4686 1.74521 84.0577 2.13212 83.5905 2.79953C83.1234 3.45727 82.7687 4.30363 82.5264 5.3386H81.9555L82.5264 0.811803H95.607V1.47922L84.3691 19.8185H89.7415C91.5669 19.8185 92.7261 19.6589 93.2193 19.3397C93.7124 19.0205 94.1579 18.4692 94.5559 17.6857C94.9625 16.9022 95.2696 16.1381 95.4772 15.3933H96.0741L95.4772 20.486H81.2547Z" fill="white"/>
<path d="M111.387 0.811803H117.265V1.47922C116.486 1.53725 115.903 1.73554 115.513 2.07408C115.133 2.40295 114.899 2.77535 114.813 3.19127C114.726 3.6072 114.683 4.41486 114.683 5.61427V12.1578C114.683 13.8312 114.622 15.0741 114.501 15.8866C114.389 16.6991 114.051 17.4971 113.489 18.2806C112.935 19.0641 112.152 19.688 111.14 20.1522C110.128 20.6165 108.96 20.8487 107.636 20.8487C106.071 20.8487 104.743 20.5537 103.653 19.9636C102.571 19.3639 101.797 18.595 101.33 17.6567C100.871 16.7088 100.642 15.4417 100.642 13.8554L100.655 11.8386V5.71583C100.655 4.14886 100.612 3.13807 100.525 2.68346C100.447 2.22884 100.274 1.91448 100.006 1.74038C99.7465 1.56627 99.1712 1.47922 98.2802 1.47922H97.8779V0.811803H105.91V1.47922H105.56C104.695 1.47922 104.128 1.56143 103.86 1.72587C103.592 1.88063 103.41 2.17565 103.315 2.61091C103.229 3.04618 103.185 4.08116 103.185 5.71583V11.9112C103.185 14.0585 103.272 15.5819 103.445 16.4815C103.627 17.381 104.128 18.1694 104.95 18.8464C105.772 19.5139 106.866 19.8476 108.233 19.8476C109.306 19.8476 110.279 19.6251 111.153 19.1801C112.035 18.7255 112.689 18.1645 113.113 17.4971C113.545 16.82 113.809 16.1284 113.904 15.4223C113.999 14.7066 114.047 13.5845 114.047 12.0562V5.35311C114.047 4.24075 113.991 3.46211 113.878 3.01717C113.766 2.57222 113.523 2.21917 113.151 1.95801C112.779 1.69685 112.191 1.53725 111.387 1.47922V0.811803Z" fill="white"/>
<path d="M127.582 13.2315H120.899L120.444 14.4792C119.77 16.288 119.432 17.4681 119.432 18.0194C119.432 18.6095 119.61 19.0592 119.964 19.3688C120.328 19.6686 120.79 19.8185 121.353 19.8185V20.486H116.123V19.8185C116.902 19.6831 117.481 19.3784 117.862 18.9045C118.243 18.4208 118.701 17.4101 119.238 15.8721C119.281 15.727 119.488 15.166 119.86 14.1891L124.973 0.536133H125.479L131.358 16.1623L132.162 18.2226C132.344 18.6868 132.586 19.0544 132.889 19.3252C133.201 19.5864 133.663 19.7508 134.278 19.8185V20.486H127.361V19.8185C128.209 19.8185 128.78 19.7508 129.074 19.6154C129.377 19.4703 129.528 19.1898 129.528 18.7739C129.528 18.5611 129.329 17.9275 128.931 16.8732L127.582 13.2315ZM127.361 12.5786L124.247 4.19239L121.145 12.5786H127.361Z" fill="white"/>
<path d="M149.953 14.6969L149.824 20.486H134.875V19.8185H135.394C136.146 19.8185 136.665 19.7121 136.951 19.4993C137.245 19.2865 137.431 18.9577 137.509 18.5127C137.595 18.0581 137.639 17.0086 137.639 15.3643V5.71583C137.639 4.14886 137.595 3.13807 137.509 2.68346C137.431 2.22884 137.258 1.91448 136.99 1.74038C136.73 1.56627 136.155 1.47922 135.264 1.47922H134.875V0.811803H143.322V1.47922H142.544C141.679 1.47922 141.112 1.56143 140.844 1.72587C140.576 1.88063 140.394 2.17565 140.299 2.61091C140.212 3.04618 140.169 4.08116 140.169 5.71583V16.0172C140.169 17.4391 140.204 18.329 140.273 18.6868C140.342 19.0447 140.528 19.3252 140.831 19.5284C141.142 19.7218 141.804 19.8185 142.816 19.8185H144.153C145.234 19.8185 146.034 19.7121 146.554 19.4993C147.081 19.2865 147.579 18.8223 148.046 18.1065C148.522 17.3907 148.954 16.2542 149.344 14.6969H149.953Z" fill="white"/>
<path d="M163.242 0.811803H169.12V1.47922C168.341 1.53725 167.757 1.73554 167.368 2.07408C166.988 2.40295 166.754 2.77535 166.667 3.19127C166.581 3.6072 166.538 4.41486 166.538 5.61427V12.1578C166.538 13.8312 166.477 15.0741 166.356 15.8866C166.244 16.6991 165.906 17.4971 165.344 18.2806C164.79 19.0641 164.007 19.688 162.995 20.1522C161.983 20.6165 160.815 20.8487 159.491 20.8487C157.925 20.8487 156.598 20.5537 155.507 19.9636C154.426 19.3639 153.652 18.595 153.185 17.6567C152.726 16.7088 152.497 15.4417 152.497 13.8554L152.51 11.8386V5.71583C152.51 4.14886 152.467 3.13807 152.38 2.68346C152.302 2.22884 152.129 1.91448 151.861 1.74038C151.601 1.56627 151.026 1.47922 150.135 1.47922H149.733V0.811803H157.765V1.47922H157.415C156.55 1.47922 155.983 1.56143 155.715 1.72587C155.447 1.88063 155.265 2.17565 155.17 2.61091C155.084 3.04618 155.04 4.08116 155.04 5.71583V11.9112C155.04 14.0585 155.127 15.5819 155.3 16.4815C155.482 17.381 155.983 18.1694 156.805 18.8464C157.627 19.5139 158.721 19.8476 160.088 19.8476C161.161 19.8476 162.134 19.6251 163.008 19.1801C163.89 18.7255 164.544 18.1645 164.967 17.4971C165.4 16.82 165.664 16.1284 165.759 15.4223C165.854 14.7066 165.902 13.5845 165.902 12.0562V5.35311C165.902 4.24075 165.846 3.46211 165.733 3.01717C165.621 2.57222 165.378 2.21917 165.006 1.95801C164.634 1.69685 164.046 1.53725 163.242 1.47922V0.811803Z" fill="white"/>
<path d="M180.721 9.57522L185.276 15.7705C186.902 17.9759 187.936 19.2043 188.377 19.4558C188.819 19.6976 189.394 19.8185 190.103 19.8185V20.486H181.383V19.8185C182.257 19.8185 182.867 19.7315 183.213 19.5574C183.567 19.3736 183.745 19.0737 183.745 18.6578C183.745 18.4063 183.663 18.1355 183.498 17.8453C183.343 17.5455 182.932 16.9409 182.265 16.0317L179.125 11.708L176.361 15.4513C175.712 16.3316 175.288 16.9506 175.089 17.3085C174.89 17.6664 174.791 18.0049 174.791 18.3241C174.791 19.3107 175.466 19.8089 176.815 19.8185V20.486H170.002V19.8185C170.738 19.7702 171.4 19.5912 171.988 19.2817C172.585 18.9625 173.134 18.5224 173.636 17.9614C174.138 17.4004 174.851 16.4621 175.777 15.1467L178.723 11.1857L172.598 2.95913C172.304 2.53353 171.958 2.18048 171.56 1.89998C171.17 1.61947 170.651 1.47922 170.002 1.47922V0.811803H177.503V1.47922H177.256C176.27 1.47922 175.777 1.77907 175.777 2.37877C175.777 2.62059 175.851 2.87691 175.998 3.14775C176.153 3.41858 176.508 3.92156 177.062 4.65668L180.293 9.03838L183.213 4.94686C183.836 4.08599 184.212 3.53949 184.342 3.30734C184.48 3.06553 184.549 2.82371 184.549 2.5819C184.549 2.17565 184.376 1.8903 184.03 1.72587C183.684 1.56143 183.096 1.47922 182.265 1.47922V0.811803H188.871V1.47922C187.746 1.47922 186.799 1.85161 186.029 2.59641C185.267 3.33153 184.424 4.35199 183.498 5.6578L180.721 9.57522Z" fill="white"/>
<path d="M205.377 14.3632H206L205.624 20.486H191.051V19.8185H191.414C192.288 19.8185 192.85 19.688 193.101 19.4268C193.361 19.1656 193.525 18.8368 193.594 18.4402C193.663 18.0339 193.698 17.0086 193.698 15.3643V5.71583C193.698 4.21657 193.659 3.22996 193.581 2.756C193.512 2.28204 193.343 1.95317 193.075 1.76939C192.816 1.57594 192.262 1.47922 191.414 1.47922V0.811803H203.988L204.404 5.71583H203.794C203.517 4.34232 203.175 3.37022 202.769 2.79953C202.371 2.21917 201.895 1.85645 201.341 1.71136C200.788 1.5566 199.896 1.47922 198.668 1.47922H196.228V9.73481H198.097C198.954 9.73481 199.55 9.6526 199.888 9.48816C200.234 9.32373 200.459 9.07707 200.563 8.7482C200.675 8.40966 200.731 7.75676 200.731 6.78949H201.341V13.5217H200.731C200.731 12.4286 200.649 11.6984 200.485 11.3308C200.32 10.9536 200.078 10.7118 199.758 10.6054C199.447 10.4893 198.915 10.4312 198.162 10.4312H196.228V15.0886C196.228 17.4197 196.362 18.7932 196.631 19.2092C196.899 19.6154 197.621 19.8185 198.798 19.8185H200.108C201.034 19.8185 201.795 19.688 202.392 19.4268C202.989 19.156 203.556 18.6095 204.092 17.7873C204.637 16.9554 205.066 15.8141 205.377 14.3632Z" fill="white"/>
<path d="M59.6917 39.8873L56.4751 30.1425H57.5504L59.4414 35.8007C59.5094 35.9963 59.565 36.1849 59.6082 36.3666C59.6515 36.5412 59.6978 36.7508 59.7473 36.9953C59.7967 36.7508 59.8431 36.5412 59.8863 36.3666C59.9358 36.1849 59.9914 35.9963 60.0532 35.8007L61.9627 29.8281L63.863 35.8007C63.9186 35.9754 63.9712 36.1535 64.0206 36.3351C64.0762 36.5098 64.1257 36.7298 64.1689 36.9953C64.2184 36.7298 64.2678 36.5098 64.3172 36.3351C64.3667 36.1535 64.4223 35.9754 64.4841 35.8007L66.3751 30.1425H67.3762L64.1689 39.8873L62.2408 33.768C62.1852 33.5863 62.1327 33.4117 62.0832 33.244C62.0338 33.0694 61.9844 32.8494 61.9349 32.5839C61.8855 32.8494 61.8361 33.0694 61.7866 33.244C61.7372 33.4117 61.6846 33.5863 61.629 33.768L59.6917 39.8873Z" fill="#FFF6E1"/>
<path d="M72.9225 39.5729V30.1425H77.0383V31.2113H73.9793V33.2231H76.3894V34.2919H73.9793V38.5041H77.0383V39.5729H72.9225Z" fill="#FFF6E1"/>
<path d="M83.0339 39.5729V30.1425H85.3698C85.9013 30.1425 86.3215 30.2612 86.6305 30.4987C86.9457 30.7362 87.1712 31.0261 87.3072 31.3684C87.4431 31.7037 87.5111 32.0216 87.5111 32.322C87.5111 32.6642 87.4401 32.9786 87.2979 33.265C87.162 33.5444 86.9766 33.7749 86.7417 33.9566C87.1929 34.1871 87.5575 34.5329 87.8356 34.9939C88.1198 35.4549 88.262 35.9789 88.262 36.5656C88.262 37.0616 88.1507 37.5401 87.9283 38.0012C87.712 38.4622 87.3875 38.8394 86.9549 39.1328C86.5285 39.4262 86.0002 39.5729 85.3698 39.5729H83.0339ZM84.0906 38.5041H85.2957C85.753 38.5041 86.1207 38.4028 86.3988 38.2003C86.6769 37.9977 86.8808 37.7427 87.0106 37.4353C87.1403 37.128 87.2052 36.8241 87.2052 36.5237C87.2052 36.2303 87.1434 35.93 87.0198 35.6226C86.8962 35.3152 86.6954 35.0603 86.4173 34.8577C86.1392 34.6481 85.7653 34.5433 85.2957 34.5433H84.0906V38.5041ZM84.0906 33.5374H85.2864C85.651 33.5374 85.9446 33.4396 86.167 33.244C86.3957 33.0415 86.51 32.7551 86.51 32.3848C86.51 32.0006 86.3988 31.7107 86.1763 31.5151C85.9538 31.3125 85.6696 31.2113 85.3235 31.2113H84.0906V33.5374Z" fill="#FFF6E1"/>
<path d="M101.301 39.5729V30.1425H104.036C104.79 30.1425 105.445 30.2822 106.001 30.5616C106.563 30.841 107.027 31.2113 107.391 31.6723C107.756 32.1333 108.028 32.6433 108.207 33.2021C108.386 33.754 108.476 34.3058 108.476 34.8577C108.476 35.4095 108.386 35.9649 108.207 36.5237C108.028 37.0756 107.756 37.582 107.391 38.0431C107.027 38.5041 106.563 38.8744 106.001 39.1538C105.445 39.4332 104.79 39.5729 104.036 39.5729H101.301ZM102.358 38.5041H103.925C104.567 38.5041 105.108 38.3924 105.547 38.1688C105.986 37.9383 106.341 37.6414 106.613 37.2782C106.885 36.9079 107.079 36.5098 107.197 36.0836C107.32 35.6575 107.382 35.2489 107.382 34.8577C107.382 34.4665 107.32 34.0578 107.197 33.6317C107.079 33.2056 106.885 32.8109 106.613 32.4477C106.341 32.0775 105.986 31.7806 105.547 31.557C105.108 31.3265 104.567 31.2113 103.925 31.2113H102.358V38.5041Z" fill="#FFF6E1"/>
<path d="M114.476 39.5729V30.1425H118.592V31.2113H115.533V33.2231H117.943V34.2919H115.533V38.5041H118.592V39.5729H114.476Z" fill="#FFF6E1"/>
<path d="M126.386 39.6986C125.891 39.6986 125.443 39.5869 125.041 39.3633C124.646 39.1398 124.331 38.8674 124.096 38.546L124.402 37.1C124.575 37.4912 124.834 37.844 125.181 38.1583C125.527 38.4727 125.941 38.6299 126.423 38.6299C126.861 38.6299 127.223 38.4727 127.507 38.1583C127.798 37.844 127.943 37.4563 127.943 36.9953C127.943 36.6599 127.872 36.384 127.73 36.1675C127.588 35.9509 127.427 35.7798 127.248 35.654C127.068 35.5283 126.926 35.4375 126.821 35.3816L125.802 34.7948C125.641 34.697 125.44 34.5608 125.199 34.3862C124.964 34.2115 124.757 33.9705 124.578 33.6632C124.399 33.3558 124.309 32.9576 124.309 32.4686C124.309 31.9936 124.405 31.571 124.597 31.2008C124.794 30.8305 125.066 30.5406 125.412 30.3311C125.765 30.1215 126.166 30.0167 126.617 30.0167C127.062 30.0167 127.455 30.1075 127.795 30.2892C128.134 30.4638 128.4 30.6454 128.592 30.834L128.286 32.28C128.131 31.9866 127.903 31.7107 127.6 31.4523C127.297 31.1938 126.954 31.0646 126.571 31.0646C126.2 31.0646 125.904 31.1903 125.681 31.4418C125.459 31.6863 125.347 31.9901 125.347 32.3534C125.347 32.6328 125.403 32.8633 125.514 33.045C125.632 33.2266 125.761 33.3698 125.904 33.4746C126.052 33.5793 126.172 33.6597 126.265 33.7156L127.303 34.3023C127.427 34.3722 127.581 34.47 127.767 34.5957C127.958 34.7215 128.147 34.8891 128.332 35.0987C128.518 35.3013 128.672 35.5527 128.796 35.8531C128.919 36.1465 128.981 36.5028 128.981 36.9219C128.981 37.4598 128.867 37.9383 128.638 38.3574C128.416 38.7766 128.11 39.1049 127.72 39.3424C127.331 39.5799 126.886 39.6986 126.386 39.6986Z" fill="#FFF6E1"/>
<path d="M135.084 39.5729V30.1425H136.14V39.5729H135.084Z" fill="#FFF6E1"/>
<path d="M146.59 39.7615C145.985 39.7615 145.419 39.6358 144.894 39.3843C144.369 39.1258 143.905 38.7731 143.504 38.326C143.108 37.8719 142.799 37.3515 142.577 36.7647C142.354 36.171 142.243 35.5353 142.243 34.8577C142.243 34.1801 142.354 33.5479 142.577 32.9611C142.805 32.3674 143.117 31.8469 143.513 31.3999C143.914 30.9458 144.378 30.593 144.903 30.3416C145.429 30.0831 145.994 29.9539 146.6 29.9539C147.193 29.9539 147.749 30.0796 148.268 30.3311C148.787 30.5756 149.245 30.9144 149.64 31.3475L149.334 32.7935C149.05 32.2765 148.667 31.8644 148.185 31.557C147.709 31.2427 147.18 31.0855 146.6 31.0855C145.988 31.0855 145.435 31.2567 144.94 31.599C144.452 31.9343 144.063 32.3883 143.772 32.9611C143.482 33.527 143.337 34.1591 143.337 34.8577C143.337 35.5423 143.479 36.171 143.763 36.7438C144.054 37.3166 144.443 37.7741 144.931 38.1164C145.425 38.4587 145.979 38.6299 146.59 38.6299C146.936 38.6299 147.264 38.5845 147.573 38.4936C147.888 38.3958 148.175 38.2596 148.435 38.085V35.6121H146.136V34.5433H149.455V38.6927C149.078 39.049 148.639 39.3179 148.138 39.4996C147.644 39.6742 147.128 39.7615 146.59 39.7615Z" fill="#FFF6E1"/>
<path d="M162.675 39.8873L156.835 32.8144V39.5729H155.834V29.8281L161.674 36.9009V30.1425H162.675V39.8873Z" fill="#FFF6E1"/>
<path d="M45.9387 1.03125L45.8169 1.59813L27.1805 37.5544C24.0189 41.2858 19.4571 40.643 17.0494 36.3386C15.2606 33.1406 13.5293 29.6017 11.8583 26.3044C11.5326 25.6618 10.8879 24.5904 10.6685 23.9797C10.6144 23.8292 10.5824 23.7023 10.6035 23.5376L11.7353 24.7542C14.9556 27.4063 18.6376 26.4295 20.7357 22.7411C24.1788 16.6882 27.0383 9.9945 30.4493 3.89282C31.2849 2.58505 33.2901 1.03125 34.7603 1.03125L45.9387 1.03125Z" fill="#36574A"/>
<path d="M19.1728 0.392265C19.0114 0.313771 18.8455 0.298126 18.6745 0.270983L2.45383 7.34435e-07C1.30292 -0.00123159 0.659722 1.54864 1.44901 2.4959C1.60543 2.68363 1.83112 2.84163 2.01696 2.99984C3.56566 4.31832 5.40537 5.52718 6.87931 6.89851C7.51111 7.48633 7.65405 8.06072 7.65037 8.94331C7.6407 11.258 7.37546 13.626 7.36457 15.9475C7.39898 17.2975 8.96732 17.9022 9.75375 16.8735L19.7319 2.62763C20.2174 1.88278 19.9295 0.760389 19.1728 0.392265Z" fill="#36574A"/>
</svg>
