<svg width="126" height="167" viewBox="0 0 126 167" fill="none" xmlns="http://www.w3.org/2000/svg">
<path d="M33.8253 124.451C31.0375 124.747 28.0421 124.895 24.8391 124.895C5.44326 124.895 -10.3937 119.15 -22.6718 107.662C-34.8906 96.1138 -41 80.7759 -41 61.6479C-41 43.1121 -34.8016 28.2183 -22.4049 16.9665C-9.94885 5.6555 5.6212 0 24.3053 0C35.8123 0 46.9338 2.51684 57.6697 7.55053C68.4056 12.525 76.5317 19.9275 82.048 29.758C87.5642 39.5293 90.3223 50.3665 90.3223 62.2697C90.3223 76.1271 86.7041 88.3856 79.4678 99.0452C72.2907 109.705 61.881 117.166 48.2387 121.43L21.6361 136.087C23.4749 135.91 25.0764 135.821 26.4406 135.821C39.6084 135.821 54.7633 138.782 71.9052 144.704C85.073 149.264 95.5123 151.544 103.223 151.544C113.9 151.544 120.246 147.517 122.263 139.463H126C124.992 147.635 121.581 154.268 115.768 159.361C109.955 164.454 102.452 167 93.2584 167C87.2083 167 81.6921 166.023 76.7096 164.069C71.7865 162.114 65.3509 158.62 57.4028 153.587C43.1673 144.526 31.3044 139.996 21.8141 139.996C16.1199 139.996 10.6036 142.246 5.26532 146.747C1.70645 149.708 -0.755104 151.188 -2.11934 151.188C-4.25466 151.188 -5.32232 150.211 -5.32232 148.257C-5.32232 146.776 -4.04706 145.237 -1.49654 143.638C1.05399 142.098 5.85846 139.611 12.9169 136.176C14.3998 135.465 15.8826 134.696 17.3655 133.866L33.8253 124.451ZM-20.6255 62.2697C-20.6255 81.6346 -16.77 96.173 -9.05914 105.885C-1.28894 115.597 10.3367 120.453 25.8178 120.453C39.4008 120.453 50.1367 115.597 58.0256 105.885C65.9144 96.173 69.8588 81.6938 69.8588 62.4473C69.8588 43.7339 65.9737 29.4027 58.2035 19.4537C50.4333 9.44557 39.1636 4.44149 24.3942 4.44149C9.86219 4.44149 -1.28894 9.32713 -9.05914 19.0984C-16.77 28.8105 -20.6255 43.2009 -20.6255 62.2697Z" fill="url(#paint0_linear_7391_13096)"/>
<defs>
<linearGradient id="paint0_linear_7391_13096" x1="42.5" y1="1.49771e-07" x2="37.3457" y2="167" gradientUnits="userSpaceOnUse">
<stop offset="0.42525" stop-color="#F0F1F3"/>
<stop offset="1" stop-color="#F0F1F3" stop-opacity="0"/>
</linearGradient>
</defs>
</svg>
