<svg width="17" height="19" viewBox="0 0 17 19" fill="none" xmlns="http://www.w3.org/2000/svg">
<g clip-path="url(#clip0_7386_32211)">
<path d="M8.26255 12.1048L7.30135 12.3856C7.21135 12.4108 7.16095 12.5044 7.18975 12.5908C7.21135 12.6628 7.27615 12.7096 7.34815 12.7096C7.36255 12.7096 7.38055 12.7096 7.39495 12.7024L8.35615 12.4216C8.44615 12.3964 8.49655 12.3028 8.46775 12.2164C8.44255 12.1264 8.34895 12.076 8.26255 12.1048Z" fill="#BA8B4A"/>
<path d="M10.2754 12.5549L9.31424 12.2741C9.22424 12.2489 9.13424 12.2993 9.10904 12.3857C9.08384 12.4757 9.13424 12.5657 9.22064 12.5909L10.1818 12.8717C10.1818 12.8717 10.2142 12.8789 10.2286 12.8789C10.3006 12.8789 10.369 12.8321 10.387 12.7601C10.4122 12.6701 10.3618 12.5801 10.2754 12.5549Z" fill="#BA8B4A"/>
<path d="M2.50669 13.7855L1.54549 14.0663C1.45549 14.0915 1.40509 14.1851 1.43389 14.2715C1.45549 14.3435 1.52029 14.3903 1.59229 14.3903C1.60669 14.3903 1.62469 14.3903 1.63909 14.3831L2.60029 14.1023C2.69029 14.0771 2.74069 13.9835 2.71189 13.8971C2.68669 13.8071 2.59309 13.7567 2.50669 13.7855Z" fill="#BA8B4A"/>
<path d="M6.34361 12.6663L5.38241 12.9471C5.29241 12.9723 5.24201 13.0659 5.27081 13.1523C5.29241 13.2243 5.35721 13.2711 5.42921 13.2711C5.44361 13.2711 5.46161 13.2711 5.47601 13.2639L6.43721 12.9831C6.52721 12.9579 6.57761 12.8643 6.54881 12.7779C6.52361 12.6879 6.43001 12.6375 6.34361 12.6663Z" fill="#BA8B4A"/>
<path d="M12.1973 13.1164L11.2361 12.8356C11.1461 12.8104 11.0561 12.8608 11.0309 12.9472C11.0057 13.0372 11.0561 13.1272 11.1425 13.1524L12.1037 13.4332C12.1037 13.4332 12.1361 13.4404 12.1505 13.4404C12.2225 13.4404 12.2909 13.3936 12.3089 13.3216C12.3341 13.2316 12.2837 13.1416 12.1973 13.1164Z" fill="#BA8B4A"/>
<path d="M0.875786 14.4806C0.875786 14.4806 0.879386 14.495 0.886586 14.4986L3.74499 18.0338C3.74499 18.0338 3.74859 18.0338 3.75219 18.0374C3.76299 18.0482 3.77739 18.059 3.79179 18.0698C3.79899 18.0698 3.80259 18.077 3.80619 18.0806C3.82779 18.0914 3.84939 18.095 3.87459 18.095H13.1302C13.1554 18.095 13.177 18.0878 13.1986 18.0806C13.2058 18.0806 13.2094 18.0734 13.213 18.0698C13.2274 18.0626 13.2418 18.0518 13.2526 18.0374C13.2526 18.0374 13.2562 18.0374 13.2598 18.0338L16.1182 14.4986C16.1182 14.4986 16.1254 14.4842 16.129 14.4806C16.1362 14.4698 16.1398 14.4626 16.1434 14.4482C16.1434 14.4482 16.1434 14.4446 16.147 14.441C16.147 14.441 16.147 14.423 16.147 14.4158C16.147 14.4086 16.1506 14.4014 16.1506 14.3942V2.44943C16.1506 2.44943 16.147 2.42783 16.1434 2.41703C16.1434 2.40983 16.1434 2.40623 16.1434 2.39903C16.1434 2.39903 16.1434 2.39543 16.1434 2.39183C16.1362 2.36663 16.1218 2.34503 16.1038 2.33063C16.1038 2.33063 16.1038 2.33063 16.1002 2.33063C16.0822 2.31623 16.0642 2.30543 16.0426 2.29463C16.0426 2.29463 16.039 2.29463 16.0354 2.29103L8.54738 0.105833C8.54738 0.105833 8.53658 0.105833 8.53299 0.105833C8.52218 0.105833 8.51138 0.0986328 8.50059 0.0986328C8.48979 0.0986328 8.47898 0.102233 8.46818 0.105833C8.46458 0.105833 8.45738 0.105833 8.45378 0.105833L0.965786 2.29103C0.965786 2.29103 0.962186 2.29103 0.958586 2.29463C0.936986 2.30183 0.915386 2.31263 0.900986 2.33063C0.900986 2.33063 0.900986 2.33063 0.897386 2.33063C0.879386 2.34863 0.868586 2.37023 0.857786 2.39183C0.857786 2.39183 0.857786 2.39543 0.857786 2.39903C0.857786 2.40623 0.857786 2.40983 0.857786 2.41703C0.857786 2.42783 0.850586 2.43863 0.850586 2.44943V14.3942C0.850586 14.3942 0.850586 14.4086 0.854186 14.4158C0.854186 14.4266 0.854186 14.4374 0.861386 14.4482C0.864986 14.459 0.872186 14.4698 0.879386 14.4806H0.875786ZM1.18179 2.92103L3.70899 6.04583V13.4366L3.46779 13.5086C3.37779 13.5338 3.32739 13.6274 3.35619 13.7138C3.37779 13.7858 3.44259 13.8326 3.51459 13.8326C3.52899 13.8326 3.54699 13.8326 3.56139 13.8254L3.70899 13.7822V17.4614L1.18179 14.3366V2.92103ZM4.04019 13.685L4.51899 13.5446C4.60899 13.5194 4.65939 13.4258 4.63059 13.3394C4.60539 13.2494 4.51179 13.199 4.42539 13.2278L4.04019 13.3394V6.15383H8.37818C8.35298 6.18263 8.33498 6.22223 8.33498 6.26543V7.26623C8.33498 7.35983 8.41058 7.43183 8.50059 7.43183C8.59058 7.43183 8.66618 7.35623 8.66618 7.26623V6.26543C8.66618 6.22223 8.64818 6.18263 8.62298 6.15383H12.961V13.4834C12.961 13.4834 12.9502 13.4978 12.9466 13.5086C12.9358 13.5518 12.9394 13.595 12.961 13.631V17.7638H4.04019V13.685ZM15.823 14.171L15.0778 13.955C14.9878 13.9298 14.8978 13.9802 14.8726 14.0666C14.8474 14.1566 14.8978 14.2466 14.9842 14.2718L15.7042 14.4806L13.2994 17.4542V13.775L14.0266 13.9874C14.0266 13.9874 14.059 13.9946 14.0734 13.9946C14.1454 13.9946 14.2138 13.9478 14.2318 13.8758C14.257 13.7858 14.2066 13.6958 14.1202 13.6706L13.2994 13.433V6.04223L15.8266 2.91743V14.171H15.823ZM8.33498 0.487433V1.26503C8.33498 1.35863 8.41058 1.43063 8.50059 1.43063C8.59058 1.43063 8.66618 1.35503 8.66618 1.26503V0.487433L15.7006 2.53943L13.0474 5.81903H3.95379L1.30059 2.53943L8.33498 0.487433Z" fill="#BA8B4A"/>
<path d="M8.50056 8.09766C8.40696 8.09766 8.33496 8.17326 8.33496 8.26326V9.26406C8.33496 9.35766 8.41056 9.42966 8.50056 9.42966C8.59056 9.42966 8.66616 9.35406 8.66616 9.26406V8.26326C8.66616 8.16966 8.59056 8.09766 8.50056 8.09766Z" fill="#BA8B4A"/>
<path d="M8.50056 10.0957C8.40696 10.0957 8.33496 10.1713 8.33496 10.2613V11.2621C8.33496 11.3557 8.41056 11.4277 8.50056 11.4277C8.59056 11.4277 8.66616 11.3521 8.66616 11.2621V10.2613C8.66616 10.1677 8.59056 10.0957 8.50056 10.0957Z" fill="#BA8B4A"/>
<path d="M8.50056 3.43259C8.59416 3.43259 8.66616 3.35699 8.66616 3.26699V2.26619C8.66616 2.17259 8.59056 2.10059 8.50056 2.10059C8.41056 2.10059 8.33496 2.17619 8.33496 2.26619V3.26699C8.33496 3.36059 8.41056 3.43259 8.50056 3.43259Z" fill="#BA8B4A"/>
<path d="M8.50056 5.43063C8.59416 5.43063 8.66616 5.35503 8.66616 5.26503V4.26423C8.66616 4.17063 8.59056 4.09863 8.50056 4.09863C8.41056 4.09863 8.33496 4.17423 8.33496 4.26423V5.26503C8.33496 5.35863 8.41056 5.43063 8.50056 5.43063Z" fill="#BA8B4A"/>
</g>
<defs>
<clipPath id="clip0_7386_32211">
<rect width="15.3072" height="18" fill="white" transform="translate(0.84668 0.0986328)"/>
</clipPath>
</defs>
</svg>
