<svg width="558" height="728" viewBox="0 0 558 728" fill="none" xmlns="http://www.w3.org/2000/svg">
<path d="M156.736 542.515C144.6 543.806 131.56 544.451 117.617 544.451C33.1812 544.451 -35.7619 519.41 -89.212 469.328C-142.404 418.987 -169 352.125 -169 268.74C-169 187.938 -142.017 123.011 -88.0501 73.9617C-33.8253 24.6539 33.9558 0 115.293 0C165.386 0 213.801 10.9716 260.538 32.9149C307.275 54.6 342.65 86.8695 366.664 129.723C390.678 172.319 402.685 219.562 402.685 271.451C402.685 331.86 386.934 385.298 355.432 431.766C324.188 478.234 278.871 510.762 219.482 529.349L103.673 593.243C111.678 592.468 118.65 592.081 124.589 592.081C181.912 592.081 247.886 604.989 322.509 630.804C379.833 650.682 425.278 660.621 458.846 660.621C505.324 660.621 532.953 643.067 541.733 607.957H558C553.61 643.583 538.763 672.496 513.458 694.698C488.153 716.899 455.489 728 415.466 728C389.128 728 365.115 723.74 343.425 715.221C321.993 706.702 293.977 691.471 259.376 669.528C197.405 630.03 145.762 610.281 104.448 610.281C79.6596 610.281 55.6457 620.091 32.4065 639.711C16.9137 652.618 6.19785 659.072 0.258926 659.072C-9.03676 659.072 -13.6846 654.813 -13.6846 646.294C-13.6846 639.84 -8.13301 633.128 2.97017 626.157C14.0733 619.445 34.9886 608.603 65.716 593.63C72.1714 590.532 78.6267 587.176 85.082 583.562L156.736 542.515ZM-80.3037 271.451C-80.3037 355.868 -63.5198 419.245 -29.952 461.583C3.87392 503.921 54.4837 525.089 121.877 525.089C181.008 525.089 227.745 503.921 262.087 461.583C296.43 419.245 313.601 356.126 313.601 272.226C313.601 190.648 296.688 128.174 262.862 84.8043C229.036 41.1759 179.975 19.3617 115.68 19.3617C52.418 19.3617 3.87392 40.6596 -29.952 83.2553C-63.5198 125.593 -80.3037 188.325 -80.3037 271.451Z" fill="url(#paint0_linear_7386_35966)"/>
<defs>
<linearGradient id="paint0_linear_7386_35966" x1="194.5" y1="6.52892e-07" x2="172" y2="728" gradientUnits="userSpaceOnUse">
<stop offset="0.42525" stop-color="#F0F1F3"/>
<stop offset="1" stop-color="#F0F1F3" stop-opacity="0"/>
</linearGradient>
</defs>
</svg>
