<svg width="65" height="64" viewBox="0 0 65 64" fill="none" xmlns="http://www.w3.org/2000/svg">
<path d="M33.6 0H31.5V4.1H33.6V0Z" fill="#1D1F21"/>
<path d="M23.5979 2.04277L21.7793 3.09277L23.8293 6.64337L25.6479 5.59337L23.5979 2.04277Z" fill="#1D1F21"/>
<path d="M16.0812 8.86109L15.0312 10.6797L18.5818 12.7297L19.6318 10.9111L16.0812 8.86109Z" fill="#1D1F21"/>
<path d="M17.0004 18.5996H12.9004V20.6996H17.0004V18.5996Z" fill="#1D1F21"/>
<path d="M18.5393 26.5299L14.9883 28.5791L16.0379 30.3979L19.5889 28.3487L18.5393 26.5299Z" fill="#1D1F21"/>
<path d="M46.4387 26.3845L45.3887 28.2031L48.9393 30.2531L49.9893 28.4345L46.4387 26.3845Z" fill="#1D1F21"/>
<path d="M52.1 18.5996H48V20.6996H52.1V18.5996Z" fill="#1D1F21"/>
<path d="M48.9123 8.94008L45.3613 10.9893L46.4109 12.8081L49.9619 10.7589L48.9123 8.94008Z" fill="#1D1F21"/>
<path d="M41.4046 2.14137L39.3555 5.69238L41.1743 6.74196L43.2235 3.19095L41.4046 2.14137Z" fill="#1D1F21"/>
<path d="M41.8013 40.2999H36.6013V38.1999H39.7013V28.3999L40.0013 28.0999C44.7013 23.8999 45.1013 16.6999 40.9013 12.0999C36.7013 7.49989 29.5013 6.99989 24.9013 11.1999C20.3013 15.3999 19.8013 22.5999 24.0013 27.1999C24.3013 27.4999 24.6013 27.7999 24.9013 28.0999L25.2013 28.3999V38.1999H28.3013V40.2999H23.1013V29.2999C17.8013 24.1999 17.6013 15.6999 22.7013 10.2999C27.8013 4.89989 36.3013 4.79989 41.7013 9.89989C47.1013 14.9999 47.2013 23.4999 42.1013 28.8999C42.0013 28.9999 41.8013 29.1999 41.7013 29.2999V40.2999H41.8013Z" fill="#1D1F21"/>
<path d="M28.2996 29.9004H21.0996V32.0004H28.2996V29.9004Z" fill="#1D1F21"/>
<path d="M28.2996 34.0996H21.0996V36.1996H28.2996V34.0996Z" fill="#1D1F21"/>
<path d="M43.7996 29.9004H36.5996V32.0004H43.7996V29.9004Z" fill="#1D1F21"/>
<path d="M43.7996 34.0996H36.5996V36.1996H43.7996V34.0996Z" fill="#1D1F21"/>
<path d="M32.5008 64C29.7008 64 27.3008 61.7 27.3008 58.8V23.4L32.5008 17L37.7008 23.5V59C37.6008 61.7 35.3008 64 32.5008 64ZM29.4008 24.1V58.8C29.5008 60.5 31.0008 61.8 32.7008 61.7C34.3008 61.6 35.5008 60.4 35.6008 58.8V24.1L32.5008 20.2L29.4008 24.1Z" fill="#1D1F21"/>
<path d="M39.7008 55.7002H25.3008V57.8002H39.7008V55.7002Z" fill="#1D1F21"/>
<path d="M39.7008 51.5996H25.3008V53.6996H39.7008V51.5996Z" fill="#1D1F21"/>
<path d="M36.7004 23.7002H28.4004V25.8002H36.7004V23.7002Z" fill="#1D1F21"/>
<path d="M33.6 24.7998H31.5V52.6998H33.6V24.7998Z" fill="#1D1F21"/>
<path d="M25.3012 45.4004H23.2012V47.5004H25.3012V45.4004Z" fill="#1D1F21"/>
<path d="M21.1996 45.4004H19.0996V47.5004H21.1996V45.4004Z" fill="#1D1F21"/>
<path d="M17.0004 45.4004H14.9004V47.5004H17.0004V45.4004Z" fill="#1D1F21"/>
<path d="M50.1 45.4004H48V47.5004H50.1V45.4004Z" fill="#1D1F21"/>
<path d="M46.0004 45.4004H43.9004V47.5004H46.0004V45.4004Z" fill="#1D1F21"/>
<path d="M41.8012 45.4004H39.7012V47.5004H41.8012V45.4004Z" fill="#1D1F21"/>
</svg>
