<svg width="128" height="167" viewBox="0 0 128 167" fill="none" xmlns="http://www.w3.org/2000/svg">
<path d="M92.1747 124.451C94.9625 124.747 97.9579 124.895 101.161 124.895C120.557 124.895 136.394 119.15 148.672 107.662C160.891 96.1138 167 80.7759 167 61.6479C167 43.1121 160.802 28.2183 148.405 16.9665C135.949 5.6555 120.379 0 101.695 0C90.1877 0 79.0662 2.51684 68.3303 7.55053C57.5944 12.525 49.4683 19.9275 43.952 29.758C38.4358 39.5293 35.6777 50.3665 35.6777 62.2697C35.6777 76.1271 39.2959 88.3856 46.5322 99.0452C53.7093 109.705 64.119 117.166 77.7613 121.43L104.364 136.087C102.525 135.91 100.924 135.821 99.5594 135.821C86.3916 135.821 71.2367 138.782 54.0948 144.704C40.927 149.264 30.4877 151.544 22.7768 151.544C12.1002 151.544 5.75351 147.517 3.73682 139.463H0C1.00835 147.635 4.41893 154.268 10.2318 159.361C16.0446 164.454 23.5479 167 32.7416 167C38.7917 167 44.3079 166.023 49.2904 164.069C54.2135 162.114 60.6491 158.62 68.5972 153.587C82.8327 144.526 94.6956 139.996 104.186 139.996C109.88 139.996 115.396 142.246 120.735 146.747C124.294 149.708 126.755 151.188 128.119 151.188C130.255 151.188 131.322 150.211 131.322 148.257C131.322 146.776 130.047 145.237 127.497 143.638C124.946 142.098 120.142 139.611 113.083 136.176C111.6 135.465 110.117 134.696 108.635 133.866L92.1747 124.451ZM146.625 62.2697C146.625 81.6346 142.77 96.173 135.059 105.885C127.289 115.597 115.663 120.453 100.182 120.453C86.5992 120.453 75.8633 115.597 67.9744 105.885C60.0856 96.173 56.1412 81.6938 56.1412 62.4473C56.1412 43.7339 60.0263 29.4027 67.7965 19.4537C75.5667 9.44557 86.8364 4.44149 101.606 4.44149C116.138 4.44149 127.289 9.32713 135.059 19.0984C142.77 28.8105 146.625 43.2009 146.625 62.2697Z" fill="url(#paint0_linear_7391_13098)"/>
<defs>
<linearGradient id="paint0_linear_7391_13098" x1="83.5" y1="1.49771e-07" x2="88.6543" y2="167" gradientUnits="userSpaceOnUse">
<stop offset="0.42525" stop-color="#F0F1F3"/>
<stop offset="1" stop-color="#F0F1F3" stop-opacity="0"/>
</linearGradient>
</defs>
</svg>
