<svg width="46" height="327" viewBox="0 0 46 327" fill="none" xmlns="http://www.w3.org/2000/svg">
<path d="M29.3633 125.848L25.1055 125.848L25.1055 125.359C27.8789 124.806 29.2656 123.494 29.2656 121.424C29.2656 120.493 29.002 119.773 28.4746 119.266C27.9408 118.751 27.3451 118.494 26.6875 118.494C26.0234 118.494 25.4668 118.719 25.0176 119.168C24.5749 119.617 24.0996 120.437 23.5918 121.629C23.1361 122.69 22.7389 123.491 22.4004 124.031C22.0553 124.572 21.6094 124.995 21.0625 125.301C20.5156 125.6 19.9329 125.75 19.3145 125.75C18.3704 125.75 17.5859 125.424 16.9609 124.773C16.3294 124.116 16.0137 123.286 16.0137 122.283C16.0137 121.723 16.1048 121.196 16.2871 120.701C16.4694 120.206 16.847 119.699 17.4199 119.178C17.0618 118.878 16.6745 118.709 16.2578 118.67L16.2578 118.24L19.7246 118.24L19.7246 118.67C18.7155 118.917 17.9212 119.357 17.3418 119.988C16.7624 120.613 16.4727 121.339 16.4727 122.166C16.4727 122.954 16.6875 123.533 17.1172 123.904C17.5404 124.269 18.0059 124.451 18.5137 124.451C19.1257 124.451 19.6432 124.22 20.0664 123.758C20.4961 123.302 20.9779 122.479 21.5117 121.287C22.0195 120.148 22.4297 119.321 22.7422 118.807C23.0482 118.286 23.4746 117.869 24.0215 117.557C24.5684 117.244 25.1999 117.088 25.916 117.088C27.0488 117.088 27.9701 117.465 28.6797 118.221C29.3893 118.976 29.7441 119.985 29.7441 121.248C29.7441 122.7 29.1875 123.911 28.0742 124.881C28.3802 125.096 28.8099 125.255 29.3633 125.359L29.3633 125.848ZM27.5469 108.514L27.5469 108.084C29.0638 108.527 29.8223 109.633 29.8223 111.404C29.8223 112.544 29.4349 113.504 28.6602 114.285C27.8854 115.06 26.86 115.447 25.584 115.447C24.2754 115.447 23.2142 115.027 22.4004 114.187C21.5866 113.348 21.1797 112.355 21.1797 111.209C21.1797 110.519 21.3327 109.884 21.6387 109.305C21.9382 108.725 22.306 108.436 22.7422 108.436C22.9049 108.436 23.0579 108.491 23.2012 108.602C23.3444 108.706 23.416 108.859 23.416 109.061C23.416 109.49 23.1654 109.754 22.6641 109.852C22.2865 109.93 22.0228 110.05 21.873 110.213C21.7233 110.382 21.6484 110.711 21.6484 111.199C21.6484 112.072 21.9512 112.729 22.5566 113.172C23.1621 113.608 24.0736 113.826 25.291 113.826C26.5475 113.826 27.5306 113.592 28.2402 113.123C28.9499 112.648 29.3047 111.932 29.3047 110.975C29.3047 109.686 28.7187 108.865 27.5469 108.514ZM23.2207 104.275C22.6413 104.054 22.1562 103.696 21.7656 103.201C21.375 102.7 21.1797 102.212 21.1797 101.736C21.1797 101.307 21.3131 100.968 21.5801 100.721C21.847 100.473 22.1204 100.35 22.4004 100.35C22.5892 100.35 22.752 100.415 22.8887 100.545C23.0254 100.669 23.0937 100.822 23.0937 101.004C23.0937 101.329 22.8529 101.577 22.3711 101.746C22.0456 101.863 21.8828 102.039 21.8828 102.273C21.8828 102.553 22.0749 102.889 22.459 103.279C22.8366 103.67 23.2305 103.921 23.6406 104.031C24.0508 104.142 24.6139 104.197 25.3301 104.197L26.7559 104.197C27.6087 104.197 28.1458 104.187 28.3672 104.168C28.5885 104.142 28.7578 104.048 28.875 103.885C28.9922 103.722 29.0508 103.432 29.0508 103.016L29.0508 102.742L29.5 102.742L29.5 106.99L29.0508 106.99L29.0508 106.785C29.0508 106.395 28.9987 106.118 28.8945 105.955C28.7839 105.786 28.6309 105.685 28.4355 105.652C28.2402 105.62 27.6803 105.604 26.7559 105.604L24.5 105.604C23.6406 105.604 23.1035 105.617 22.8887 105.643C22.6673 105.662 22.498 105.753 22.3809 105.916C22.2572 106.079 22.1953 106.368 22.1953 106.785L22.1953 106.99L21.7559 106.99C21.6842 106.378 21.4922 105.577 21.1797 104.588C21.694 104.399 22.3743 104.295 23.2207 104.275ZM25.4863 99.9492C24.2624 99.9492 23.2402 99.5391 22.4199 98.7187C21.5931 97.8984 21.1797 96.8893 21.1797 95.6914C21.1797 94.487 21.5931 93.4746 22.4199 92.6543C23.2467 91.834 24.2689 91.4238 25.4863 91.4238C26.834 91.4238 27.8952 91.8405 28.6699 92.6738C29.4381 93.5072 29.8223 94.513 29.8223 95.6914C29.8223 96.8698 29.4316 97.8757 28.6504 98.709C27.8626 99.5358 26.8079 99.9492 25.4863 99.9492ZM25.5352 98.3281C26.9544 98.3281 27.9505 98.097 28.5234 97.6348C29.0898 97.1725 29.373 96.5247 29.373 95.6914C29.373 94.8385 29.0898 94.1875 28.5234 93.7383C27.9505 93.2826 26.9544 93.0547 25.5352 93.0547C24.1289 93.0547 23.1263 93.2793 22.5273 93.7285C21.9284 94.1777 21.6289 94.832 21.6289 95.6914C21.6289 96.5443 21.9284 97.1986 22.5273 97.6543C23.1198 98.1035 24.1224 98.3281 25.5352 98.3281ZM16.0723 87.625L26.7559 87.625C27.6087 87.625 28.1458 87.6152 28.3672 87.5957C28.5885 87.5697 28.7578 87.4753 28.875 87.3125C28.9922 87.1497 29.0508 86.86 29.0508 86.4434L29.0508 86.209L29.5 86.209L29.5 90.4863L29.0508 90.4863L29.0508 90.2129C29.0508 89.8223 28.9987 89.5456 28.8945 89.3828C28.7839 89.2135 28.6309 89.1126 28.4355 89.0801C28.2402 89.0475 27.6803 89.0312 26.7559 89.0312L18.8457 89.0312C18.0059 89.0312 17.4785 89.1061 17.2637 89.2559C17.0423 89.4056 16.9316 89.7702 16.9316 90.3496L16.4824 90.3496C16.4824 89.9525 16.4368 89.487 16.3457 88.9531C16.2546 88.4128 16.1634 88.0417 16.0723 87.8398L16.0723 87.625ZM16.0723 82.8203L26.7559 82.8203C27.6087 82.8203 28.1458 82.8105 28.3672 82.791C28.5885 82.765 28.7578 82.6706 28.875 82.5078C28.9922 82.3451 29.0508 82.0553 29.0508 81.6387L29.0508 81.4043L29.5 81.4043L29.5 85.6816L29.0508 85.6816L29.0508 85.4082C29.0508 85.0176 28.9987 84.7409 28.8945 84.5781C28.7839 84.4089 28.6309 84.3079 28.4355 84.2754C28.2402 84.2428 27.6803 84.2266 26.7559 84.2266L18.8457 84.2266C18.0059 84.2266 17.4785 84.3014 17.2637 84.4512C17.0423 84.6009 16.9316 84.9655 16.9316 85.5449L16.4824 85.5449C16.4824 85.1478 16.4368 84.6823 16.3457 84.1484C16.2546 83.6081 16.1634 83.237 16.0723 83.0352L16.0723 82.8203ZM16.2578 65.2324L19.5586 65.125L19.5586 65.584C18.8359 65.6751 18.2402 65.8802 17.7715 66.1992C17.2962 66.5117 17 66.8405 16.8828 67.1855C16.7656 67.5306 16.707 68.1133 16.707 68.9336L16.707 71.5215L22.3223 71.5215L22.3223 70.2812C22.3223 69.4805 22.1888 68.9499 21.9219 68.6895C21.6484 68.4225 21.1048 68.2891 20.291 68.2891L20.291 67.8008L24.959 67.8008L24.959 68.2891C24.3926 68.2891 23.9466 68.3477 23.6211 68.4648C23.2891 68.5755 23.0645 68.7448 22.9473 68.9727C22.8236 69.194 22.7617 69.6302 22.7617 70.2812L22.7617 71.5215L26.0527 71.5215C27.0944 71.5215 27.778 71.4954 28.1035 71.4434C28.4225 71.3913 28.6602 71.2611 28.8164 71.0527C28.9727 70.8379 29.0508 70.4277 29.0508 69.8223L29.0508 69.373L29.5 69.373L29.5 75.5254L29.0508 75.5254L29.0508 75.1152C29.0508 74.5488 28.9792 74.1582 28.8359 73.9434C28.6927 73.722 28.4714 73.582 28.1719 73.5234C27.8659 73.4583 27.1595 73.4258 26.0527 73.4258L19.5586 73.4258C18.5039 73.4258 17.8236 73.4583 17.5176 73.5234C17.2116 73.582 17 73.7122 16.8828 73.9141C16.7656 74.1094 16.707 74.5423 16.707 75.2129L16.707 75.4473L16.2578 75.4473L16.2578 65.2324ZM25.4863 66.1406C24.2624 66.1406 23.2402 65.7305 22.4199 64.9102C21.5931 64.0898 21.1797 63.0807 21.1797 61.8828C21.1797 60.6784 21.5931 59.666 22.4199 58.8457C23.2467 58.0254 24.2689 57.6152 25.4863 57.6152C26.834 57.6152 27.8952 58.0319 28.6699 58.8652C29.4381 59.6986 29.8223 60.7044 29.8223 61.8828C29.8223 63.0612 29.4316 64.0671 28.6504 64.9004C27.8626 65.7272 26.8079 66.1406 25.4863 66.1406ZM25.5352 64.5195C26.9544 64.5195 27.9505 64.2884 28.5234 63.8262C29.0898 63.3639 29.373 62.7161 29.373 61.8828C29.373 61.0299 29.0898 60.3789 28.5234 59.9297C27.9505 59.474 26.9544 59.2461 25.5352 59.2461C24.1289 59.2461 23.1263 59.4707 22.5273 59.9199C21.9284 60.3691 21.6289 61.0234 21.6289 61.8828C21.6289 62.7357 21.9284 63.39 22.5273 63.8457C23.1198 64.2949 24.1224 64.5195 25.5352 64.5195ZM23.2207 53.5527C22.6413 53.3314 22.1562 52.9733 21.7656 52.4785C21.375 51.9772 21.1797 51.4889 21.1797 51.0137C21.1797 50.584 21.3131 50.2454 21.5801 49.998C21.847 49.7507 22.1204 49.627 22.4004 49.627C22.5892 49.627 22.7519 49.6921 22.8887 49.8223C23.0254 49.946 23.0937 50.099 23.0937 50.2812C23.0937 50.6068 22.8529 50.8542 22.3711 51.0234C22.0456 51.1406 21.8828 51.3164 21.8828 51.5508C21.8828 51.8307 22.0749 52.166 22.459 52.5566C22.8366 52.9473 23.2305 53.1979 23.6406 53.3086C24.0508 53.4193 24.6139 53.4746 25.3301 53.4746L26.7559 53.4746C27.6087 53.4746 28.1458 53.4648 28.3672 53.4453C28.5885 53.4193 28.7578 53.3249 28.875 53.1621C28.9922 52.9993 29.0508 52.7096 29.0508 52.293L29.0508 52.0195L29.5 52.0195L29.5 56.2676L29.0508 56.2676L29.0508 56.0625C29.0508 55.6719 28.9987 55.3952 28.8945 55.2324C28.7839 55.0632 28.6309 54.9622 28.4355 54.9297C28.2402 54.8971 27.6803 54.8809 26.7559 54.8809L24.5 54.8809C23.6406 54.8809 23.1035 54.8939 22.8887 54.9199C22.6673 54.9395 22.498 55.0306 22.3809 55.1934C22.2572 55.3561 22.1953 55.6458 22.1953 56.0625L22.1953 56.2676L21.7559 56.2676C21.6842 55.6556 21.4922 54.8548 21.1797 53.8652C21.694 53.6764 22.3743 53.5723 23.2207 53.5527ZM27.2148 35.3008L16.2578 30.4766L16.2578 26.4141L16.707 26.4141L16.707 26.9023C16.707 27.5534 16.7624 27.9798 16.873 28.1816C16.9772 28.3835 17.1758 28.5202 17.4687 28.5918C17.7617 28.6569 18.4583 28.6895 19.5586 28.6895L26.0527 28.6895C27.0944 28.6895 27.778 28.6634 28.1035 28.6113C28.4225 28.5592 28.6602 28.429 28.8164 28.2207C28.9727 28.0059 29.0508 27.599 29.0508 27L29.0508 26.4141L29.5 26.4141L29.5 32.7422L29.0508 32.7422L29.0508 32.2734C29.0508 31.7135 28.9792 31.3262 28.8359 31.1113C28.6927 30.89 28.4713 30.75 28.1719 30.6914C27.8659 30.6263 27.1595 30.5937 26.0527 30.5937L17.625 30.5937L29.5 35.8379L29.5 36.2969L17.625 41.5801L25.3789 41.5801C26.4401 41.5801 27.1628 41.5475 27.5469 41.4824C27.931 41.4173 28.2695 41.2155 28.5625 40.877C28.849 40.5384 29.0117 40.0632 29.0508 39.4512L29.5 39.4512L29.5 44.1875L29.0508 44.1875C29.0182 43.6211 28.8652 43.1621 28.5918 42.8105C28.3118 42.4525 27.97 42.2344 27.5664 42.1562C27.1628 42.0781 26.4141 42.0391 25.3203 42.0391L19.5586 42.0391C18.5039 42.0391 17.8236 42.0716 17.5176 42.1367C17.2116 42.1953 17 42.3255 16.8828 42.5273C16.7656 42.7227 16.707 43.1556 16.707 43.8262L16.707 44.1875L16.2578 44.1875L16.2578 40.1543L27.2148 35.3008ZM25.4863 25.2812C24.2624 25.2812 23.2402 24.8711 22.4199 24.0508C21.5931 23.2305 21.1797 22.2214 21.1797 21.0234C21.1797 19.819 21.5931 18.8066 22.4199 17.9863C23.2467 17.166 24.2689 16.7559 25.4863 16.7559C26.834 16.7559 27.8952 17.1725 28.6699 18.0059C29.4381 18.8392 29.8223 19.8451 29.8223 21.0234C29.8223 22.2018 29.4316 23.2077 28.6504 24.041C27.8626 24.8678 26.8079 25.2812 25.4863 25.2812ZM25.5352 23.6602C26.9544 23.6602 27.9505 23.429 28.5234 22.9668C29.0898 22.5046 29.373 21.8568 29.373 21.0234C29.373 20.1706 29.0898 19.5195 28.5234 19.0703C27.9505 18.6146 26.9544 18.3867 25.5352 18.3867C24.1289 18.3867 23.1263 18.6113 22.5273 19.0605C21.9284 19.5098 21.6289 20.1641 21.6289 21.0234C21.6289 21.8763 21.9284 22.5306 22.5273 22.9863C23.1198 23.4355 24.1224 23.6602 25.5352 23.6602ZM23.2207 12.6934C22.6413 12.472 22.1562 12.1139 21.7656 11.6191C21.375 11.1178 21.1797 10.6296 21.1797 10.1543C21.1797 9.72461 21.3131 9.38607 21.5801 9.13867C21.847 8.89128 22.1204 8.76758 22.4004 8.76758C22.5892 8.76758 22.7519 8.83268 22.8887 8.96289C23.0254 9.08659 23.0937 9.23958 23.0937 9.42187C23.0937 9.7474 22.8529 9.99479 22.3711 10.1641C22.0456 10.2812 21.8828 10.457 21.8828 10.6914C21.8828 10.9714 22.0749 11.3066 22.459 11.6973C22.8366 12.0879 23.2305 12.3385 23.6406 12.4492C24.0508 12.5599 24.6139 12.6152 25.3301 12.6152L26.7559 12.6152C27.6087 12.6152 28.1458 12.6055 28.3672 12.5859C28.5885 12.5599 28.7578 12.4655 28.875 12.3027C28.9922 12.14 29.0508 11.8503 29.0508 11.4336L29.0508 11.1602L29.5 11.1602L29.5 15.4082L29.0508 15.4082L29.0508 15.2031C29.0508 14.8125 28.9987 14.5358 28.8945 14.373C28.7838 14.2038 28.6309 14.1029 28.4355 14.0703C28.2402 14.0378 27.6803 14.0215 26.7559 14.0215L24.5 14.0215C23.6406 14.0215 23.1035 14.0345 22.8887 14.0605C22.6673 14.0801 22.498 14.1712 22.3809 14.334C22.2572 14.4967 22.1953 14.7865 22.1953 15.2031L22.1953 15.4082L21.7559 15.4082C21.6842 14.7962 21.4922 13.9954 21.1797 13.0059C21.694 12.8171 22.3743 12.7129 23.2207 12.6934ZM24.207 0.925781L24.207 6.50195C24.5911 6.52799 24.8776 6.54102 25.0664 6.54102C26.4727 6.54101 27.5306 6.32292 28.2402 5.88672C28.9434 5.44401 29.2949 4.78646 29.2949 3.91406C29.2949 2.72917 28.7643 1.88932 27.7031 1.39453L27.7031 0.925781C28.3672 1.13411 28.888 1.54753 29.2656 2.16601C29.6367 2.7845 29.8223 3.45833 29.8223 4.1875C29.8223 4.86458 29.653 5.50586 29.3144 6.11133C28.9694 6.71029 28.4844 7.20182 27.8594 7.58594C27.2344 7.97005 26.4759 8.16211 25.584 8.16211C24.321 8.16211 23.2728 7.79102 22.4394 7.04883C21.5996 6.30664 21.1797 5.37891 21.1797 4.26562C21.1797 3.21745 21.4987 2.4069 22.1367 1.83398C22.7747 1.26107 23.4648 0.958333 24.207 0.925781ZM23.8164 2.63477C23.6667 2.61523 23.5332 2.60547 23.416 2.60547C22.8431 2.60547 22.4004 2.77474 22.0879 3.11328C21.7689 3.44531 21.6094 3.85547 21.6094 4.34375C21.6094 5.52865 22.345 6.23503 23.8164 6.46289L23.8164 2.63477Z" fill="white"/>
<path d="M23 208L23 308" stroke="#2F4039"/>
<path d="M16 301L23 308L30 301" stroke="#2F4039"/>
<circle cx="23" cy="304" r="22.75" stroke="#2F4039" stroke-width="0.5"/>
</svg>
