<svg width="56" height="512" viewBox="0 0 56 512" fill="none" xmlns="http://www.w3.org/2000/svg">
<path opacity="0.5" d="M0.749996 31.6719L0.749996 29.25L42.8594 10.9687C43.6146 10.6302 44.9167 10.0964 46.7656 9.36718C49.2656 8.35156 50.9453 7.28385 51.8047 6.16406C52.6641 5.04427 53.1198 3.23437 53.1719 0.734372L54.9687 0.734373L54.9687 23.5469L53.1719 23.5469C53.1719 20.7083 52.9635 18.7943 52.5469 17.8047C52.1302 16.8411 51.3359 16.3594 50.1641 16.3594C49.4089 16.3594 47.638 16.9714 44.8516 18.1953L9.69531 33.4297L38.9531 45.6562C43.849 47.7135 47.0391 48.7422 48.5234 48.7422C51.5182 48.7422 53.0677 46.6198 53.1719 42.375L54.9687 42.375L54.9687 58.5469L53.1719 58.5469C53.1198 56.9062 52.5338 55.4609 51.4141 54.2109C50.2943 52.9609 48.6536 51.8802 46.4922 50.9687L38.1719 47.4141L0.749996 31.6719ZM51.6094 61.2422C52.7292 61.2422 53.6927 61.6328 54.5 62.4141C55.3073 63.2214 55.7109 64.1849 55.7109 65.3047C55.7109 66.4245 55.3073 67.375 54.5 68.1562C53.6927 68.9375 52.7292 69.3281 51.6094 69.3281C50.4635 69.3281 49.487 68.9375 48.6797 68.1562C47.8724 67.375 47.4687 66.4245 47.4687 65.3047C47.4687 64.1849 47.8724 63.2214 48.6797 62.4141C49.487 61.6328 50.4635 61.2422 51.6094 61.2422ZM35.2812 68.7812L12.9766 68.7812C9.5651 68.7812 7.41666 68.8333 6.53124 68.9375C5.64582 69.0417 4.96874 69.4193 4.49999 70.0703C4.03124 70.7213 3.79687 71.8802 3.79687 73.5469L3.79687 74.3672L1.99999 74.3672L1.99999 57.1406L3.79687 57.1406L3.79687 58.4687C3.79687 60.3177 4.05728 61.5156 4.57812 62.0625C5.12499 62.6354 5.76301 62.9609 6.49218 63.0391C7.24739 63.1432 9.40885 63.1953 12.9766 63.1953L22.6641 63.1953C26.4141 63.1953 28.7057 63.013 29.5391 62.6484C30.3724 62.3099 30.8932 61.8411 31.1016 61.2422C31.3099 60.6693 31.4141 59.6536 31.4141 58.1953L31.4141 57.1406L33.2109 57.1406C33.6797 61.776 34.3698 65.3698 35.2812 67.9219L35.2812 68.7812ZM0.984365 79.1328L11.4922 79.1328L11.4922 80.6562C5.42447 82.4271 2.39061 85.5911 2.39061 90.1484C2.39061 92.1276 2.98957 93.5989 4.18749 94.5625C5.3854 95.5521 6.70051 96.0469 8.1328 96.0469C9.79947 96.0469 11.1667 95.526 12.2344 94.4844C13.3021 93.4167 14.5911 91.3463 16.1016 88.2734C17.6901 85.0443 19.2526 82.7266 20.7891 81.3203C22.2995 79.9141 24.1614 79.2109 26.375 79.2109C28.4844 79.2109 30.4896 79.9661 32.3906 81.4766C34.3177 82.987 35.2812 85.1094 35.2812 87.8437C35.2812 90.6302 34.1484 92.9349 31.8828 94.7578C32.2734 95.1484 33.2239 95.6562 34.7344 96.2812L34.7344 97.7266L24.8515 97.7266L24.8515 96.2812C27.2213 95.7604 29.2526 94.7448 30.9453 93.2344C32.6641 91.75 33.5234 89.9922 33.5234 87.9609C33.5234 86.3984 33.0417 85.1354 32.0781 84.1719C31.1146 83.2083 29.9948 82.7266 28.7187 82.7266C27.3125 82.7266 26.1016 83.2604 25.0859 84.3281C24.0443 85.3698 22.8594 87.362 21.5312 90.3047C19.526 94.7318 17.5729 97.4401 15.6719 98.4297C13.7448 99.4193 11.8958 99.9141 10.125 99.9141C7.33853 99.9141 5.0729 98.9896 3.32811 97.1406C1.58332 95.3177 0.710925 93.013 0.710926 90.2266C0.710926 87.2838 1.92186 84.6667 4.34374 82.375C3.56249 81.6719 2.4427 81.0989 0.984364 80.6562L0.984365 79.1328ZM33.9922 137.375L13.0156 137.375C9.52602 137.375 7.33852 137.427 6.45311 137.531C5.56769 137.635 4.90363 138.013 4.46092 138.664C4.01821 139.341 3.79686 140.539 3.79686 142.258L1.99998 142.258C1.9479 138.299 1.53123 135.409 0.749983 133.586L0.749983 133.117C2.18227 132.284 4.65623 131.841 8.17186 131.789C5.6979 130.201 3.83592 128.378 2.58592 126.32C1.33592 124.289 0.710922 122.036 0.710922 119.562C0.710922 117.427 1.19269 115.539 2.15624 113.898C3.14582 112.258 4.34374 111.125 5.74999 110.5C7.15624 109.901 9.27863 109.602 12.1172 109.602L23.0156 109.602C26.7135 109.602 28.9661 109.536 29.7734 109.406C30.6068 109.276 31.2187 108.859 31.6094 108.156C32 107.479 32.1953 106.216 32.1953 104.367L33.9922 104.367L33.9922 115.227L11.8047 115.227C9.61717 115.227 8.02863 115.357 7.03905 115.617C6.04946 115.878 5.17707 116.542 4.42186 117.609C3.69269 118.677 3.32811 119.914 3.32811 121.32C3.32811 123.326 3.97915 125.24 5.28123 127.062C6.60936 128.885 8.00259 130.122 9.46092 130.773C10.9453 131.451 13.0547 131.789 15.789 131.789L23.0156 131.789C26.5052 131.789 28.6276 131.75 29.3828 131.672C30.138 131.594 30.789 131.255 31.3359 130.656C31.9088 130.083 32.1953 128.872 32.1953 127.023L32.1953 126.203L33.9922 126.203L33.9922 137.375ZM7.85935 179.562L7.85935 181.008C3.40623 180.773 1.17966 178.586 1.17966 174.445C1.17966 172.674 1.64842 171.268 2.58592 170.227C3.52342 169.211 4.91664 168.547 6.7656 168.234C4.91665 165.63 3.52342 163.247 2.58592 161.086C1.64842 158.951 1.17967 157.036 1.17967 155.344C1.17967 153.182 1.80467 151.32 3.05467 149.758C4.30467 148.195 5.95831 147.414 8.01561 147.414C10.6979 147.414 13.0416 148.716 15.0469 151.32C17.0521 153.951 19.0052 157.57 20.9062 162.18L23.3672 168.234L24.9297 168.234C27.1432 168.234 28.7448 168.091 29.7344 167.805C30.7239 167.518 31.6094 166.776 32.3906 165.578C33.1719 164.38 33.5625 162.805 33.5625 160.852C33.5625 156.945 32.2604 154.771 29.6562 154.328C27 153.911 25.6719 152.818 25.6719 151.047C25.6719 149.458 26.4271 148.664 27.9375 148.664C29.4219 148.664 31.0104 149.719 32.7031 151.828C34.4219 153.937 35.2812 157.219 35.2812 161.672C35.2812 164.979 34.7604 167.544 33.7187 169.367C32.6771 171.19 31.4922 172.388 30.164 172.961C28.8359 173.56 26.8047 173.859 24.0703 173.859L11.1406 173.859C8.11977 173.859 6.17966 174.016 5.32029 174.328C4.46091 174.641 4.03123 175.318 4.03123 176.359C4.03123 178.078 5.30727 179.146 7.85935 179.562ZM21.5312 168.234L19.8125 163.977C17.0781 157.258 13.6406 153.898 9.49998 153.898C7.85935 153.898 6.53123 154.328 5.5156 155.187C4.52602 156.047 4.03123 157.167 4.03123 158.547C4.03123 159.771 4.43487 161.19 5.24217 162.805C6.04946 164.419 7.26039 166.229 8.87498 168.234L21.5312 168.234ZM55.7109 194.094L12.9765 194.094C9.56508 194.094 7.41664 194.133 6.53122 194.211C5.64581 194.315 4.96872 194.693 4.49997 195.344C4.03122 195.995 3.79685 197.154 3.79685 198.82L3.79685 199.758L1.99997 199.758L1.99998 182.648L3.79685 182.648L3.79685 183.742C3.79685 185.305 4.00518 186.411 4.42185 187.062C4.86456 187.74 5.47654 188.143 6.25779 188.273C7.03904 188.404 9.27862 188.469 12.9765 188.469L44.6172 188.469C47.9765 188.469 50.0859 188.169 50.9453 187.57C51.8307 186.971 52.2734 185.513 52.2734 183.195L54.0703 183.195C54.0703 184.784 54.2526 186.646 54.6172 188.781C54.9817 190.943 55.3463 192.427 55.7109 193.234L55.7109 194.094ZM26.9218 239.445L15.789 239.445C11.6224 239.445 8.88799 239.536 7.58591 239.719C6.30986 239.927 5.35934 240.461 4.73434 241.32C4.10934 242.18 3.79684 243.794 3.79684 246.164L3.79684 247.922L1.99997 247.922L1.99997 223.664L3.79685 223.664L3.79685 225.07C3.79685 227.336 4.0833 228.898 4.65622 229.758C5.22914 230.643 6.11455 231.203 7.31247 231.437C8.53643 231.672 11.3619 231.789 15.789 231.789L41.7656 231.789C45.9843 231.789 48.7057 231.672 49.9297 231.437C51.1536 231.203 52 230.682 52.4687 229.875C52.9375 229.068 53.1718 227.323 53.1718 224.641L53.1718 223.664L54.9687 223.664L55.2031 230.305C55.3854 235.617 55.4765 239.758 55.4765 242.727C55.4765 248.195 55.0468 252.401 54.1875 255.344C53.3281 258.312 51.8047 260.734 49.6172 262.609C47.4297 264.51 44.6692 265.461 41.3359 265.461C38.4453 265.461 35.8932 264.81 33.6797 263.508C31.4661 262.232 29.7864 260.383 28.6406 257.961C27.4948 255.565 26.9218 251.333 26.9218 245.266L26.9218 239.445ZM28.875 239.445L28.875 243.234C28.875 246.281 29.1744 248.742 29.7734 250.617C30.3984 252.492 31.6875 254.055 33.6406 255.305C35.5937 256.555 38.0026 257.18 40.8672 257.18C45.2422 257.18 48.4453 256.099 50.4765 253.937C52.5338 251.802 53.5625 248.326 53.5625 243.508C53.5625 241.737 53.5104 240.383 53.4062 239.445L28.875 239.445ZM27.1172 279.367C29.4349 280.253 31.375 281.685 32.9375 283.664C34.5 285.669 35.2812 287.622 35.2812 289.523C35.2812 291.242 34.7474 292.596 33.6796 293.586C32.6119 294.576 31.5182 295.07 30.3984 295.07C29.6432 295.07 28.9921 294.81 28.4453 294.289C27.8984 293.794 27.625 293.182 27.625 292.453C27.625 291.151 28.5885 290.161 30.5156 289.484C31.8177 289.016 32.4687 288.312 32.4687 287.375C32.4687 286.255 31.7005 284.914 30.164 283.352C28.6536 281.789 27.0781 280.786 25.4375 280.344C23.7968 279.901 21.5442 279.68 18.6797 279.68L12.9765 279.68C9.56507 279.68 7.41663 279.719 6.53121 279.797C5.6458 279.901 4.96871 280.279 4.49996 280.93C4.03121 281.581 3.79684 282.74 3.79684 284.406L3.79684 285.5L1.99996 285.5L1.99996 268.508L3.79684 268.508L3.79684 269.328C3.79684 270.891 4.00517 271.997 4.42184 272.648C4.86455 273.326 5.47653 273.729 6.25778 273.859C7.03903 273.99 9.27861 274.055 12.9765 274.055L22 274.055C25.4375 274.055 27.5859 274.003 28.4453 273.898C29.3307 273.82 30.0078 273.456 30.4765 272.805C30.9713 272.154 31.2187 270.995 31.2187 269.328L31.2187 268.508L32.9765 268.508C33.263 270.956 34.0312 274.159 35.2812 278.117C33.2239 278.872 30.5026 279.289 27.1172 279.367ZM23.1718 326.437L23.1718 304.133C21.6354 304.029 20.4895 303.977 19.7343 303.977C14.1093 303.977 9.87756 304.849 7.03902 306.594C4.22652 308.365 2.82027 310.995 2.82027 314.484C2.82027 319.224 4.94267 322.583 9.18746 324.562L9.18746 326.437C6.53121 325.604 4.44787 323.951 2.93746 321.477C1.45308 319.003 0.710896 316.307 0.710896 313.391C0.710897 310.682 1.38798 308.117 2.74215 305.695C4.12236 303.299 6.06246 301.333 8.56246 299.797C11.0625 298.26 14.0963 297.492 17.664 297.492C22.7161 297.492 26.9088 298.977 30.2421 301.945C33.6015 304.914 35.2812 308.625 35.2812 313.078C35.2812 317.271 34.0052 320.513 31.4531 322.805C28.901 325.096 26.1406 326.307 23.1718 326.437ZM24.7343 319.602C25.3333 319.68 25.8671 319.719 26.3359 319.719C28.6276 319.719 30.3984 319.042 31.6484 317.687C32.9244 316.359 33.5625 314.719 33.5625 312.766C33.5625 308.026 30.6198 305.201 24.7343 304.289L24.7343 319.602ZM9.81245 360.07L9.81245 361.789C3.74474 360.018 0.710891 355.591 0.710892 348.508C0.710892 343.951 2.26037 340.109 5.35933 336.984C8.45829 333.885 12.5599 332.336 17.664 332.336C22.8984 332.336 27.1432 334.016 30.3984 337.375C33.6536 340.734 35.2812 344.706 35.2812 349.289C35.2812 352.049 34.6692 354.589 33.4453 356.906C32.2473 359.224 30.776 360.383 29.0312 360.383C28.3802 360.383 27.7682 360.161 27.1953 359.719C26.6223 359.302 26.3359 358.69 26.3359 357.883C26.3359 356.164 27.3385 355.109 29.3437 354.719C30.8541 354.406 31.9088 353.924 32.5078 353.273C33.1067 352.596 33.4062 351.281 33.4062 349.328C33.4062 345.839 32.1953 343.208 29.7734 341.437C27.3515 339.693 23.7057 338.82 18.8359 338.82C13.8099 338.82 9.87756 339.758 7.03902 341.633C4.20048 343.534 2.7812 346.398 2.7812 350.227C2.7812 355.383 5.12495 358.664 9.81245 360.07ZM51.6093 369.055C52.7291 369.055 53.6927 369.445 54.5 370.227C55.3072 371.034 55.7109 371.997 55.7109 373.117C55.7109 374.237 55.3072 375.187 54.5 375.969C53.6927 376.75 52.7291 377.141 51.6093 377.141C50.4635 377.141 49.4869 376.75 48.6796 375.969C47.8723 375.187 47.4687 374.237 47.4687 373.117C47.4687 371.997 47.8723 371.034 48.6796 370.227C49.4869 369.445 50.4635 369.055 51.6093 369.055ZM35.2812 376.594L12.9765 376.594C9.56505 376.594 7.41662 376.646 6.5312 376.75C5.64578 376.854 4.9687 377.232 4.49995 377.883C4.0312 378.534 3.79683 379.693 3.79683 381.359L3.79682 382.18L1.99995 382.18L1.99995 364.953L3.79683 364.953L3.79683 366.281C3.79683 368.13 4.05724 369.328 4.57808 369.875C5.12495 370.448 5.76297 370.773 6.49214 370.852C7.24735 370.956 9.40881 371.008 12.9765 371.008L22.664 371.008C26.414 371.008 28.7057 370.826 29.539 370.461C30.3723 370.122 30.8932 369.654 31.1015 369.055C31.3098 368.482 31.414 367.466 31.414 366.008L31.414 364.953L33.2109 364.953C33.6796 369.589 34.3697 373.182 35.2812 375.734L35.2812 376.594ZM0.984324 386.945L11.4921 386.945L11.4921 388.469C5.42443 390.24 2.39057 393.404 2.39057 397.961C2.39057 399.94 2.98953 401.411 4.18745 402.375C5.38536 403.365 6.70047 403.859 8.13276 403.859C9.79943 403.859 11.1666 403.339 12.2343 402.297C13.302 401.229 14.5911 399.159 16.1015 396.086C17.6901 392.857 19.2526 390.539 20.789 389.133C22.2994 387.727 24.1614 387.023 26.3749 387.023C28.4843 387.023 30.4895 387.779 32.3906 389.289C34.3177 390.799 35.2812 392.922 35.2812 395.656C35.2812 398.443 34.1484 400.747 31.8828 402.57C32.2734 402.961 33.2239 403.469 34.7343 404.094L34.7343 405.539L24.8515 405.539L24.8515 404.094C27.2213 403.573 29.2526 402.557 30.9453 401.047C32.664 399.562 33.5234 397.805 33.5234 395.773C33.5234 394.211 33.0416 392.948 32.0781 391.984C31.1145 391.021 29.9947 390.539 28.7187 390.539C27.3124 390.539 26.1015 391.073 25.0859 392.141C24.0442 393.182 22.8593 395.174 21.5312 398.117C19.526 402.544 17.5729 405.253 15.6718 406.242C13.7447 407.232 11.8958 407.727 10.1249 407.727C7.33849 407.727 5.07286 406.802 3.32807 404.953C1.58328 403.13 0.710885 400.826 0.710885 398.039C0.710886 395.096 1.92182 392.479 4.3437 390.187C3.56245 389.484 2.44266 388.911 0.984324 388.469L0.984324 386.945ZM51.6093 415.773C52.7291 415.773 53.6927 416.164 54.4999 416.945C55.3072 417.753 55.7109 418.716 55.7109 419.836C55.7109 420.956 55.3072 421.906 54.4999 422.687C53.6927 423.469 52.7291 423.859 51.6093 423.859C50.4635 423.859 49.4869 423.469 48.6796 422.687C47.8723 421.906 47.4687 420.956 47.4687 419.836C47.4687 418.716 47.8723 417.753 48.6796 416.945C49.4869 416.164 50.4635 415.773 51.6093 415.773ZM35.2812 423.312L12.9765 423.312C9.56505 423.312 7.41661 423.365 6.53119 423.469C5.64578 423.573 4.96869 423.951 4.49994 424.602C4.03119 425.253 3.79682 426.411 3.79682 428.078L3.79682 428.898L1.99994 428.898L1.99995 411.672L3.79682 411.672L3.79682 413C3.79682 414.849 4.05724 416.047 4.57807 416.594C5.12495 417.167 5.76297 417.492 6.49213 417.57C7.24734 417.674 9.4088 417.727 12.9765 417.727L22.664 417.727C26.414 417.727 28.7057 417.544 29.539 417.18C30.3723 416.841 30.8932 416.372 31.1015 415.773C31.3098 415.201 31.414 414.185 31.414 412.727L31.414 411.672L33.2109 411.672C33.6796 416.307 34.3697 419.901 35.2812 422.453L35.2812 423.312ZM18.0546 433.391C22.9505 433.391 27.039 435.031 30.3203 438.312C33.6275 441.594 35.2812 445.63 35.2812 450.422C35.2812 455.24 33.6275 459.289 30.3203 462.57C27.013 465.852 22.9244 467.492 18.0546 467.492C12.664 467.492 8.41921 465.826 5.32025 462.492C2.24734 459.159 0.710878 455.135 0.710878 450.422C0.710879 445.708 2.27338 441.685 5.39838 438.352C8.54942 435.044 12.7682 433.391 18.0546 433.391ZM17.8593 439.875C12.1822 439.875 8.19786 440.799 5.90619 442.648C3.64057 444.497 2.50775 447.089 2.50775 450.422C2.50775 453.833 3.64057 456.437 5.90619 458.234C8.19786 460.057 12.1822 460.969 17.8593 460.969C23.4843 460.969 27.4947 460.07 29.8906 458.273C32.2864 456.477 33.4843 453.859 33.4843 450.422C33.4843 447.01 32.2864 444.393 29.8906 442.57C27.5208 440.773 23.5104 439.875 17.8593 439.875ZM35.2812 481.437L35.2812 482.492C33.6666 483.091 31.4661 483.43 28.6796 483.508C30.8932 485.383 32.5468 487.349 33.6406 489.406C34.7343 491.464 35.2812 493.612 35.2812 495.852C35.2812 498.404 34.7473 500.487 33.6796 502.102C32.6119 503.742 31.2968 504.797 29.7343 505.266C28.1979 505.734 25.9452 505.969 22.9765 505.969L12.9765 505.969C9.27858 505.969 7.02598 506.034 6.21868 506.164C5.41139 506.294 4.79941 506.698 4.38275 507.375C3.99212 508.078 3.79681 509.354 3.79681 511.203L1.99993 511.203L1.99994 494.836L3.79681 494.836L3.79681 495.578C3.79681 497.453 4.07025 498.677 4.61712 499.25C5.164 499.823 5.80202 500.148 6.53118 500.227C7.26035 500.305 9.40879 500.344 12.9765 500.344L23.289 500.344C25.815 500.344 27.6119 500.214 28.6796 499.953C29.7734 499.719 30.7369 499.055 31.5702 497.961C32.4036 496.893 32.8202 495.526 32.8202 493.859C32.8202 491.958 32.2473 490.135 31.1015 488.391C29.9817 486.672 28.289 485.044 26.0234 483.508L12.9765 483.508C9.27858 483.508 7.02598 483.573 6.21869 483.703C5.41139 483.859 4.79942 484.276 4.38275 484.953C3.99212 485.656 3.79681 486.945 3.79681 488.82L1.99994 488.82L1.99994 472.648L3.79681 472.648C3.79681 474.445 3.9791 475.695 4.34369 476.398C4.70827 477.102 5.25515 477.531 5.98431 477.687C6.73952 477.87 9.07025 477.961 12.9765 477.961L22.5077 477.961C26.2317 477.961 28.4843 477.883 29.2656 477.727C30.0729 477.596 30.6718 477.18 31.0624 476.477C31.4791 475.799 31.6874 474.523 31.6874 472.648L33.4843 472.648C33.7968 475.513 34.3958 478.443 35.2812 481.437Z" fill="#F4F4F4"/>
</svg>
